solid 01 - Display Model
facet normal 0.2254776299994099 -0.3092110158439775 -0.9238768240683304
  outer loop
    vertex 1619.6322641248205 321.40322752208647 477.42483194234006
    vertex 1646.665246450673 343.05596512004405 476.7754681027141
    vertex 1647.5889050415299 341.7892966205581 477.4248319441155
  endloop
endfacet
facet normal 0.2254776299994099 -0.3092110158439775 -0.9238768240683304
  outer loop
    vertex 1646.665246450673 343.05596512004405 476.7754681027141
    vertex 1619.6322641248205 321.40322752208647 477.42483194234006
    vertex 1618.7086144190782 322.6699025006256 476.7754681009387
  endloop
endfacet
facet normal -0.07690904090243564 0.10546998676459025 0.9914439375574118
  outer loop
    vertex 1648.5801689956768 340.4299168272677 464.6463259801059
    vertex 1621.6147574565935 318.6845565928504 464.8678200139954
    vertex 1649.5713787397028 339.07061137444003 464.86782001577063
  endloop
endfacet
facet normal -0.07690904090243564 0.10546998676459025 0.9914439375574118
  outer loop
    vertex 1621.6147574565935 318.6845565928504 464.8678200139954
    vertex 1648.5801689956768 340.4299168272677 464.6463259801059
    vertex 1620.6235559286833 320.0438680368953 464.6463259783306
  endloop
endfacet
facet normal -0.8079968125209788 -0.5891868557123016 -3.4336515586106744e-06
  outer loop
    vertex 1612.7374660194384 330.85857142872425 480.49621994868255
    vertex 1619.6322641248205 321.40322752208647 477.42483194234006
    vertex 1620.6234656527304 320.04391607804166 477.64632597800494
  endloop
endfacet
facet normal -0.8079968125209788 -0.5891868557123016 -3.4336515586106744e-06
  outer loop
    vertex 1619.6322641248205 321.40322752208647 477.42483194234006
    vertex 1612.7374660194384 330.85857142872425 480.49621994868255
    vertex 1618.7086144190782 322.6699025006256 476.7754681009387
  endloop
endfacet
facet normal -0.8079968125209788 -0.5891868557123016 -3.4336515586106744e-06
  outer loop
    vertex 1618.7086144190782 322.6699025006256 476.7754681009387
    vertex 1612.7374660194384 330.85857142872425 480.49621994868255
    vertex 1617.9154617365464 323.7576192071511 475.7424875264676
  endloop
endfacet
facet normal -0.8079968125209788 -0.5891868557123016 -3.4336515586106744e-06
  outer loop
    vertex 1617.9154617365464 323.7576192071511 475.7424875264676
    vertex 1612.7374660194384 330.85857142872425 480.49621994868255
    vertex 1617.306858121793 324.59225154564984 474.39628613799584
  endloop
endfacet
facet normal -0.8079968125209788 -0.5891868557123016 -3.4336515586106744e-06
  outer loop
    vertex 1617.306858121793 324.59225154564984 474.39628613799584
    vertex 1612.7374660194384 330.85857142872425 480.49621994868255
    vertex 1612.7375858475136 330.8585160788329 461.79622944838763
  endloop
endfacet
facet normal -0.8079968125209788 -0.5891868557123016 -3.4336515586106744e-06
  outer loop
    vertex 1617.306858121793 324.59225154564984 474.39628613799584
    vertex 1612.7375858475136 330.8585160788329 461.79622944838763
    vertex 1616.9242789053985 325.1169207015486 472.8286053354449
  endloop
endfacet
facet normal -0.8079968125209788 -0.5891868557123016 -3.4336515586106744e-06
  outer loop
    vertex 1616.9242789053985 325.1169207015486 472.8286053354449
    vertex 1612.7375858475136 330.8585160788329 461.79622944838763
    vertex 1616.7937962287178 325.29587133892954 471.1462799747937
  endloop
endfacet
facet normal -0.8079968125209788 -0.5891868557123016 -3.4336515586106744e-06
  outer loop
    vertex 1616.7937962287178 325.29587133892954 471.1462799747937
    vertex 1612.7375858475136 330.8585160788329 461.79622944838763
    vertex 1616.9243022705346 325.1169082675849 469.4639577491965
  endloop
endfacet
facet normal -0.8079968125209788 -0.5891868557123016 -3.4336515586106744e-06
  outer loop
    vertex 1616.9243022705346 325.1169082675849 469.4639577491965
    vertex 1612.7375858475136 330.8585160788329 461.79622944838763
    vertex 1617.3069032597696 324.59222752507657 467.89628613815864
  endloop
endfacet
facet normal -0.8079968125209788 -0.5891868557123016 -3.4336515586106744e-06
  outer loop
    vertex 1617.3069032597696 324.59222752507657 467.89628613815864
    vertex 1612.7375858475136 330.8585160788329 461.79622944838763
    vertex 1617.915525571285 323.7575852369306 466.5500993712726
  endloop
endfacet
facet normal -0.8079968125209788 -0.5891868557123016 -3.4336515586106744e-06
  outer loop
    vertex 1617.915525571285 323.7575852369306 466.5500993712726
    vertex 1612.7375858475136 330.8585160788329 461.79622944838763
    vertex 1618.7086926003467 322.6698608957724 465.5171378520228
  endloop
endfacet
facet normal -0.8079968125209788 -0.5891868557123016 -3.4336515586106744e-06
  outer loop
    vertex 1618.7086926003467 322.6698608957724 465.5171378520228
    vertex 1612.7375858475136 330.8585160788329 461.79622944838763
    vertex 1619.632351324695 321.40318111790236 464.8677962008967
  endloop
endfacet
facet normal -0.8079968125209788 -0.5891868557123016 -3.4336515586106744e-06
  outer loop
    vertex 1619.632351324695 321.40318111790236 464.8677962008967
    vertex 1612.7375858475136 330.8585160788329 461.79622944838763
    vertex 1620.6235559286833 320.0438680368953 464.6463259783306
  endloop
endfacet
facet normal -0.8079968125209788 -0.5891868557123016 -3.4336515586106744e-06
  outer loop
    vertex 1620.6235559286833 320.0438680368953 464.6463259783306
    vertex 1612.7375858475136 330.8585160788329 461.79622944838763
    vertex 1628.5094939872092 309.22929712859377 461.7963885532874
  endloop
endfacet
facet normal -0.8079968125209788 -0.5891868557123016 -3.4336515586106744e-06
  outer loop
    vertex 1628.5093741591343 309.22935247848517 480.49637905358236
    vertex 1623.9401183216441 315.49555658986037 474.39636581817666
    vertex 1628.5094939872092 309.22929712859377 461.7963885532874
  endloop
endfacet
facet normal -0.8079968125209788 -0.5891868557123016 -3.4336515586106744e-06
  outer loop
    vertex 1623.9401183216441 315.49555658986037 474.39636581817666
    vertex 1628.5093741591343 309.22935247848517 480.49637905358236
    vertex 1623.3314960101288 316.3301988780064 475.74255258506264
  endloop
endfacet
facet normal -0.8079968125209788 -0.5891868557123016 -3.4336515586106744e-06
  outer loop
    vertex 1623.3314960101288 316.3301988780064 475.74255258506264
    vertex 1628.5093741591343 309.22935247848517 480.49637905358236
    vertex 1622.538328981067 317.4179232191646 476.77551410431244
  endloop
endfacet
facet normal -0.8079968125209788 -0.5891868557123016 -3.4336515586106744e-06
  outer loop
    vertex 1622.538328981067 317.4179232191646 476.77551410431244
    vertex 1628.5093741591343 309.22935247848517 480.49637905358236
    vertex 1621.614670256719 318.6846029970346 477.42485575543856
  endloop
endfacet
facet normal -0.8079968125209788 -0.5891868557123016 -3.4336515586106744e-06
  outer loop
    vertex 1621.614670256719 318.6846029970346 477.42485575543856
    vertex 1628.5093741591343 309.22935247848517 480.49637905358236
    vertex 1612.7374660194384 330.85857142872425 480.49621994868255
  endloop
endfacet
facet normal -0.8079968125209788 -0.5891868557123016 -3.4336515586106744e-06
  outer loop
    vertex 1621.614670256719 318.6846029970346 477.42485575543856
    vertex 1612.7374660194384 330.85857142872425 480.49621994868255
    vertex 1620.6234656527304 320.04391607804166 477.64632597800494
  endloop
endfacet
facet normal -0.8079968125209788 -0.5891868557123016 -3.4336515586106744e-06
  outer loop
    vertex 1628.5094939872092 309.22929712859377 461.7963885532874
    vertex 1623.9401183216441 315.49555658986037 474.39636581817666
    vertex 1624.3227193108792 314.9708758473521 472.82869420713877
  endloop
endfacet
facet normal -0.8079968125209788 -0.5891868557123016 -3.4336515586106744e-06
  outer loop
    vertex 1628.5094939872092 309.22929712859377 461.7963885532874
    vertex 1624.3227193108792 314.9708758473521 472.82869420713877
    vertex 1624.4532253526957 314.79191277600756 471.14637198154145
  endloop
endfacet
facet normal -0.8079968125209788 -0.5891868557123016 -3.4336515586106744e-06
  outer loop
    vertex 1628.5094939872092 309.22929712859377 461.7963885532874
    vertex 1624.4532253526957 314.79191277600756 471.14637198154145
    vertex 1624.3227426760152 314.9708634133885 469.4640466208903
  endloop
endfacet
facet normal -0.8079968125209788 -0.5891868557123016 -3.4336515586106744e-06
  outer loop
    vertex 1628.5094939872092 309.22929712859377 461.7963885532874
    vertex 1624.3227426760152 314.9708634133885 469.4640466208903
    vertex 1623.9401634596206 315.49553256928715 467.89636581833946
  endloop
endfacet
facet normal -0.8079968125209788 -0.5891868557123016 -3.4336515586106744e-06
  outer loop
    vertex 1628.5094939872092 309.22929712859377 461.7963885532874
    vertex 1623.9401634596206 315.49553256928715 467.89636581833946
    vertex 1623.3315598448673 316.33016490778607 466.5501644298679
  endloop
endfacet
facet normal -0.8079968125209788 -0.5891868557123016 -3.4336515586106744e-06
  outer loop
    vertex 1628.5094939872092 309.22929712859377 461.7963885532874
    vertex 1623.3315598448673 316.33016490778607 466.5501644298679
    vertex 1622.5384071623357 317.4178816143114 465.5171838553968
  endloop
endfacet
facet normal -0.8079968125209788 -0.5891868557123016 -3.4336515586106744e-06
  outer loop
    vertex 1628.5094939872092 309.22929712859377 461.7963885532874
    vertex 1622.5384071623357 317.4178816143114 465.5171838553968
    vertex 1621.6147574565935 318.6845565928504 464.8678200139954
  endloop
endfacet
facet normal -0.8079968125209788 -0.5891868557123016 -3.4336515586106744e-06
  outer loop
    vertex 1628.5094939872092 309.22929712859377 461.7963885532874
    vertex 1621.6147574565935 318.6845565928504 464.8678200139954
    vertex 1620.6235559286833 320.0438680368953 464.6463259783306
  endloop
endfacet
facet normal -0.5841502160583223 0.8010802746281753 -0.130533209110413
  outer loop
    vertex 1652.279383447829 335.35696187809486 472.82869420891427
    vertex 1624.4532253526957 314.79191277600756 471.14637198154145
    vertex 1624.3227193108792 314.9708758473521 472.82869420713877
  endloop
endfacet
facet normal -0.5841502160583223 0.8010802746281753 -0.130533209110413
  outer loop
    vertex 1624.4532253526957 314.79191277600756 471.14637198154145
    vertex 1652.279383447829 335.35696187809486 472.82869420891427
    vertex 1652.4098858231607 335.1779961331382 471.1463719833169
  endloop
endfacet
facet normal 0.35868029123139433 -0.4918798251890654 -0.7933490317975669
  outer loop
    vertex 1618.7086144190782 322.6699025006256 476.7754681009387
    vertex 1645.872084819534 344.1436753012173 475.7424875282429
    vertex 1646.665246450673 343.05596512004405 476.7754681027141
  endloop
endfacet
facet normal 0.35868029123139433 -0.4918798251890654 -0.7933490317975669
  outer loop
    vertex 1645.872084819534 344.1436753012173 475.7424875282429
    vertex 1618.7086144190782 322.6699025006256 476.7754681009387
    vertex 1617.9154617365464 323.7576192071511 475.7424875264676
  endloop
endfacet
facet normal 0.5841513046491964 -0.8010817674554872 -0.1305191753231475
  outer loop
    vertex 1616.7937962287178 325.29587133892954 471.1462799747937
    vertex 1644.8808863027916 345.5029653576309 472.82860533722044
    vertex 1616.9242789053985 325.1169207015486 472.8286053354449
  endloop
endfacet
facet normal 0.5841513046491964 -0.8010817674554872 -0.1305191753231475
  outer loop
    vertex 1644.8808863027916 345.5029653576309 472.82860533722044
    vertex 1616.7937962287178 325.29587133892954 471.1462799747937
    vertex 1644.7503979580717 345.6819118618599 471.14627997656925
  endloop
endfacet
facet normal -0.4674394833630878 0.6410278373172533 0.6087558140811591
  outer loop
    vertex 1651.8968109787197 335.8816064822414 467.89636582011485
    vertex 1623.3315598448673 316.33016490778607 466.5501644298679
    vertex 1623.9401634596206 315.49553256928715 467.89636581833946
  endloop
endfacet
facet normal -0.4674394833630878 0.6410278373172533 0.6087558140811591
  outer loop
    vertex 1623.3315598448673 316.33016490778607 466.5501644298679
    vertex 1651.8968109787197 335.8816064822414 467.89636582011485
    vertex 1651.2881989616988 336.71623269378085 466.5501644316433
  endloop
endfacet
facet normal 0.35867367464973726 -0.4918707516114433 0.7933576487451599
  outer loop
    vertex 1645.872123151878 344.143622734572 466.55009937304806
    vertex 1618.7086926003467 322.6698608957724 465.5171378520228
    vertex 1646.665293398015 343.05590073931484 465.51713785379843
  endloop
endfacet
facet normal 0.35867367464973726 -0.4918707516114433 0.7933576487451599
  outer loop
    vertex 1618.7086926003467 322.6698608957724 465.5171378520228
    vertex 1645.872123151878 344.143622734572 466.55009937304806
    vertex 1617.915525571285 323.7575852369306 466.5500993712726
  endloop
endfacet
facet normal 0.5443402555969512 -0.7464864849327031 0.38268997105942465
  outer loop
    vertex 1645.2634999075738 344.97826434252534 467.89628613993403
    vertex 1616.9243022705346 325.1169082675849 469.4639577491965
    vertex 1617.3069032597696 324.59222752507657 467.89628613815864
  endloop
endfacet
facet normal 0.5443402555969512 -0.7464864849327031 0.38268997105942465
  outer loop
    vertex 1616.9243022705346 325.1169082675849 469.4639577491965
    vertex 1645.2634999075738 344.97826434252534 467.89628613993403
    vertex 1644.8809003334036 345.5029461169034 469.463957750972
  endloop
endfacet
facet normal 0.0769007722338093 -0.10545864761538054 0.9914457851405586
  outer loop
    vertex 1647.5889574044859 341.78922481318517 464.86779620267214
    vertex 1620.6235559286833 320.0438680368953 464.6463259783306
    vertex 1648.5801689956768 340.4299168272677 464.6463259801059
  endloop
endfacet
facet normal 0.0769007722338093 -0.10545864761538054 0.9914457851405586
  outer loop
    vertex 1620.6235559286833 320.0438680368953 464.6463259783306
    vertex 1647.5889574044859 341.78922481318517 464.86779620267214
    vertex 1619.632351324695 321.40318111790236 464.8677962008967
  endloop
endfacet
facet normal 0.07690904090248496 -0.10546998676465079 -0.9914439375574013
  outer loop
    vertex 1620.6234656527304 320.04391607804166 477.64632597800494
    vertex 1647.5889050415299 341.7892966205581 477.4248319441155
    vertex 1648.5801147855557 340.4299911677305 477.6463259797804
  endloop
endfacet
facet normal 0.07690904090248496 -0.10546998676465079 -0.9914439375574013
  outer loop
    vertex 1647.5889050415299 341.7892966205581 477.4248319441155
    vertex 1620.6234656527304 320.04391607804166 477.64632597800494
    vertex 1619.6322641248205 321.40322752208647 477.42483194234006
  endloop
endfacet
facet normal -0.22547762999946222 0.30921101584405586 0.9238768240682915
  outer loop
    vertex 1649.5713787397028 339.07061137444003 464.86782001577063
    vertex 1622.5384071623357 317.4178816143114 465.5171838553968
    vertex 1650.4950373305596 337.803942874954 465.5171838571721
  endloop
endfacet
facet normal -0.22547762999946222 0.30921101584405586 0.9238768240682915
  outer loop
    vertex 1622.5384071623357 317.4178816143114 465.5171838553968
    vertex 1649.5713787397028 339.07061137444003 464.86782001577063
    vertex 1621.6147574565935 318.6845565928504 464.8678200139954
  endloop
endfacet
facet normal -0.15472617072260222 -0.9879573938636141 1.932770779821324e-06
  outer loop
    vertex 1629.5158134804985 315.65646626684116 480.49637922769506
    vertex 1630.306271609865 315.53263430503654 461.79639244184256
    vertex 1630.30615178179 315.5326896549279 480.4963829421375
  endloop
endfacet
facet normal -0.15472617072260222 -0.9879573938636141 1.932770779821324e-06
  outer loop
    vertex 1630.306271609865 315.53263430503654 461.79639244184256
    vertex 1629.5158134804985 315.65646626684116 480.49637922769506
    vertex 1629.5159333085735 315.65641091694977 461.79638872740014
  endloop
endfacet
facet normal 0.5841502160583192 -0.8010802746281726 0.13053320911044347
  outer loop
    vertex 1616.9243022705346 325.1169082675849 469.4639577491965
    vertex 1644.7503979580717 345.6819118618599 471.14627997656925
    vertex 1616.7937962287178 325.29587133892954 471.1462799747937
  endloop
endfacet
facet normal 0.5841502160583192 -0.8010802746281726 0.13053320911044347
  outer loop
    vertex 1644.7503979580717 345.6819118618599 471.14627997656925
    vertex 1616.9243022705346 325.1169082675849 469.4639577491965
    vertex 1644.8809003334036 345.5029461169034 469.463957750972
  endloop
endfacet
facet normal -0.5891908611072256 0.8079938917604371 -8.0962578634773e-06
  outer loop
    vertex 1643.0711635519071 347.984746854949 480.4962598056251
    vertex 1619.2885138207625 330.64220125136313 461.79625999412616
    vertex 1619.2883939926876 330.6422566012545 480.4962504944211
  endloop
endfacet
facet normal -0.5891908611072256 0.8079938917604371 -8.0962578634773e-06
  outer loop
    vertex 1619.2885138207625 330.64220125136313 461.79625999412616
    vertex 1643.0711635519071 347.984746854949 480.4962598056251
    vertex 1643.0712415310816 347.98463991905254 461.79625980609325
  endloop
endfacet
facet normal 0.46743440628144745 -0.6410208749163081 0.6087670439058293
  outer loop
    vertex 1645.872123151878 344.143622734572 466.55009937304806
    vertex 1617.3069032597696 324.59222752507657 467.89628613815864
    vertex 1617.915525571285 323.7575852369306 466.5500993712726
  endloop
endfacet
facet normal 0.46743440628144745 -0.6410208749163081 0.6087670439058293
  outer loop
    vertex 1617.3069032597696 324.59222752507657 467.89628613815864
    vertex 1645.872123151878 344.143622734572 466.55009937304806
    vertex 1645.2634999075738 344.97826434252534 467.89628613993403
  endloop
endfacet
facet normal -0.46743440628144 0.6410208749163022 -0.6087670439058411
  outer loop
    vertex 1623.3314960101288 316.3301988780064 475.74255258506264
    vertex 1651.8967838736592 335.8816436524728 474.39636581995217
    vertex 1623.9401183216441 315.49555658986037 474.39636581817666
  endloop
endfacet
facet normal -0.46743440628144 0.6410208749163022 -0.6087670439058411
  outer loop
    vertex 1651.8967838736592 335.8816436524728 474.39636581995217
    vertex 1623.3314960101288 316.3301988780064 475.74255258506264
    vertex 1651.2881606293545 336.7162852604261 475.74255258683826
  endloop
endfacet
facet normal -0.5841513046491965 0.8010817674554834 0.13051917532316964
  outer loop
    vertex 1652.4098858231607 335.1779961331382 471.1463719833169
    vertex 1624.3227426760152 314.9708634133885 469.4640466208903
    vertex 1624.4532253526957 314.79191277600756 471.14637198154145
  endloop
endfacet
facet normal -0.5841513046491965 0.8010817674554834 0.13051917532316964
  outer loop
    vertex 1624.3227426760152 314.9708634133885 469.4640466208903
    vertex 1652.4098858231607 335.1779961331382 471.1463719833169
    vertex 1652.2793974784408 335.3569426373673 469.46404662266576
  endloop
endfacet
facet normal -0.5443402555969502 0.746486484932706 -0.38268997105942043
  outer loop
    vertex 1623.9401183216441 315.49555658986037 474.39636581817666
    vertex 1652.279383447829 335.35696187809486 472.82869420891427
    vertex 1624.3227193108792 314.9708758473521 472.82869420713877
  endloop
endfacet
facet normal -0.5443402555969502 0.746486484932706 -0.38268997105942043
  outer loop
    vertex 1652.279383447829 335.35696187809486 472.82869420891427
    vertex 1623.9401183216441 315.49555658986037 474.39636581817666
    vertex 1651.8967838736592 335.8816436524728 474.39636581995217
  endloop
endfacet
facet normal 0.5443434471839071 -0.7464908616809229 -0.382676893651569
  outer loop
    vertex 1616.9242789053985 325.1169207015486 472.8286053354449
    vertex 1645.2634728025132 344.9783015127568 474.3962861397713
    vertex 1617.306858121793 324.59225154564984 474.39628613799584
  endloop
endfacet
facet normal 0.5443434471839071 -0.7464908616809229 -0.382676893651569
  outer loop
    vertex 1645.2634728025132 344.9783015127568 474.3962861397713
    vertex 1616.9242789053985 325.1169207015486 472.8286053354449
    vertex 1644.8808863027916 345.5029653576309 472.82860533722044
  endloop
endfacet
facet normal 0.4674394833631158 -0.6410278373172884 -0.6087558140811006
  outer loop
    vertex 1617.306858121793 324.59225154564984 474.39628613799584
    vertex 1645.872084819534 344.1436753012173 475.7424875282429
    vertex 1617.9154617365464 323.7576192071511 475.7424875264676
  endloop
endfacet
facet normal 0.4674394833631158 -0.6410278373172884 -0.6087558140811006
  outer loop
    vertex 1645.872084819534 344.1436753012173 475.7424875282429
    vertex 1617.306858121793 324.59225154564984 474.39628613799584
    vertex 1645.2634728025132 344.9783015127568 474.3962861397713
  endloop
endfacet
facet normal 0.22546992482693515 -0.3092004494391269 0.9238822409079948
  outer loop
    vertex 1646.665293398015 343.05590073931484 465.51713785379843
    vertex 1619.632351324695 321.40318111790236 464.8677962008967
    vertex 1647.5889574044859 341.78922481318517 464.86779620267214
  endloop
endfacet
facet normal 0.22546992482693515 -0.3092004494391269 0.9238822409079948
  outer loop
    vertex 1619.632351324695 321.40318111790236 464.8677962008967
    vertex 1646.665293398015 343.05590073931484 465.51713785379843
    vertex 1618.7086926003467 322.6698608957724 465.5171378520228
  endloop
endfacet
facet normal -0.3586802912313896 0.4918798251890608 0.7933490317975719
  outer loop
    vertex 1650.4950373305596 337.803942874954 465.5171838571721
    vertex 1623.3315598448673 316.33016490778607 466.5501644298679
    vertex 1651.2881989616988 336.71623269378085 466.5501644316433
  endloop
endfacet
facet normal -0.3586802912313896 0.4918798251890608 0.7933490317975719
  outer loop
    vertex 1623.3315598448673 316.33016490778607 466.5501644298679
    vertex 1650.4950373305596 337.803942874954 465.5171838571721
    vertex 1622.5384071623357 317.4178816143114 465.5171838553968
  endloop
endfacet
facet normal -0.07690077223386069 0.1054586476154533 -0.9914457851405469
  outer loop
    vertex 1621.614670256719 318.6846029970346 477.42485575543856
    vertex 1648.5801147855557 340.4299911677305 477.6463259797804
    vertex 1649.5713263767466 339.07068318181285 477.4248557572142
  endloop
endfacet
facet normal -0.07690077223386069 0.1054586476154533 -0.9914457851405469
  outer loop
    vertex 1648.5801147855557 340.4299911677305 477.6463259797804
    vertex 1621.614670256719 318.6846029970346 477.42485575543856
    vertex 1620.6234656527304 320.04391607804166 477.64632597800494
  endloop
endfacet
facet normal -0.544343447183913 0.7464908616809325 0.3826768936515421
  outer loop
    vertex 1652.2793974784408 335.3569426373673 469.46404662266576
    vertex 1623.9401634596206 315.49553256928715 467.89636581833946
    vertex 1624.3227426760152 314.9708634133885 469.4640466208903
  endloop
endfacet
facet normal -0.544343447183913 0.7464908616809325 0.3826768936515421
  outer loop
    vertex 1623.9401634596206 315.49553256928715 467.89636581833946
    vertex 1652.2793974784408 335.3569426373673 469.46404662266576
    vertex 1651.8968109787197 335.8816064822414 467.89636582011485
  endloop
endfacet
facet normal -0.3586736746497526 0.4918707516114666 -0.7933576487451385
  outer loop
    vertex 1623.3314960101288 316.3301988780064 475.74255258506264
    vertex 1650.4949903832176 337.8040072556833 476.775514106088
    vertex 1651.2881606293545 336.7162852604261 475.74255258683826
  endloop
endfacet
facet normal -0.3586736746497526 0.4918707516114666 -0.7933576487451385
  outer loop
    vertex 1650.4949903832176 337.8040072556833 476.775514106088
    vertex 1623.3314960101288 316.3301988780064 475.74255258506264
    vertex 1622.538328981067 317.4179232191646 476.77551410431244
  endloop
endfacet
facet normal -0.22546992482692343 0.30920044943911157 -0.9238822409080027
  outer loop
    vertex 1622.538328981067 317.4179232191646 476.77551410431244
    vertex 1649.5713263767466 339.07068318181285 477.4248557572142
    vertex 1650.4949903832176 337.8040072556833 476.775514106088
  endloop
endfacet
facet normal -0.22546992482692343 0.30920044943911157 -0.9238822409080027
  outer loop
    vertex 1649.5713263767466 339.07068318181285 477.4248557572142
    vertex 1622.538328981067 317.4179232191646 476.77551410431244
    vertex 1621.614670256719 318.6846029970346 477.42485575543856
  endloop
endfacet
facet normal 0.8079935176141441 0.5891913742524765 5.131384949799685e-11
  outer loop
    vertex 1654.089042250153 332.8752680759428 480.49639215379295
    vertex 1649.5713263767466 339.07068318181285 477.4248557572142
    vertex 1643.0711635519071 347.984746854949 480.4962598056251
  endloop
endfacet
facet normal 0.8079935176141441 0.5891913742524765 5.131384949799685e-11
  outer loop
    vertex 1649.5713263767466 339.07068318181285 477.4248557572142
    vertex 1654.089042250153 332.8752680759428 480.49639215379295
    vertex 1650.4949903832176 337.8040072556833 476.775514106088
  endloop
endfacet
facet normal 0.8079935176141441 0.5891913742524765 5.131384949799685e-11
  outer loop
    vertex 1650.4949903832176 337.8040072556833 476.775514106088
    vertex 1654.089042250153 332.8752680759428 480.49639215379295
    vertex 1651.2881606293545 336.7162852604261 475.74255258683826
  endloop
endfacet
facet normal 0.8079935176141441 0.5891913742524765 5.131384949799685e-11
  outer loop
    vertex 1651.2881606293545 336.7162852604261 475.74255258683826
    vertex 1654.089042250153 332.8752680759428 480.49639215379295
    vertex 1651.8967838736592 335.8816436524728 474.39636581995217
  endloop
endfacet
facet normal 0.8079935176141441 0.5891913742524765 5.131384949799685e-11
  outer loop
    vertex 1651.8967838736592 335.8816436524728 474.39636581995217
    vertex 1654.089042250153 332.8752680759428 480.49639215379295
    vertex 1652.279383447829 335.35696187809486 472.82869420891427
  endloop
endfacet
facet normal 0.8079935176141441 0.5891913742524765 5.131384949799685e-11
  outer loop
    vertex 1652.279383447829 335.35696187809486 472.82869420891427
    vertex 1654.089042250153 332.8752680759428 480.49639215379295
    vertex 1654.0891202293271 332.8751611400466 461.7963921542611
  endloop
endfacet
facet normal 0.8079935176141441 0.5891913742524765 5.131384949799685e-11
  outer loop
    vertex 1643.0711635519071 347.984746854949 480.4962598056251
    vertex 1649.5713263767466 339.07068318181285 477.4248557572142
    vertex 1648.5801147855557 340.4299911677305 477.6463259797804
  endloop
endfacet
facet normal 0.8079935176141441 0.5891913742524765 5.131384949799685e-11
  outer loop
    vertex 1652.279383447829 335.35696187809486 472.82869420891427
    vertex 1654.0891202293271 332.8751611400466 461.7963921542611
    vertex 1652.4098858231607 335.1779961331382 471.1463719833169
  endloop
endfacet
facet normal 0.8079935176141441 0.5891913742524765 5.131384949799685e-11
  outer loop
    vertex 1652.4098858231607 335.1779961331382 471.1463719833169
    vertex 1654.0891202293271 332.8751611400466 461.7963921542611
    vertex 1652.2793974784408 335.3569426373673 469.46404662266576
  endloop
endfacet
facet normal 0.8079935176141441 0.5891913742524765 5.131384949799685e-11
  outer loop
    vertex 1652.2793974784408 335.3569426373673 469.46404662266576
    vertex 1654.0891202293271 332.8751611400466 461.7963921542611
    vertex 1651.8968109787197 335.8816064822414 467.89636582011485
  endloop
endfacet
facet normal 0.8079935176141441 0.5891913742524765 5.131384949799685e-11
  outer loop
    vertex 1651.8968109787197 335.8816064822414 467.89636582011485
    vertex 1654.0891202293271 332.8751611400466 461.7963921542611
    vertex 1651.2881989616988 336.71623269378085 466.5501644316433
  endloop
endfacet
facet normal 0.8079935176141441 0.5891913742524765 5.131384949799685e-11
  outer loop
    vertex 1651.2881989616988 336.71623269378085 466.5501644316433
    vertex 1654.0891202293271 332.8751611400466 461.7963921542611
    vertex 1650.4950373305596 337.803942874954 465.5171838571721
  endloop
endfacet
facet normal 0.8079935176141441 0.5891913742524765 5.131384949799685e-11
  outer loop
    vertex 1650.4950373305596 337.803942874954 465.5171838571721
    vertex 1654.0891202293271 332.8751611400466 461.7963921542611
    vertex 1649.5713787397028 339.07061137444003 464.86782001577063
  endloop
endfacet
facet normal 0.8079935176141441 0.5891913742524765 5.131384949799685e-11
  outer loop
    vertex 1649.5713787397028 339.07061137444003 464.86782001577063
    vertex 1654.0891202293271 332.8751611400466 461.7963921542611
    vertex 1648.5801689956768 340.4299168272677 464.6463259801059
  endloop
endfacet
facet normal 0.8079935176141441 0.5891913742524765 5.131384949799685e-11
  outer loop
    vertex 1643.0711635519071 347.984746854949 480.4962598056251
    vertex 1644.8808863027916 345.5029653576309 472.82860533722044
    vertex 1643.0712415310816 347.98463991905254 461.79625980609325
  endloop
endfacet
facet normal 0.8079935176141441 0.5891913742524765 5.131384949799685e-11
  outer loop
    vertex 1644.8808863027916 345.5029653576309 472.82860533722044
    vertex 1643.0711635519071 347.984746854949 480.4962598056251
    vertex 1645.2634728025132 344.9783015127568 474.3962861397713
  endloop
endfacet
facet normal 0.8079935176141441 0.5891913742524765 5.131384949799685e-11
  outer loop
    vertex 1645.2634728025132 344.9783015127568 474.3962861397713
    vertex 1643.0711635519071 347.984746854949 480.4962598056251
    vertex 1645.872084819534 344.1436753012173 475.7424875282429
  endloop
endfacet
facet normal 0.8079935176141441 0.5891913742524765 5.131384949799685e-11
  outer loop
    vertex 1645.872084819534 344.1436753012173 475.7424875282429
    vertex 1643.0711635519071 347.984746854949 480.4962598056251
    vertex 1646.665246450673 343.05596512004405 476.7754681027141
  endloop
endfacet
facet normal 0.8079935176141441 0.5891913742524765 5.131384949799685e-11
  outer loop
    vertex 1646.665246450673 343.05596512004405 476.7754681027141
    vertex 1643.0711635519071 347.984746854949 480.4962598056251
    vertex 1647.5889050415299 341.7892966205581 477.4248319441155
  endloop
endfacet
facet normal 0.8079935176141441 0.5891913742524765 5.131384949799685e-11
  outer loop
    vertex 1647.5889050415299 341.7892966205581 477.4248319441155
    vertex 1643.0711635519071 347.984746854949 480.4962598056251
    vertex 1648.5801147855557 340.4299911677305 477.6463259797804
  endloop
endfacet
facet normal 0.8079935176141441 0.5891913742524765 5.131384949799685e-11
  outer loop
    vertex 1643.0712415310816 347.98463991905254 461.79625980609325
    vertex 1644.8808863027916 345.5029653576309 472.82860533722044
    vertex 1644.7503979580717 345.6819118618599 471.14627997656925
  endloop
endfacet
facet normal 0.8079935176141441 0.5891913742524765 5.131384949799685e-11
  outer loop
    vertex 1643.0712415310816 347.98463991905254 461.79625980609325
    vertex 1644.7503979580717 345.6819118618599 471.14627997656925
    vertex 1644.8809003334036 345.5029461169034 469.463957750972
  endloop
endfacet
facet normal 0.8079935176141441 0.5891913742524765 5.131384949799685e-11
  outer loop
    vertex 1643.0712415310816 347.98463991905254 461.79625980609325
    vertex 1644.8809003334036 345.5029461169034 469.463957750972
    vertex 1645.2634999075738 344.97826434252534 467.89628613993403
  endloop
endfacet
facet normal 0.8079935176141441 0.5891913742524765 5.131384949799685e-11
  outer loop
    vertex 1643.0712415310816 347.98463991905254 461.79625980609325
    vertex 1645.2634999075738 344.97826434252534 467.89628613993403
    vertex 1645.872123151878 344.143622734572 466.55009937304806
  endloop
endfacet
facet normal 0.8079935176141441 0.5891913742524765 5.131384949799685e-11
  outer loop
    vertex 1643.0712415310816 347.98463991905254 461.79625980609325
    vertex 1645.872123151878 344.143622734572 466.55009937304806
    vertex 1646.665293398015 343.05590073931484 465.51713785379843
  endloop
endfacet
facet normal 0.8079935176141441 0.5891913742524765 5.131384949799685e-11
  outer loop
    vertex 1643.0712415310816 347.98463991905254 461.79625980609325
    vertex 1646.665293398015 343.05590073931484 465.51713785379843
    vertex 1647.5889574044859 341.78922481318517 464.86779620267214
  endloop
endfacet
facet normal 0.8079935176141441 0.5891913742524765 5.131384949799685e-11
  outer loop
    vertex 1643.0712415310816 347.98463991905254 461.79625980609325
    vertex 1647.5889574044859 341.78922481318517 464.86779620267214
    vertex 1648.5801689956768 340.4299168272677 464.6463259801059
  endloop
endfacet
facet normal 0.8079935176141441 0.5891913742524765 5.131384949799685e-11
  outer loop
    vertex 1643.0712415310816 347.98463991905254 461.79625980609325
    vertex 1648.5801689956768 340.4299168272677 464.6463259801059
    vertex 1654.0891202293271 332.8751611400466 461.7963921542611
  endloop
endfacet
facet normal 0.9879603318667884 -0.1547074096854421 6.788688460018577e-06
  outer loop
    vertex 1628.5093741591343 309.22935247848517 480.49637905358236
    vertex 1629.5159333085735 315.65641091694977 461.79638872740014
    vertex 1629.5158134804985 315.65646626684116 480.49637922769506
  endloop
endfacet
facet normal 0.9879603318667884 -0.1547074096854421 6.788688460018577e-06
  outer loop
    vertex 1629.5159333085735 315.65641091694977 461.79638872740014
    vertex 1628.5093741591343 309.22935247848517 480.49637905358236
    vertex 1628.5094939872092 309.22929712859377 461.7963885532874
  endloop
endfacet
facet normal 4.0914929007879556e-06 -5.196557906767668e-06 -0.9999999999781278
  outer loop
    vertex 1612.7375858475136 330.8585160788329 461.79622944838763
    vertex 1629.5159333085735 315.65641091694977 461.79638872740014
    vertex 1628.5094939872092 309.22929712859377 461.7963885532874
  endloop
endfacet
facet normal 4.0914929007879556e-06 -5.196557906767668e-06 -0.9999999999781278
  outer loop
    vertex 1629.5159333085735 315.65641091694977 461.79638872740014
    vertex 1612.7375858475136 330.8585160788329 461.79622944838763
    vertex 1619.1647312395971 329.8518248353342 461.7962641872602
  endloop
endfacet
facet normal 4.0914929007879556e-06 -5.196557906767668e-06 -0.9999999999781278
  outer loop
    vertex 1630.306271609865 315.53263430503654 461.79639244184256
    vertex 1643.0712415310816 347.98463991905254 461.79625980609325
    vertex 1654.0891202293271 332.8751611400466 461.7963921542611
  endloop
endfacet
facet normal 4.0914929007879556e-06 -5.196557906767668e-06 -0.9999999999781278
  outer loop
    vertex 1643.0712415310816 347.98463991905254 461.79625980609325
    vertex 1630.306271609865 315.53263430503654 461.79639244184256
    vertex 1629.5159333085735 315.65641091694977 461.79638872740014
  endloop
endfacet
facet normal 4.0914929007879556e-06 -5.196557906767668e-06 -0.9999999999781278
  outer loop
    vertex 1643.0712415310816 347.98463991905254 461.79625980609325
    vertex 1629.5159333085735 315.65641091694977 461.79638872740014
    vertex 1619.1647312395971 329.8518248353342 461.7962641872602
  endloop
endfacet
facet normal 4.0914929007879556e-06 -5.196557906767668e-06 -0.9999999999781278
  outer loop
    vertex 1643.0712415310816 347.98463991905254 461.79625980609325
    vertex 1619.1647312395971 329.8518248353342 461.7962641872602
    vertex 1619.2885138207625 330.64220125136313 461.79625999412616
  endloop
endfacet
facet normal -4.254365025137485e-06 4.984690875160939e-06 0.9999999999785267
  outer loop
    vertex 1643.0711635519071 347.984746854949 480.4962598056251
    vertex 1630.30615178179 315.5326896549279 480.4963829421375
    vertex 1654.089042250153 332.8752680759428 480.49639215379295
  endloop
endfacet
facet normal -4.254365025137485e-06 4.984690875160939e-06 0.9999999999785267
  outer loop
    vertex 1630.30615178179 315.5326896549279 480.4963829421375
    vertex 1643.0711635519071 347.984746854949 480.4962598056251
    vertex 1629.5158134804985 315.65646626684116 480.49637922769506
  endloop
endfacet
facet normal -4.254365025137485e-06 4.984690875160939e-06 0.9999999999785267
  outer loop
    vertex 1629.5158134804985 315.65646626684116 480.49637922769506
    vertex 1643.0711635519071 347.984746854949 480.4962598056251
    vertex 1619.164611411522 329.8518801852255 480.4962546875551
  endloop
endfacet
facet normal -4.254365025137485e-06 4.984690875160939e-06 0.9999999999785267
  outer loop
    vertex 1619.164611411522 329.8518801852255 480.4962546875551
    vertex 1643.0711635519071 347.984746854949 480.4962598056251
    vertex 1619.2883939926876 330.6422566012545 480.4962504944211
  endloop
endfacet
facet normal -4.254365025137485e-06 4.984690875160939e-06 0.9999999999785267
  outer loop
    vertex 1629.5158134804985 315.65646626684116 480.49637922769506
    vertex 1612.7374660194384 330.85857142872425 480.49621994868255
    vertex 1628.5093741591343 309.22935247848517 480.49637905358236
  endloop
endfacet
facet normal -4.254365025137485e-06 4.984690875160939e-06 0.9999999999785267
  outer loop
    vertex 1612.7374660194384 330.85857142872425 480.49621994868255
    vertex 1629.5158134804985 315.65646626684116 480.49637922769506
    vertex 1619.164611411522 329.8518801852255 480.4962546875551
  endloop
endfacet
facet normal 0.5891916079002022 -0.8079933472103097 6.62225335212877e-06
  outer loop
    vertex 1630.306271609865 315.53263430503654 461.79639244184256
    vertex 1654.089042250153 332.8752680759428 480.49639215379295
    vertex 1630.30615178179 315.5326896549279 480.4963829421375
  endloop
endfacet
facet normal 0.5891916079002022 -0.8079933472103097 6.62225335212877e-06
  outer loop
    vertex 1654.089042250153 332.8752680759428 480.49639215379295
    vertex 1630.306271609865 315.53263430503654 461.79639244184256
    vertex 1654.0891202293271 332.8751611400466 461.7963921542611
  endloop
endfacet
facet normal -0.9879573938458088 0.15472617069943556 -6.788725883612741e-06
  outer loop
    vertex 1619.2883939926876 330.6422566012545 480.4962504944211
    vertex 1619.1647312395971 329.8518248353342 461.7962641872602
    vertex 1619.164611411522 329.8518801852255 480.4962546875551
  endloop
endfacet
facet normal -0.9879573938458088 0.15472617069943556 -6.788725883612741e-06
  outer loop
    vertex 1619.1647312395971 329.8518248353342 461.7962641872602
    vertex 1619.2883939926876 330.6422566012545 480.4962504944211
    vertex 1619.2885138207625 330.64220125136313 461.79625999412616
  endloop
endfacet
facet normal 0.154744464664071 0.9879545286358553 -1.932645333606762e-06
  outer loop
    vertex 1619.1647312395971 329.8518248353342 461.7962641872602
    vertex 1612.7374660194384 330.85857142872425 480.49621994868255
    vertex 1619.164611411522 329.8518801852255 480.4962546875551
  endloop
endfacet
facet normal 0.154744464664071 0.9879545286358553 -1.932645333606762e-06
  outer loop
    vertex 1612.7374660194384 330.85857142872425 480.49621994868255
    vertex 1619.1647312395971 329.8518248353342 461.7962641872602
    vertex 1612.7375858475136 330.8585160788329 461.79622944838763
  endloop
endfacet
endsolid 01 - Display Model
