solid printlist4
facet normal -1.0 0.0 0.0
  outer loop
    vertex 20.050000000000132 6.999999999999998 20.05
    vertex 20.050000000000132 0.0 5.349999999999999
    vertex 20.050000000000132 0.0 20.05
  endloop
endfacet
facet normal -1.0 0.0 0.0
  outer loop
    vertex 20.050000000000132 0.0 5.349999999999999
    vertex 20.050000000000132 6.999999999999998 20.05
    vertex 20.050000000000132 6.999999999999998 5.349999999999999
  endloop
endfacet
facet normal 0.0 0.0 1.0
  outer loop
    vertex 25.4 3.9000000000000044 25.4
    vertex 0.0 9.000000000000005 25.4
    vertex 0.0 3.9000000000000044 25.4
  endloop
endfacet
facet normal 0.0 0.0 1.0
  outer loop
    vertex 0.0 9.000000000000005 25.4
    vertex 25.4 3.9000000000000044 25.4
    vertex 25.4 9.000000000000005 25.4
  endloop
endfacet
facet normal 1.0 0.0 0.0
  outer loop
    vertex 25.4 9.000000000000005 0.0
    vertex 25.4 3.9000000000000044 25.4
    vertex 25.4 3.9000000000000044 0.0
  endloop
endfacet
facet normal 1.0 0.0 0.0
  outer loop
    vertex 25.4 3.9000000000000044 25.4
    vertex 25.4 9.000000000000005 0.0
    vertex 25.4 9.000000000000005 25.4
  endloop
endfacet
facet normal 0.0 -1.0 0.0
  outer loop
    vertex 22.05000000000004 0.0 3.3499999999999996
    vertex 20.050000000000132 0.0 5.349999999999999
    vertex 3.34999999999996 0.0 3.3499999999999996
  endloop
endfacet
facet normal 0.0 -1.0 0.0
  outer loop
    vertex 20.050000000000132 0.0 5.349999999999999
    vertex 22.05000000000004 0.0 3.3499999999999996
    vertex 22.05000000000004 0.0 22.05
  endloop
endfacet
facet normal 0.0 -1.0 0.0
  outer loop
    vertex 20.050000000000132 0.0 5.349999999999999
    vertex 22.05000000000004 0.0 22.05
    vertex 20.050000000000132 0.0 20.05
  endloop
endfacet
facet normal 0.0 -1.0 0.0
  outer loop
    vertex 20.050000000000132 0.0 20.05
    vertex 22.05000000000004 0.0 22.05
    vertex 5.349999999999866 0.0 20.05
  endloop
endfacet
facet normal 0.0 -1.0 0.0
  outer loop
    vertex 3.34999999999996 0.0 3.3499999999999996
    vertex 5.349999999999866 0.0 5.35
    vertex 3.34999999999996 0.0 22.05
  endloop
endfacet
facet normal 0.0 -1.0 0.0
  outer loop
    vertex 5.349999999999866 0.0 5.35
    vertex 3.34999999999996 0.0 3.3499999999999996
    vertex 20.050000000000132 0.0 5.349999999999999
  endloop
endfacet
facet normal 0.0 -1.0 0.0
  outer loop
    vertex 3.34999999999996 0.0 22.05
    vertex 5.349999999999866 0.0 5.35
    vertex 5.349999999999866 0.0 20.05
  endloop
endfacet
facet normal 0.0 -1.0 0.0
  outer loop
    vertex 3.34999999999996 0.0 22.05
    vertex 5.349999999999866 0.0 20.05
    vertex 22.05000000000004 0.0 22.05
  endloop
endfacet
facet normal 0.0 -0.024992191160203004 0.9996876464081228
  outer loop
    vertex 3.34999999999996 0.0 22.05
    vertex 22.150000000000016 4.0000000000000036 22.15
    vertex 3.2499999999999827 4.0000000000000036 22.15
  endloop
endfacet
facet normal 0.0 -0.024992191160203004 0.9996876464081228
  outer loop
    vertex 22.150000000000016 4.0000000000000036 22.15
    vertex 3.34999999999996 0.0 22.05
    vertex 22.05000000000004 0.0 22.05
  endloop
endfacet
facet normal -1.0 0.0 0.0
  outer loop
    vertex 0.0 9.000000000000005 25.4
    vertex 0.0 3.9000000000000044 0.0
    vertex 0.0 3.9000000000000044 25.4
  endloop
endfacet
facet normal -1.0 0.0 0.0
  outer loop
    vertex 0.0 3.9000000000000044 0.0
    vertex 0.0 9.000000000000005 25.4
    vertex 0.0 9.000000000000005 0.0
  endloop
endfacet
facet normal 0.0 0.0 -1.0
  outer loop
    vertex 25.4 9.000000000000005 0.0
    vertex 0.0 3.9000000000000044 0.0
    vertex 0.0 9.000000000000005 0.0
  endloop
endfacet
facet normal 0.0 0.0 -1.0
  outer loop
    vertex 0.0 3.9000000000000044 0.0
    vertex 25.4 9.000000000000005 0.0
    vertex 25.4 3.9000000000000044 0.0
  endloop
endfacet
facet normal 0.0 -0.9995269630766537 0.030754675786973905
  outer loop
    vertex 22.150000000000016 4.0000000000000036 3.2499999999999996
    vertex 0.0 3.9000000000000044 0.0
    vertex 25.4 3.9000000000000044 0.0
  endloop
endfacet
facet normal 0.0 -0.9995269630766537 0.030754675786973905
  outer loop
    vertex 0.0 3.9000000000000044 0.0
    vertex 22.150000000000016 4.0000000000000036 3.2499999999999996
    vertex 3.2499999999999827 4.0000000000000036 3.2499999999999996
  endloop
endfacet
facet normal 0.03075467578697407 -0.9995269630766537 0.0
  outer loop
    vertex 3.2499999999999827 4.0000000000000036 3.2499999999999996
    vertex 0.0 3.9000000000000044 25.4
    vertex 0.0 3.9000000000000044 0.0
  endloop
endfacet
facet normal 0.03075467578697407 -0.9995269630766537 0.0
  outer loop
    vertex 0.0 3.9000000000000044 25.4
    vertex 3.2499999999999827 4.0000000000000036 3.2499999999999996
    vertex 3.2499999999999827 4.0000000000000036 22.15
  endloop
endfacet
facet normal 0.0 -0.024992191160203004 -0.9996876464081228
  outer loop
    vertex 22.150000000000016 4.0000000000000036 3.2499999999999996
    vertex 3.34999999999996 0.0 3.3499999999999996
    vertex 3.2499999999999827 4.0000000000000036 3.2499999999999996
  endloop
endfacet
facet normal 0.0 -0.024992191160203004 -0.9996876464081228
  outer loop
    vertex 3.34999999999996 0.0 3.3499999999999996
    vertex 22.150000000000016 4.0000000000000036 3.2499999999999996
    vertex 22.05000000000004 0.0 3.3499999999999996
  endloop
endfacet
facet normal 0.0 -0.9995269630766537 -0.030754675786973905
  outer loop
    vertex 25.4 3.9000000000000044 25.4
    vertex 3.2499999999999827 4.0000000000000036 22.15
    vertex 22.150000000000016 4.0000000000000036 22.15
  endloop
endfacet
facet normal 0.0 -0.9995269630766537 -0.030754675786973905
  outer loop
    vertex 3.2499999999999827 4.0000000000000036 22.15
    vertex 25.4 3.9000000000000044 25.4
    vertex 0.0 3.9000000000000044 25.4
  endloop
endfacet
facet normal 0.999687646408123 -0.024992191160197363 0.0
  outer loop
    vertex 22.150000000000016 4.0000000000000036 3.2499999999999996
    vertex 22.05000000000004 0.0 22.05
    vertex 22.05000000000004 0.0 3.3499999999999996
  endloop
endfacet
facet normal 0.999687646408123 -0.024992191160197363 0.0
  outer loop
    vertex 22.05000000000004 0.0 22.05
    vertex 22.150000000000016 4.0000000000000036 3.2499999999999996
    vertex 22.150000000000016 4.0000000000000036 22.15
  endloop
endfacet
facet normal 0.0 1.0 0.0
  outer loop
    vertex 0.0 9.000000000000005 25.4
    vertex 25.4 9.000000000000005 0.0
    vertex 0.0 9.000000000000005 0.0
  endloop
endfacet
facet normal 0.0 1.0 0.0
  outer loop
    vertex 25.4 9.000000000000005 0.0
    vertex 0.0 9.000000000000005 25.4
    vertex 25.4 9.000000000000005 25.4
  endloop
endfacet
facet normal 1.0 0.0 0.0
  outer loop
    vertex 5.349999999999866 6.999999999999998 5.35
    vertex 5.349999999999866 0.0 20.05
    vertex 5.349999999999866 0.0 5.35
  endloop
endfacet
facet normal 1.0 0.0 0.0
  outer loop
    vertex 5.349999999999866 0.0 20.05
    vertex 5.349999999999866 6.999999999999998 5.35
    vertex 5.349999999999866 6.999999999999998 20.05
  endloop
endfacet
facet normal 4.79586136487729e-17 0.0 1.0
  outer loop
    vertex 20.050000000000132 0.0 5.349999999999999
    vertex 5.349999999999866 6.999999999999998 5.35
    vertex 5.349999999999866 0.0 5.35
  endloop
endfacet
facet normal 4.79586136487729e-17 0.0 1.0
  outer loop
    vertex 5.349999999999866 6.999999999999998 5.35
    vertex 20.050000000000132 0.0 5.349999999999999
    vertex 20.050000000000132 6.999999999999998 5.349999999999999
  endloop
endfacet
facet normal -0.999687646408123 -0.024992191160197363 0.0
  outer loop
    vertex 3.2499999999999827 4.0000000000000036 22.15
    vertex 3.34999999999996 0.0 3.3499999999999996
    vertex 3.34999999999996 0.0 22.05
  endloop
endfacet
facet normal -0.999687646408123 -0.024992191160197363 0.0
  outer loop
    vertex 3.34999999999996 0.0 3.3499999999999996
    vertex 3.2499999999999827 4.0000000000000036 22.15
    vertex 3.2499999999999827 4.0000000000000036 3.2499999999999996
  endloop
endfacet
facet normal -0.030754675786974064 -0.9995269630766537 0.0
  outer loop
    vertex 25.4 3.9000000000000044 25.4
    vertex 22.150000000000016 4.0000000000000036 3.2499999999999996
    vertex 25.4 3.9000000000000044 0.0
  endloop
endfacet
facet normal -0.030754675786974064 -0.9995269630766537 0.0
  outer loop
    vertex 22.150000000000016 4.0000000000000036 3.2499999999999996
    vertex 25.4 3.9000000000000044 25.4
    vertex 22.150000000000016 4.0000000000000036 22.15
  endloop
endfacet
facet normal 0.0 -1.0 0.0
  outer loop
    vertex 20.050000000000132 6.999999999999998 20.05
    vertex 5.349999999999866 6.999999999999998 5.35
    vertex 20.050000000000132 6.999999999999998 5.349999999999999
  endloop
endfacet
facet normal 0.0 -1.0 0.0
  outer loop
    vertex 5.349999999999866 6.999999999999998 5.35
    vertex 20.050000000000132 6.999999999999998 20.05
    vertex 5.349999999999866 6.999999999999998 20.05
  endloop
endfacet
facet normal -0.0 -0.0 -1.0
  outer loop
    vertex 20.050000000000132 6.999999999999998 20.05
    vertex 5.349999999999866 0.0 20.05
    vertex 5.349999999999866 6.999999999999998 20.05
  endloop
endfacet
facet normal -0.0 -0.0 -1.0
  outer loop
    vertex 5.349999999999866 0.0 20.05
    vertex 20.050000000000132 6.999999999999998 20.05
    vertex 20.050000000000132 0.0 20.05
  endloop
endfacet
endsolid printlist4
