solid print list 12
facet normal 3.5895823350766956e-14 -1.0 -3.8974533526929564e-14
  outer loop
    vertex 29.028362323649294 7.609799160768148 -4.1392765432238035
    vertex 25.02836232364874 7.609799160766665 29.610723456776014
    vertex 25.02836232364933 7.609799160768033 -4.139276543223908
  endloop
endfacet
facet normal 3.5895823350766956e-14 -1.0 -3.8974533526929564e-14
  outer loop
    vertex 25.02836232364874 7.609799160766665 29.610723456776014
    vertex 29.028362323649294 7.609799160768148 -4.1392765432238035
    vertex 29.028362323648707 7.609799160766831 29.61072345677603
  endloop
endfacet
facet normal -1.8279438684085128e-14 -4.832245714680994e-14 1.0
  outer loop
    vertex 25.02836232364874 7.609799160766665 29.610723456776014
    vertex 29.02836232364712 58.60979916076747 29.610723456778516
    vertex 25.02836232364709 58.609799160767295 29.610723456778405
  endloop
endfacet
facet normal -1.8279438684085128e-14 -4.832245714680994e-14 1.0
  outer loop
    vertex 29.02836232364712 58.60979916076747 29.610723456778516
    vertex 25.02836232364874 7.609799160766665 29.610723456776014
    vertex 29.028362323648707 7.609799160766831 29.61072345677603
  endloop
endfacet
facet normal 1.8277463976209423e-14 -5.745404152435185e-15 -1.0
  outer loop
    vertex 29.028362323647784 58.60979916076769 -4.1392765432215795
    vertex 25.02836232364933 7.609799160768033 -4.139276543223908
    vertex 25.028362323647784 58.60979916076756 -4.139276543221678
  endloop
endfacet
facet normal 1.8277463976209423e-14 -5.745404152435185e-15 -1.0
  outer loop
    vertex 25.02836232364933 7.609799160768033 -4.139276543223908
    vertex 29.028362323647784 58.60979916076769 -4.1392765432215795
    vertex 29.028362323649294 7.609799160768148 -4.1392765432238035
  endloop
endfacet
facet normal -2.50637857937992e-14 -2.1203710759282216e-28 1.0
  outer loop
    vertex 29.028362323647535 29.609799160767693 26.735723456778597
    vertex 31.02836232364728 58.60979916076764 26.735723456778643
    vertex 29.028362323647283 58.60979916076762 26.735723456778597
  endloop
endfacet
facet normal -2.50637857937992e-14 -2.1203710759282216e-28 1.0
  outer loop
    vertex 31.02836232364728 58.60979916076764 26.735723456778643
    vertex 29.028362323647535 29.609799160767693 26.735723456778597
    vertex 31.02836232364753 29.609799160767704 26.735723456778643
  endloop
endfacet
facet normal 3.985373272603808e-15 -1.0 4.891529024368236e-16
  outer loop
    vertex 31.028362323647553 29.609799160767697 23.610723456776977
    vertex 29.028362323647535 29.609799160767693 26.735723456778597
    vertex 29.028362323647844 29.609799160767693 21.610723456776974
  endloop
endfacet
facet normal 3.985373272603808e-15 -1.0 4.891529024368236e-16
  outer loop
    vertex 29.028362323647535 29.609799160767693 26.735723456778597
    vertex 31.028362323647553 29.609799160767697 23.610723456776977
    vertex 31.02836232364753 29.609799160767704 26.735723456778643
  endloop
endfacet
facet normal 2.50637857937992e-14 0.0 -1.0
  outer loop
    vertex 29.028362323648064 58.60979916076762 -1.2642765432229353
    vertex 31.028362323648032 29.609799160767697 -1.264276543222884
    vertex 29.028362323648036 29.609799160767686 -1.2642765432229341
  endloop
endfacet
facet normal 2.50637857937992e-14 0.0 -1.0
  outer loop
    vertex 31.028362323648032 29.609799160767697 -1.264276543222884
    vertex 29.028362323648064 58.60979916076762 -1.2642765432229353
    vertex 31.02836232364806 58.60979916076764 -1.2642765432228853
  endloop
endfacet
facet normal -1.7732542119863543e-14 1.0 -1.2613019378245078e-16
  outer loop
    vertex 25.028362323647595 58.60979916076758 5.360723456778296
    vertex 29.028362323647784 58.60979916076769 -4.1392765432215795
    vertex 25.028362323647784 58.60979916076756 -4.139276543221678
  endloop
endfacet
facet normal -1.7732542119863543e-14 1.0 -1.2613019378245078e-16
  outer loop
    vertex 29.028362323647784 58.60979916076769 -4.1392765432215795
    vertex 25.028362323647595 58.60979916076758 5.360723456778296
    vertex 29.028362323648064 58.60979916076762 -1.2642765432229353
  endloop
endfacet
facet normal -1.7732542119863543e-14 1.0 -1.2613019378245078e-16
  outer loop
    vertex 29.028362323648064 58.60979916076762 -1.2642765432229353
    vertex 25.028362323647595 58.60979916076758 5.360723456778296
    vertex 31.02836232364806 58.60979916076764 -1.2642765432228853
  endloop
endfacet
facet normal -1.7732542119863543e-14 1.0 -1.2613019378245078e-16
  outer loop
    vertex 31.02836232364806 58.60979916076764 -1.2642765432228853
    vertex 25.028362323647595 58.60979916076758 5.360723456778296
    vertex 31.028362323647933 58.60979916076769 3.3607234567784783
  endloop
endfacet
facet normal -3.1879013725449293e-14 1.0 2.6469625361552716e-14
  outer loop
    vertex 25.02836232364709 58.609799160767295 29.610723456778405
    vertex 31.028362323647457 58.6097991607677 20.86072345677854
    vertex 25.02836232364732 58.609799160767665 18.860723456778352
  endloop
endfacet
facet normal -3.1879013725449293e-14 1.0 2.6469625361552716e-14
  outer loop
    vertex 31.028362323647457 58.6097991607677 20.86072345677854
    vertex 25.02836232364709 58.609799160767295 29.610723456778405
    vertex 29.028362323647283 58.60979916076762 26.735723456778597
  endloop
endfacet
facet normal -3.1879013725449293e-14 1.0 2.6469625361552716e-14
  outer loop
    vertex 29.028362323647283 58.60979916076762 26.735723456778597
    vertex 25.02836232364709 58.609799160767295 29.610723456778405
    vertex 29.02836232364712 58.60979916076747 29.610723456778516
  endloop
endfacet
facet normal -3.1879013725449293e-14 1.0 2.6469625361552716e-14
  outer loop
    vertex 31.02836232364728 58.60979916076764 26.735723456778643
    vertex 31.028362323647457 58.6097991607677 20.86072345677854
    vertex 29.028362323647283 58.60979916076762 26.735723456778597
  endloop
endfacet
facet normal 0.31622776601685815 6.434799206214419e-16 -0.9486832980505071
  outer loop
    vertex 31.028362323647457 58.6097991607677 20.86072345677854
    vertex 25.028362323647382 53.10979916076789 18.86072345677837
    vertex 25.02836232364732 58.609799160767665 18.860723456778352
  endloop
endfacet
facet normal 0.31622776601685815 6.434799206214419e-16 -0.9486832980505071
  outer loop
    vertex 25.028362323647382 53.10979916076789 18.86072345677837
    vertex 31.028362323647457 58.6097991607677 20.86072345677854
    vertex 31.02836232364752 53.10979916076793 20.860723456778558
  endloop
endfacet
facet normal 0.3162277660167961 6.2476050474878345e-15 0.9486832980505278
  outer loop
    vertex 25.02836232364766 53.1097991607678 5.360723456778312
    vertex 31.028362323647933 58.60979916076769 3.3607234567784783
    vertex 25.028362323647595 58.60979916076758 5.360723456778296
  endloop
endfacet
facet normal 0.3162277660167961 6.2476050474878345e-15 0.9486832980505278
  outer loop
    vertex 31.028362323647933 58.60979916076769 3.3607234567784783
    vertex 25.02836232364766 53.1097991607678 5.360723456778312
    vertex 31.028362323647993 53.10979916076791 3.360723456778494
  endloop
endfacet
facet normal 0.7071067811865993 4.455571148982278e-15 -0.7071067811864957
  outer loop
    vertex 29.028362323647745 45.6097991607677 21.610723456776974
    vertex 31.028362323647553 29.609799160767697 23.610723456776977
    vertex 29.028362323647844 29.609799160767693 21.610723456776974
  endloop
endfacet
facet normal 0.7071067811865993 4.455571148982278e-15 -0.7071067811864957
  outer loop
    vertex 31.028362323647553 29.609799160767697 23.610723456776977
    vertex 29.028362323647745 45.6097991607677 21.610723456776974
    vertex 31.028362323647443 47.60979916076767 23.610723456776977
  endloop
endfacet
facet normal 0.7071067811865894 -0.7071067811865056 1.2716233359003519e-14
  outer loop
    vertex 29.02836232364828 45.60979916076792 3.8607234567769546
    vertex 31.028362323647443 47.60979916076767 23.610723456776977
    vertex 29.028362323647745 45.6097991607677 21.610723456776974
  endloop
endfacet
facet normal 0.7071067811865894 -0.7071067811865056 1.2716233359003519e-14
  outer loop
    vertex 31.028362323647443 47.60979916076767 23.610723456776977
    vertex 29.02836232364828 45.60979916076792 3.8607234567769546
    vertex 31.02836232364808 47.60979916076792 1.86072345677704
  endloop
endfacet
facet normal 3.98537327260419e-15 -1.0 -4.891529024371143e-16
  outer loop
    vertex 31.028362323648032 29.609799160767697 -1.264276543222884
    vertex 29.028362323648714 29.609799160767686 3.8607234567770385
    vertex 29.028362323648036 29.609799160767686 -1.2642765432229341
  endloop
endfacet
facet normal 3.98537327260419e-15 -1.0 -4.891529024371143e-16
  outer loop
    vertex 29.028362323648714 29.609799160767686 3.8607234567770385
    vertex 31.028362323648032 29.609799160767697 -1.264276543222884
    vertex 31.028362323648032 29.609799160767693 1.8607234567770414
  endloop
endfacet
facet normal 1.0 3.498999246966709e-15 2.4597890689671118e-14
  outer loop
    vertex 31.028362323648032 29.609799160767697 -1.264276543222884
    vertex 31.02836232364808 47.60979916076792 1.86072345677704
    vertex 31.028362323648032 29.609799160767693 1.8607234567770414
  endloop
endfacet
facet normal 1.0 3.498999246966709e-15 2.4597890689671118e-14
  outer loop
    vertex 31.02836232364808 47.60979916076792 1.86072345677704
    vertex 31.028362323648032 29.609799160767697 -1.264276543222884
    vertex 31.02836232364806 58.60979916076764 -1.2642765432228853
  endloop
endfacet
facet normal 1.0 3.498999246966709e-15 2.4597890689671118e-14
  outer loop
    vertex 31.02836232364808 47.60979916076792 1.86072345677704
    vertex 31.02836232364806 58.60979916076764 -1.2642765432228853
    vertex 31.028362323647993 53.10979916076791 3.360723456778494
  endloop
endfacet
facet normal 1.0 3.498999246966709e-15 2.4597890689671118e-14
  outer loop
    vertex 31.028362323647993 53.10979916076791 3.360723456778494
    vertex 31.02836232364806 58.60979916076764 -1.2642765432228853
    vertex 31.028362323647933 58.60979916076769 3.3607234567784783
  endloop
endfacet
facet normal 1.0 3.498999246966709e-15 2.4597890689671118e-14
  outer loop
    vertex 31.028362323647443 47.60979916076767 23.610723456776977
    vertex 31.02836232364753 29.609799160767704 26.735723456778643
    vertex 31.028362323647553 29.609799160767697 23.610723456776977
  endloop
endfacet
facet normal 1.0 3.498999246966709e-15 2.4597890689671118e-14
  outer loop
    vertex 31.02836232364753 29.609799160767704 26.735723456778643
    vertex 31.028362323647443 47.60979916076767 23.610723456776977
    vertex 31.02836232364728 58.60979916076764 26.735723456778643
  endloop
endfacet
facet normal 1.0 3.498999246966709e-15 2.4597890689671118e-14
  outer loop
    vertex 31.02836232364728 58.60979916076764 26.735723456778643
    vertex 31.028362323647443 47.60979916076767 23.610723456776977
    vertex 31.02836232364752 53.10979916076793 20.860723456778558
  endloop
endfacet
facet normal 1.0 3.498999246966709e-15 2.4597890689671118e-14
  outer loop
    vertex 31.02836232364752 53.10979916076793 20.860723456778558
    vertex 31.028362323647443 47.60979916076767 23.610723456776977
    vertex 31.02836232364808 47.60979916076792 1.86072345677704
  endloop
endfacet
facet normal 1.0 3.498999246966709e-15 2.4597890689671118e-14
  outer loop
    vertex 31.02836232364752 53.10979916076793 20.860723456778558
    vertex 31.02836232364808 47.60979916076792 1.86072345677704
    vertex 31.028362323647993 53.10979916076791 3.360723456778494
  endloop
endfacet
facet normal 1.0 3.498999246966709e-15 2.4597890689671118e-14
  outer loop
    vertex 31.02836232364728 58.60979916076764 26.735723456778643
    vertex 31.02836232364752 53.10979916076793 20.860723456778558
    vertex 31.028362323647457 58.6097991607677 20.86072345677854
  endloop
endfacet
facet normal 1.0 2.486233891892548e-14 2.3052694445715863e-14
  outer loop
    vertex 29.028362323649294 7.609799160768148 -4.1392765432238035
    vertex 29.028362323648896 11.859099463551397 12.218085366571232
    vertex 29.02836232364889 11.790951116129516 12.735723456776258
  endloop
endfacet
facet normal 1.0 2.486233891892548e-14 2.3052694445715863e-14
  outer loop
    vertex 29.028362323648896 11.859099463551397 12.218085366571232
    vertex 29.028362323649294 7.609799160768148 -4.1392765432238035
    vertex 29.028362323648896 12.058900308560672 11.735723456776292
  endloop
endfacet
facet normal 1.0 2.486233891892548e-14 2.3052694445715863e-14
  outer loop
    vertex 29.028362323648896 12.058900308560672 11.735723456776292
    vertex 29.028362323649294 7.609799160768148 -4.1392765432238035
    vertex 29.02836232364889 12.376737553756463 11.321509894403219
  endloop
endfacet
facet normal 1.0 2.486233891892548e-14 2.3052694445715863e-14
  outer loop
    vertex 29.02836232364889 12.376737553756463 11.321509894403219
    vertex 29.028362323649294 7.609799160768148 -4.1392765432238035
    vertex 29.02836232364888 12.790951116129563 11.00367264920746
  endloop
endfacet
facet normal 1.0 2.486233891892548e-14 2.3052694445715863e-14
  outer loop
    vertex 29.02836232364888 12.790951116129563 11.00367264920746
    vertex 29.028362323649294 7.609799160768148 -4.1392765432238035
    vertex 29.028362323648036 29.609799160767686 -1.2642765432229341
  endloop
endfacet
facet normal 1.0 2.486233891892548e-14 2.3052694445715863e-14
  outer loop
    vertex 29.028362323648036 29.609799160767686 -1.2642765432229341
    vertex 29.028362323649294 7.609799160768148 -4.1392765432238035
    vertex 29.028362323647784 58.60979916076769 -4.1392765432215795
  endloop
endfacet
facet normal 1.0 2.486233891892548e-14 2.3052694445715863e-14
  outer loop
    vertex 29.02836232364888 12.790951116129563 11.00367264920746
    vertex 29.028362323648036 29.609799160767686 -1.2642765432229341
    vertex 29.028362323648878 13.273313025924518 10.803871804198224
  endloop
endfacet
facet normal 1.0 2.486233891892548e-14 2.3052694445715863e-14
  outer loop
    vertex 29.028362323648878 13.273313025924518 10.803871804198224
    vertex 29.028362323648036 29.609799160767686 -1.2642765432229341
    vertex 29.028362323648867 13.790951116129548 10.735723456776382
  endloop
endfacet
facet normal 1.0 2.486233891892548e-14 2.3052694445715863e-14
  outer loop
    vertex 29.028362323648036 29.609799160767686 -1.2642765432229341
    vertex 29.028362323647784 58.60979916076769 -4.1392765432215795
    vertex 29.028362323648064 58.60979916076762 -1.2642765432229353
  endloop
endfacet
facet normal 1.0 2.486233891892548e-14 2.3052694445715863e-14
  outer loop
    vertex 29.028362323648867 13.790951116129548 10.735723456776382
    vertex 29.028362323648714 29.609799160767686 3.8607234567770385
    vertex 29.02836232364809 39.60979913096553 10.735723456777507
  endloop
endfacet
facet normal 1.0 2.486233891892548e-14 2.3052694445715863e-14
  outer loop
    vertex 29.028362323648714 29.609799160767686 3.8607234567770385
    vertex 29.028362323648867 13.790951116129548 10.735723456776382
    vertex 29.028362323648036 29.609799160767686 -1.2642765432229341
  endloop
endfacet
facet normal 1.0 2.486233891892548e-14 2.3052694445715863e-14
  outer loop
    vertex 29.02836232364809 39.60979913096553 10.735723456777507
    vertex 29.028362323648714 29.609799160767686 3.8607234567770385
    vertex 29.02836232364828 45.60979916076792 3.8607234567769546
  endloop
endfacet
facet normal 1.0 2.486233891892548e-14 2.3052694445715863e-14
  outer loop
    vertex 29.02836232364809 39.60979913096553 10.735723456777507
    vertex 29.02836232364828 45.60979916076792 3.8607234567769546
    vertex 29.02836232364807 40.127437224584796 10.803871797128734
  endloop
endfacet
facet normal 1.0 2.486233891892548e-14 2.3052694445715863e-14
  outer loop
    vertex 29.02836232364807 40.127437224584796 10.803871797128734
    vertex 29.02836232364828 45.60979916076792 3.8607234567769546
    vertex 29.028362323648054 40.609799139259565 11.003672636790927
  endloop
endfacet
facet normal 1.0 2.486233891892548e-14 2.3052694445715863e-14
  outer loop
    vertex 29.028362323648054 40.609799139259565 11.003672636790927
    vertex 29.02836232364828 45.60979916076792 3.8607234567769546
    vertex 29.028362323648036 41.02401270733543 11.321509878599185
  endloop
endfacet
facet normal 1.0 2.486233891892548e-14 2.3052694445715863e-14
  outer loop
    vertex 29.028362323648036 41.02401270733543 11.321509878599185
    vertex 29.02836232364828 45.60979916076792 3.8607234567769546
    vertex 29.02836232364802 41.34184995840207 11.735723439570847
  endloop
endfacet
facet normal 1.0 2.486233891892548e-14 2.3052694445715863e-14
  outer loop
    vertex 29.02836232364802 41.34184995840207 11.735723439570847
    vertex 29.02836232364828 45.60979916076792 3.8607234567769546
    vertex 29.028362323647997 41.54165080884589 12.218085349779722
  endloop
endfacet
facet normal 1.0 2.486233891892548e-14 2.3052694445715863e-14
  outer loop
    vertex 29.028362323647997 41.54165080884589 12.218085349779722
    vertex 29.02836232364828 45.60979916076792 3.8607234567769546
    vertex 29.028362323647986 41.60979916076721 12.735723441875765
  endloop
endfacet
facet normal 1.0 2.486233891892548e-14 2.3052694445715863e-14
  outer loop
    vertex 29.028362323647986 41.60979916076721 12.735723441875765
    vertex 29.02836232364828 45.60979916076792 3.8607234567769546
    vertex 29.028362323647745 45.6097991607677 21.610723456776974
  endloop
endfacet
facet normal 1.0 2.486233891892548e-14 2.3052694445715863e-14
  outer loop
    vertex 29.028362323647976 39.609799160767786 14.735723456776292
    vertex 29.028362323647844 29.609799160767693 21.610723456776974
    vertex 29.02836232364882 13.79095111612939 14.735723456776292
  endloop
endfacet
facet normal 1.0 2.486233891892548e-14 2.3052694445715863e-14
  outer loop
    vertex 29.028362323647844 29.609799160767693 21.610723456776974
    vertex 29.028362323647976 39.609799160767786 14.735723456776292
    vertex 29.028362323647745 45.6097991607677 21.610723456776974
  endloop
endfacet
facet normal 1.0 2.486233891892548e-14 2.3052694445715863e-14
  outer loop
    vertex 29.028362323647745 45.6097991607677 21.610723456776974
    vertex 29.028362323647976 39.609799160767786 14.735723456776292
    vertex 29.028362323647965 40.127437253371575 14.66757510871167
  endloop
endfacet
facet normal 1.0 2.486233891892548e-14 2.3052694445715863e-14
  outer loop
    vertex 29.028362323647745 45.6097991607677 21.610723456776974
    vertex 29.028362323647965 40.127437253371575 14.66757510871167
    vertex 29.028362323647958 40.60979916506908 14.467774261861736
  endloop
endfacet
facet normal 1.0 2.486233891892548e-14 2.3052694445715863e-14
  outer loop
    vertex 29.028362323647745 45.6097991607677 21.610723456776974
    vertex 29.028362323647958 40.60979916506908 14.467774261861736
    vertex 29.028362323647958 41.02401272840881 14.149937013881228
  endloop
endfacet
facet normal 1.0 2.486233891892548e-14 2.3052694445715863e-14
  outer loop
    vertex 29.028362323647745 45.6097991607677 21.610723456776974
    vertex 29.028362323647958 41.02401272840881 14.149937013881228
    vertex 29.028362323647965 41.341849973303205 13.73572344817343
  endloop
endfacet
facet normal 1.0 2.486233891892548e-14 2.3052694445715863e-14
  outer loop
    vertex 29.028362323647745 45.6097991607677 21.610723456776974
    vertex 29.028362323647965 41.341849973303205 13.73572344817343
    vertex 29.02836232364797 41.541650816559276 13.253361534987295
  endloop
endfacet
facet normal 1.0 2.486233891892548e-14 2.3052694445715863e-14
  outer loop
    vertex 29.028362323647745 45.6097991607677 21.610723456776974
    vertex 29.02836232364797 41.541650816559276 13.253361534987295
    vertex 29.028362323647986 41.60979916076721 12.735723441875765
  endloop
endfacet
facet normal 1.0 2.486233891892548e-14 2.3052694445715863e-14
  outer loop
    vertex 29.028362323648707 7.609799160766831 29.61072345677603
    vertex 29.028362323647535 29.609799160767693 26.735723456778597
    vertex 29.02836232364712 58.60979916076747 29.610723456778516
  endloop
endfacet
facet normal 1.0 2.486233891892548e-14 2.3052694445715863e-14
  outer loop
    vertex 29.028362323647535 29.609799160767693 26.735723456778597
    vertex 29.028362323648707 7.609799160766831 29.61072345677603
    vertex 29.02836232364885 12.790951116129424 14.467774264345133
  endloop
endfacet
facet normal 1.0 2.486233891892548e-14 2.3052694445715863e-14
  outer loop
    vertex 29.02836232364885 12.790951116129424 14.467774264345133
    vertex 29.028362323648707 7.609799160766831 29.61072345677603
    vertex 29.02836232364886 12.376737553756351 14.149937019149343
  endloop
endfacet
facet normal 1.0 2.486233891892548e-14 2.3052694445715863e-14
  outer loop
    vertex 29.02836232364886 12.376737553756351 14.149937019149343
    vertex 29.028362323648707 7.609799160766831 29.61072345677603
    vertex 29.02836232364887 12.058900308560593 13.735723456776245
  endloop
endfacet
facet normal 1.0 2.486233891892548e-14 2.3052694445715863e-14
  outer loop
    vertex 29.02836232364887 12.058900308560593 13.735723456776245
    vertex 29.028362323648707 7.609799160766831 29.61072345677603
    vertex 29.02836232364888 11.859099463551356 13.253361546981289
  endloop
endfacet
facet normal 1.0 2.486233891892548e-14 2.3052694445715863e-14
  outer loop
    vertex 29.02836232364888 11.859099463551356 13.253361546981289
    vertex 29.028362323648707 7.609799160766831 29.61072345677603
    vertex 29.028362323649294 7.609799160768148 -4.1392765432238035
  endloop
endfacet
facet normal 1.0 2.486233891892548e-14 2.3052694445715863e-14
  outer loop
    vertex 29.02836232364888 11.859099463551356 13.253361546981289
    vertex 29.028362323649294 7.609799160768148 -4.1392765432238035
    vertex 29.02836232364889 11.790951116129516 12.735723456776258
  endloop
endfacet
facet normal 1.0 2.486233891892548e-14 2.3052694445715863e-14
  outer loop
    vertex 29.028362323647535 29.609799160767693 26.735723456778597
    vertex 29.02836232364885 12.790951116129424 14.467774264345133
    vertex 29.02836232364883 13.273313025924365 14.667575109354408
  endloop
endfacet
facet normal 1.0 2.486233891892548e-14 2.3052694445715863e-14
  outer loop
    vertex 29.028362323647535 29.609799160767693 26.735723456778597
    vertex 29.02836232364883 13.273313025924365 14.667575109354408
    vertex 29.02836232364882 13.79095111612939 14.735723456776292
  endloop
endfacet
facet normal 1.0 2.486233891892548e-14 2.3052694445715863e-14
  outer loop
    vertex 29.028362323647535 29.609799160767693 26.735723456778597
    vertex 29.02836232364882 13.79095111612939 14.735723456776292
    vertex 29.028362323647844 29.609799160767693 21.610723456776974
  endloop
endfacet
facet normal 1.0 2.486233891892548e-14 2.3052694445715863e-14
  outer loop
    vertex 29.02836232364712 58.60979916076747 29.610723456778516
    vertex 29.028362323647535 29.609799160767693 26.735723456778597
    vertex 29.028362323647283 58.60979916076762 26.735723456778597
  endloop
endfacet
facet normal -1.2219854757707048e-14 1.0 -2.8978980025367175e-15
  outer loop
    vertex 25.02836232364766 53.1097991607678 5.360723456778312
    vertex 31.02836232364752 53.10979916076793 20.860723456778558
    vertex 31.028362323647993 53.10979916076791 3.360723456778494
  endloop
endfacet
facet normal -1.2219854757707048e-14 1.0 -2.8978980025367175e-15
  outer loop
    vertex 31.02836232364752 53.10979916076793 20.860723456778558
    vertex 25.02836232364766 53.1097991607678 5.360723456778312
    vertex 25.028362323647382 53.10979916076789 18.86072345677837
  endloop
endfacet
facet normal -1.0 -3.2137207569982473e-14 -1.9139161592739845e-14
  outer loop
    vertex 25.02836232364874 7.609799160766665 29.610723456776014
    vertex 25.028362323648807 11.859099463551235 13.25336154698122
    vertex 25.02836232364933 7.609799160768033 -4.139276543223908
  endloop
endfacet
facet normal -1.0 -3.2137207569982473e-14 -1.9139161592739845e-14
  outer loop
    vertex 25.028362323648807 11.859099463551235 13.25336154698122
    vertex 25.02836232364874 7.609799160766665 29.610723456776014
    vertex 25.028362323648782 12.058900308560471 13.735723456776174
  endloop
endfacet
facet normal -1.0 -3.2137207569982473e-14 -1.9139161592739845e-14
  outer loop
    vertex 25.028362323648782 12.058900308560471 13.735723456776174
    vertex 25.02836232364874 7.609799160766665 29.610723456776014
    vertex 25.028362323648782 12.37673755375623 14.149937019149272
  endloop
endfacet
facet normal -1.0 -3.2137207569982473e-14 -1.9139161592739845e-14
  outer loop
    vertex 25.028362323648782 12.37673755375623 14.149937019149272
    vertex 25.02836232364874 7.609799160766665 29.610723456776014
    vertex 25.02836232364876 12.790951116129309 14.467774264345064
  endloop
endfacet
facet normal -1.0 -3.2137207569982473e-14 -1.9139161592739845e-14
  outer loop
    vertex 25.02836232364876 12.790951116129309 14.467774264345064
    vertex 25.02836232364874 7.609799160766665 29.610723456776014
    vertex 25.02836232364874 13.27331302592425 14.667575109354337
  endloop
endfacet
facet normal -1.0 -3.2137207569982473e-14 -1.9139161592739845e-14
  outer loop
    vertex 25.02836232364874 13.27331302592425 14.667575109354337
    vertex 25.02836232364874 7.609799160766665 29.610723456776014
    vertex 25.02836232364709 58.609799160767295 29.610723456778405
  endloop
endfacet
facet normal -1.0 -3.2137207569982473e-14 -1.9139161592739845e-14
  outer loop
    vertex 25.02836232364933 7.609799160768033 -4.139276543223908
    vertex 25.028362323648807 11.859099463551235 13.25336154698122
    vertex 25.028362323648807 11.790951116129394 12.735723456776187
  endloop
endfacet
facet normal -1.0 -3.2137207569982473e-14 -1.9139161592739845e-14
  outer loop
    vertex 25.02836232364874 13.27331302592425 14.667575109354337
    vertex 25.02836232364709 58.609799160767295 29.610723456778405
    vertex 25.02836232364874 13.790951116129275 14.73572345677622
  endloop
endfacet
facet normal -1.0 -3.2137207569982473e-14 -1.9139161592739845e-14
  outer loop
    vertex 25.02836232364874 13.790951116129275 14.73572345677622
    vertex 25.02836232364709 58.609799160767295 29.610723456778405
    vertex 25.02836232364788 39.60979916076763 14.73572345677622
  endloop
endfacet
facet normal -1.0 -3.2137207569982473e-14 -1.9139161592739845e-14
  outer loop
    vertex 25.02836232364788 39.60979916076763 14.73572345677622
    vertex 25.02836232364709 58.609799160767295 29.610723456778405
    vertex 25.02836232364788 40.12743725337142 14.667575108711599
  endloop
endfacet
facet normal -1.0 -3.2137207569982473e-14 -1.9139161592739845e-14
  outer loop
    vertex 25.02836232364788 40.12743725337142 14.667575108711599
    vertex 25.02836232364709 58.609799160767295 29.610723456778405
    vertex 25.02836232364788 40.60979916506892 14.467774261861665
  endloop
endfacet
facet normal -1.0 -3.2137207569982473e-14 -1.9139161592739845e-14
  outer loop
    vertex 25.02836232364788 40.60979916506892 14.467774261861665
    vertex 25.02836232364709 58.609799160767295 29.610723456778405
    vertex 25.02836232364788 41.02401272840866 14.149937013881157
  endloop
endfacet
facet normal -1.0 -3.2137207569982473e-14 -1.9139161592739845e-14
  outer loop
    vertex 25.02836232364788 41.02401272840866 14.149937013881157
    vertex 25.02836232364709 58.609799160767295 29.610723456778405
    vertex 25.02836232364788 41.34184997330305 13.73572344817336
  endloop
endfacet
facet normal -1.0 -3.2137207569982473e-14 -1.9139161592739845e-14
  outer loop
    vertex 25.02836232364788 41.34184997330305 13.73572344817336
    vertex 25.02836232364709 58.609799160767295 29.610723456778405
    vertex 25.02836232364788 41.54165081655912 13.253361534987224
  endloop
endfacet
facet normal -1.0 -3.2137207569982473e-14 -1.9139161592739845e-14
  outer loop
    vertex 25.02836232364788 41.54165081655912 13.253361534987224
    vertex 25.02836232364709 58.609799160767295 29.610723456778405
    vertex 25.028362323647904 41.609799160767054 12.735723441875693
  endloop
endfacet
facet normal -1.0 -3.2137207569982473e-14 -1.9139161592739845e-14
  outer loop
    vertex 25.028362323647904 41.609799160767054 12.735723441875693
    vertex 25.02836232364709 58.609799160767295 29.610723456778405
    vertex 25.028362323647382 53.10979916076789 18.86072345677837
  endloop
endfacet
facet normal -1.0 -3.2137207569982473e-14 -1.9139161592739845e-14
  outer loop
    vertex 25.028362323647904 41.609799160767054 12.735723441875693
    vertex 25.028362323647382 53.10979916076789 18.86072345677837
    vertex 25.02836232364766 53.1097991607678 5.360723456778312
  endloop
endfacet
facet normal -1.0 -3.2137207569982473e-14 -1.9139161592739845e-14
  outer loop
    vertex 25.028362323647382 53.10979916076789 18.86072345677837
    vertex 25.02836232364709 58.609799160767295 29.610723456778405
    vertex 25.02836232364732 58.609799160767665 18.860723456778352
  endloop
endfacet
facet normal -1.0 -3.2137207569982473e-14 -1.9139161592739845e-14
  outer loop
    vertex 25.02836232364933 7.609799160768033 -4.139276543223908
    vertex 25.028362323648782 13.273313025924402 10.803871804198147
    vertex 25.028362323647784 58.60979916076756 -4.139276543221678
  endloop
endfacet
facet normal -1.0 -3.2137207569982473e-14 -1.9139161592739845e-14
  outer loop
    vertex 25.028362323648782 13.273313025924402 10.803871804198147
    vertex 25.02836232364933 7.609799160768033 -4.139276543223908
    vertex 25.028362323648807 12.790951116129445 11.003672649207385
  endloop
endfacet
facet normal -1.0 -3.2137207569982473e-14 -1.9139161592739845e-14
  outer loop
    vertex 25.028362323648807 12.790951116129445 11.003672649207385
    vertex 25.02836232364933 7.609799160768033 -4.139276543223908
    vertex 25.028362323648807 12.37673755375634 11.321509894403142
  endloop
endfacet
facet normal -1.0 -3.2137207569982473e-14 -1.9139161592739845e-14
  outer loop
    vertex 25.028362323648807 12.37673755375634 11.321509894403142
    vertex 25.02836232364933 7.609799160768033 -4.139276543223908
    vertex 25.028362323648807 12.05890030856055 11.735723456776217
  endloop
endfacet
facet normal -1.0 -3.2137207569982473e-14 -1.9139161592739845e-14
  outer loop
    vertex 25.028362323648807 12.05890030856055 11.735723456776217
    vertex 25.02836232364933 7.609799160768033 -4.139276543223908
    vertex 25.028362323648807 11.859099463551276 12.218085366571156
  endloop
endfacet
facet normal -1.0 -3.2137207569982473e-14 -1.9139161592739845e-14
  outer loop
    vertex 25.028362323648807 11.859099463551276 12.218085366571156
    vertex 25.02836232364933 7.609799160768033 -4.139276543223908
    vertex 25.028362323648807 11.790951116129394 12.735723456776187
  endloop
endfacet
facet normal -1.0 -3.2137207569982473e-14 -1.9139161592739845e-14
  outer loop
    vertex 25.028362323647784 58.60979916076756 -4.139276543221678
    vertex 25.028362323648782 13.273313025924402 10.803871804198147
    vertex 25.028362323648782 13.790951116129433 10.735723456776308
  endloop
endfacet
facet normal -1.0 -3.2137207569982473e-14 -1.9139161592739845e-14
  outer loop
    vertex 25.028362323647784 58.60979916076756 -4.139276543221678
    vertex 25.028362323648782 13.790951116129433 10.735723456776308
    vertex 25.028362323647993 39.609799130965364 10.73572345677743
  endloop
endfacet
facet normal -1.0 -3.2137207569982473e-14 -1.9139161592739845e-14
  outer loop
    vertex 25.028362323647784 58.60979916076756 -4.139276543221678
    vertex 25.028362323647993 39.609799130965364 10.73572345677743
    vertex 25.028362323647993 40.12743722458464 10.803871797128657
  endloop
endfacet
facet normal -1.0 -3.2137207569982473e-14 -1.9139161592739845e-14
  outer loop
    vertex 25.028362323647784 58.60979916076756 -4.139276543221678
    vertex 25.028362323647993 40.12743722458464 10.803871797128657
    vertex 25.028362323647972 40.60979913925941 11.003672636790851
  endloop
endfacet
facet normal -1.0 -3.2137207569982473e-14 -1.9139161592739845e-14
  outer loop
    vertex 25.028362323647784 58.60979916076756 -4.139276543221678
    vertex 25.028362323647972 40.60979913925941 11.003672636790851
    vertex 25.028362323647947 41.024012707335274 11.321509878599109
  endloop
endfacet
facet normal -1.0 -3.2137207569982473e-14 -1.9139161592739845e-14
  outer loop
    vertex 25.028362323647784 58.60979916076756 -4.139276543221678
    vertex 25.028362323647947 41.024012707335274 11.321509878599109
    vertex 25.028362323647926 41.341849958401916 11.735723439570771
  endloop
endfacet
facet normal -1.0 -3.2137207569982473e-14 -1.9139161592739845e-14
  outer loop
    vertex 25.028362323647784 58.60979916076756 -4.139276543221678
    vertex 25.028362323647926 41.341849958401916 11.735723439570771
    vertex 25.028362323647904 41.54165080884573 12.218085349779646
  endloop
endfacet
facet normal -1.0 -3.2137207569982473e-14 -1.9139161592739845e-14
  outer loop
    vertex 25.028362323647784 58.60979916076756 -4.139276543221678
    vertex 25.028362323647904 41.54165080884573 12.218085349779646
    vertex 25.028362323647904 41.609799160767054 12.735723441875693
  endloop
endfacet
facet normal -1.0 -3.2137207569982473e-14 -1.9139161592739845e-14
  outer loop
    vertex 25.028362323647784 58.60979916076756 -4.139276543221678
    vertex 25.028362323647904 41.609799160767054 12.735723441875693
    vertex 25.02836232364766 53.1097991607678 5.360723456778312
  endloop
endfacet
facet normal -1.0 -3.2137207569982473e-14 -1.9139161592739845e-14
  outer loop
    vertex 25.028362323647784 58.60979916076756 -4.139276543221678
    vertex 25.02836232364766 53.1097991607678 5.360723456778312
    vertex 25.028362323647595 58.60979916076758 5.360723456778296
  endloop
endfacet
facet normal 0.7071067811866153 9.149265625819109e-15 0.7071067811864798
  outer loop
    vertex 31.028362323648032 29.609799160767693 1.8607234567770414
    vertex 29.02836232364828 45.60979916076792 3.8607234567769546
    vertex 29.028362323648714 29.609799160767686 3.8607234567770385
  endloop
endfacet
facet normal 0.7071067811866153 9.149265625819109e-15 0.7071067811864798
  outer loop
    vertex 29.02836232364828 45.60979916076792 3.8607234567769546
    vertex 31.028362323648032 29.609799160767693 1.8607234567770414
    vertex 31.02836232364808 47.60979916076792 1.86072345677704
  endloop
endfacet
facet normal 2.797390794961832e-14 -0.9914448603202752 0.13052620022244643
  outer loop
    vertex 29.028362323647997 41.54165080884589 12.218085349779722
    vertex 25.028362323647904 41.609799160767054 12.735723441875693
    vertex 25.028362323647904 41.54165080884573 12.218085349779646
  endloop
endfacet
facet normal 2.797390794961832e-14 -0.9914448603202752 0.13052620022244643
  outer loop
    vertex 25.028362323647904 41.609799160767054 12.735723441875693
    vertex 29.028362323647997 41.54165080884589 12.218085349779722
    vertex 29.028362323647986 41.60979916076721 12.735723441875765
  endloop
endfacet
facet normal 3.3034756112137185e-14 -0.991444862265263 -0.13052618544879752
  outer loop
    vertex 29.028362323647986 41.60979916076721 12.735723441875765
    vertex 25.02836232364788 41.54165081655912 13.253361534987224
    vertex 25.028362323647904 41.609799160767054 12.735723441875693
  endloop
endfacet
facet normal 3.3034756112137185e-14 -0.991444862265263 -0.13052618544879752
  outer loop
    vertex 25.02836232364788 41.54165081655912 13.253361534987224
    vertex 29.028362323647986 41.60979916076721 12.735723441875765
    vertex 29.02836232364797 41.541650816559276 13.253361534987295
  endloop
endfacet
facet normal 3.5844340216895334e-14 -0.9238795346496933 -0.38268342720252
  outer loop
    vertex 29.02836232364797 41.541650816559276 13.253361534987295
    vertex 25.02836232364788 41.34184997330305 13.73572344817336
    vertex 25.02836232364788 41.54165081655912 13.253361534987224
  endloop
endfacet
facet normal 3.5844340216895334e-14 -0.9238795346496933 -0.38268342720252
  outer loop
    vertex 25.02836232364788 41.34184997330305 13.73572344817336
    vertex 29.02836232364797 41.541650816559276 13.253361534987295
    vertex 29.028362323647965 41.341849973303205 13.73572344817343
  endloop
endfacet
facet normal 3.6211191748404904e-14 -0.793353342937005 -0.6087614255606862
  outer loop
    vertex 29.028362323647965 41.341849973303205 13.73572344817343
    vertex 25.02836232364788 41.02401272840866 14.149937013881157
    vertex 25.02836232364788 41.34184997330305 13.73572344817336
  endloop
endfacet
facet normal 3.6211191748404904e-14 -0.793353342937005 -0.6087614255606862
  outer loop
    vertex 25.02836232364788 41.02401272840866 14.149937013881157
    vertex 29.028362323647965 41.341849973303205 13.73572344817343
    vertex 29.028362323647958 41.02401272840881 14.149937013881228
  endloop
endfacet
facet normal 3.41103103808085e-14 -0.6087614314716019 -0.7933533384014
  outer loop
    vertex 29.028362323647958 41.02401272840881 14.149937013881228
    vertex 25.02836232364788 40.60979916506892 14.467774261861665
    vertex 25.02836232364788 41.02401272840866 14.149937013881157
  endloop
endfacet
facet normal 3.41103103808085e-14 -0.6087614314716019 -0.7933533384014
  outer loop
    vertex 25.02836232364788 40.60979916506892 14.467774261861665
    vertex 29.028362323647958 41.02401272840881 14.149937013881228
    vertex 29.028362323647958 40.60979916506908 14.467774261861736
  endloop
endfacet
facet normal 2.96848677087876e-14 -0.3826834340859367 -0.9238795317984887
  outer loop
    vertex 29.028362323647958 40.60979916506908 14.467774261861736
    vertex 25.02836232364788 40.12743725337142 14.667575108711599
    vertex 25.02836232364788 40.60979916506892 14.467774261861665
  endloop
endfacet
facet normal 2.96848677087876e-14 -0.3826834340859367 -0.9238795317984887
  outer loop
    vertex 25.02836232364788 40.12743725337142 14.667575108711599
    vertex 29.028362323647958 40.60979916506908 14.467774261861736
    vertex 29.028362323647965 40.127437253371575 14.66757510871167
  endloop
endfacet
facet normal 2.3236450339895308e-14 -0.130526192835611 -0.9914448612927707
  outer loop
    vertex 29.028362323647965 40.127437253371575 14.66757510871167
    vertex 25.02836232364788 39.60979916076763 14.73572345677622
    vertex 25.02836232364788 40.12743725337142 14.667575108711599
  endloop
endfacet
facet normal 2.3236450339895308e-14 -0.130526192835611 -0.9914448612927707
  outer loop
    vertex 25.02836232364788 39.60979916076763 14.73572345677622
    vertex 29.028362323647965 40.127437253371575 14.66757510871167
    vertex 29.028362323647976 39.609799160767786 14.735723456776292
  endloop
endfacet
facet normal 1.9386331558178994e-14 6.352197253623557e-28 -1.0
  outer loop
    vertex 29.028362323647976 39.609799160767786 14.735723456776292
    vertex 25.02836232364874 13.790951116129275 14.73572345677622
    vertex 25.02836232364788 39.60979916076763 14.73572345677622
  endloop
endfacet
facet normal 1.9386331558178994e-14 6.352197253623557e-28 -1.0
  outer loop
    vertex 25.02836232364874 13.790951116129275 14.73572345677622
    vertex 29.028362323647976 39.609799160767786 14.735723456776292
    vertex 29.02836232364882 13.79095111612939 14.735723456776292
  endloop
endfacet
facet normal 1.5204507285962514e-14 0.1305261922200928 -0.9914448613738049
  outer loop
    vertex 29.02836232364882 13.79095111612939 14.735723456776292
    vertex 25.02836232364874 13.27331302592425 14.667575109354337
    vertex 25.02836232364874 13.790951116129275 14.73572345677622
  endloop
endfacet
facet normal 1.5204507285962514e-14 0.1305261922200928 -0.9914448613738049
  outer loop
    vertex 25.02836232364874 13.27331302592425 14.667575109354337
    vertex 29.02836232364882 13.79095111612939 14.735723456776292
    vertex 29.02836232364883 13.273313025924365 14.667575109354408
  endloop
endfacet
facet normal 6.136402204497145e-15 0.3826834323651258 -0.9238795325112719
  outer loop
    vertex 29.02836232364883 13.273313025924365 14.667575109354408
    vertex 25.02836232364876 12.790951116129309 14.467774264345064
    vertex 25.02836232364874 13.27331302592425 14.667575109354337
  endloop
endfacet
facet normal 6.136402204497145e-15 0.3826834323651258 -0.9238795325112719
  outer loop
    vertex 25.02836232364876 12.790951116129309 14.467774264345064
    vertex 29.02836232364883 13.273313025924365 14.667575109354408
    vertex 29.02836232364885 12.790951116129424 14.467774264345133
  endloop
endfacet
facet normal -3.349888546320707e-15 0.6087614290087524 -0.793353340291211
  outer loop
    vertex 29.02836232364885 12.790951116129424 14.467774264345133
    vertex 25.028362323648782 12.37673755375623 14.149937019149272
    vertex 25.02836232364876 12.790951116129309 14.467774264345064
  endloop
endfacet
facet normal -3.349888546320707e-15 0.6087614290087524 -0.793353340291211
  outer loop
    vertex 25.028362323648782 12.37673755375623 14.149937019149272
    vertex 29.02836232364885 12.790951116129424 14.467774264345133
    vertex 29.02836232364886 12.376737553756351 14.149937019149343
  endloop
endfacet
facet normal -1.26078899286593e-14 0.7933533402912588 -0.6087614290086898
  outer loop
    vertex 25.028362323648782 12.37673755375623 14.149937019149272
    vertex 29.02836232364887 12.058900308560593 13.735723456776245
    vertex 25.028362323648782 12.058900308560471 13.735723456776174
  endloop
endfacet
facet normal -1.26078899286593e-14 0.7933533402912588 -0.6087614290086898
  outer loop
    vertex 29.02836232364887 12.058900308560593 13.735723456776245
    vertex 25.028362323648782 12.37673755375623 14.149937019149272
    vertex 29.02836232364886 12.376737553756351 14.149937019149343
  endloop
endfacet
facet normal -2.1006684447883037e-14 0.9238795325113015 -0.38268343236505403
  outer loop
    vertex 25.028362323648782 12.058900308560471 13.735723456776174
    vertex 29.02836232364888 11.859099463551356 13.253361546981289
    vertex 25.028362323648807 11.859099463551235 13.25336154698122
  endloop
endfacet
facet normal -2.1006684447883037e-14 0.9238795325113015 -0.38268343236505403
  outer loop
    vertex 29.02836232364888 11.859099463551356 13.253361546981289
    vertex 25.028362323648782 12.058900308560471 13.735723456776174
    vertex 29.02836232364887 12.058900308560593 13.735723456776245
  endloop
endfacet
facet normal -2.7973908137171034e-14 0.9914448613738158 -0.13052619222001177
  outer loop
    vertex 25.028362323648807 11.859099463551235 13.25336154698122
    vertex 29.02836232364889 11.790951116129516 12.735723456776258
    vertex 25.028362323648807 11.790951116129394 12.735723456776187
  endloop
endfacet
facet normal -2.7973908137171034e-14 0.9914448613738158 -0.13052619222001177
  outer loop
    vertex 29.02836232364889 11.790951116129516 12.735723456776258
    vertex 25.028362323648807 11.859099463551235 13.25336154698122
    vertex 29.02836232364888 11.859099463551356 13.253361546981289
  endloop
endfacet
facet normal -3.3034756215979736e-14 0.9914448613738053 0.13052619222009013
  outer loop
    vertex 25.028362323648807 11.790951116129394 12.735723456776187
    vertex 29.028362323648896 11.859099463551397 12.218085366571232
    vertex 25.028362323648807 11.859099463551276 12.218085366571156
  endloop
endfacet
facet normal -3.3034756215979736e-14 0.9914448613738053 0.13052619222009013
  outer loop
    vertex 29.028362323648896 11.859099463551397 12.218085366571232
    vertex 25.028362323648807 11.790951116129394 12.735723456776187
    vertex 29.02836232364889 11.790951116129516 12.735723456776258
  endloop
endfacet
facet normal -3.584434025118533e-14 0.9238795325112714 0.38268343236512675
  outer loop
    vertex 25.028362323648807 11.859099463551276 12.218085366571156
    vertex 29.028362323648896 12.058900308560672 11.735723456776292
    vertex 25.028362323648807 12.05890030856055 11.735723456776217
  endloop
endfacet
facet normal -3.584434025118533e-14 0.9238795325112714 0.38268343236512675
  outer loop
    vertex 29.028362323648896 12.058900308560672 11.735723456776292
    vertex 25.028362323648807 11.859099463551276 12.218085366571156
    vertex 29.028362323648896 11.859099463551397 12.218085366571232
  endloop
endfacet
facet normal -3.621119173384565e-14 0.7933533402912117 0.6087614290087511
  outer loop
    vertex 25.028362323648807 12.05890030856055 11.735723456776217
    vertex 29.02836232364889 12.376737553756463 11.321509894403219
    vertex 25.028362323648807 12.37673755375634 11.321509894403142
  endloop
endfacet
facet normal -3.621119173384565e-14 0.7933533402912117 0.6087614290087511
  outer loop
    vertex 29.02836232364889 12.376737553756463 11.321509894403219
    vertex 25.028362323648807 12.05890030856055 11.735723456776217
    vertex 29.028362323648896 12.058900308560672 11.735723456776292
  endloop
endfacet
facet normal -3.411031034166813e-14 0.6087614290086885 0.7933533402912598
  outer loop
    vertex 29.02836232364889 12.376737553756463 11.321509894403219
    vertex 25.028362323648807 12.790951116129445 11.003672649207385
    vertex 25.028362323648807 12.37673755375634 11.321509894403142
  endloop
endfacet
facet normal -3.411031034166813e-14 0.6087614290086885 0.7933533402912598
  outer loop
    vertex 25.028362323648807 12.790951116129445 11.003672649207385
    vertex 29.02836232364889 12.376737553756463 11.321509894403219
    vertex 29.02836232364888 12.790951116129563 11.00367264920746
  endloop
endfacet
facet normal -2.9684867669659075e-14 0.38268343236505403 0.9238795325113015
  outer loop
    vertex 25.028362323648807 12.790951116129445 11.003672649207385
    vertex 29.028362323648878 13.273313025924518 10.803871804198224
    vertex 25.028362323648782 13.273313025924402 10.803871804198147
  endloop
endfacet
facet normal -2.9684867669659075e-14 0.38268343236505403 0.9238795325113015
  outer loop
    vertex 29.028362323648878 13.273313025924518 10.803871804198224
    vertex 25.028362323648807 12.790951116129445 11.003672649207385
    vertex 29.02836232364888 12.790951116129563 11.00367264920746
  endloop
endfacet
facet normal -2.3236450322525995e-14 0.13052619222001177 0.9914448613738158
  outer loop
    vertex 29.028362323648878 13.273313025924518 10.803871804198224
    vertex 25.028362323648782 13.790951116129433 10.735723456776308
    vertex 25.028362323648782 13.273313025924402 10.803871804198147
  endloop
endfacet
facet normal -2.3236450322525995e-14 0.13052619222001177 0.9914448613738158
  outer loop
    vertex 25.028362323648782 13.790951116129433 10.735723456776308
    vertex 29.028362323648878 13.273313025924518 10.803871804198224
    vertex 29.028362323648867 13.790951116129548 10.735723456776382
  endloop
endfacet
facet normal -1.9386331558177656e-14 -4.352466239584436e-14 1.0
  outer loop
    vertex 25.028362323648782 13.790951116129433 10.735723456776308
    vertex 29.02836232364809 39.60979913096553 10.735723456777507
    vertex 25.028362323647993 39.609799130965364 10.73572345677743
  endloop
endfacet
facet normal -1.9386331558177656e-14 -4.352466239584436e-14 1.0
  outer loop
    vertex 29.02836232364809 39.60979913096553 10.735723456777507
    vertex 25.028362323648782 13.790951116129433 10.735723456776308
    vertex 29.028362323648867 13.790951116129548 10.735723456776382
  endloop
endfacet
facet normal -1.5204507757708918e-14 -0.1305261780619575 0.9914448632377589
  outer loop
    vertex 29.02836232364809 39.60979913096553 10.735723456777507
    vertex 25.028362323647993 40.12743722458464 10.803871797128657
    vertex 25.028362323647993 39.609799130965364 10.73572345677743
  endloop
endfacet
facet normal -1.5204507757708918e-14 -0.1305261780619575 0.9914448632377589
  outer loop
    vertex 25.028362323647993 40.12743722458464 10.803871797128657
    vertex 29.02836232364809 39.60979913096553 10.735723456777507
    vertex 29.02836232364807 40.127437224584796 10.803871797128734
  endloop
endfacet
facet normal -6.136402671855038e-15 -0.38268342031908475 0.9238795375009053
  outer loop
    vertex 25.028362323647993 40.12743722458464 10.803871797128657
    vertex 29.028362323648054 40.609799139259565 11.003672636790927
    vertex 25.028362323647972 40.60979913925941 11.003672636790851
  endloop
endfacet
facet normal -6.136402671855038e-15 -0.38268342031908475 0.9238795375009053
  outer loop
    vertex 29.028362323648054 40.609799139259565 11.003672636790927
    vertex 25.028362323647993 40.12743722458464 10.803871797128657
    vertex 29.02836232364807 40.127437224584796 10.803871797128734
  endloop
endfacet
facet normal 3.3498881191453576e-15 -0.6087614196497401 0.7933533474726336
  outer loop
    vertex 25.028362323647972 40.60979913925941 11.003672636790851
    vertex 29.028362323648036 41.02401270733543 11.321509878599185
    vertex 25.028362323647947 41.024012707335274 11.321509878599109
  endloop
endfacet
facet normal 3.3498881191453576e-15 -0.6087614196497401 0.7933533474726336
  outer loop
    vertex 29.028362323648036 41.02401270733543 11.321509878599185
    vertex 25.028362323647972 40.60979913925941 11.003672636790851
    vertex 29.028362323648054 40.609799139259565 11.003672636790927
  endloop
endfacet
facet normal 1.2607889568624541e-14 -0.7933533338657741 0.6087614373825443
  outer loop
    vertex 29.028362323648036 41.02401270733543 11.321509878599185
    vertex 25.028362323647926 41.341849958401916 11.735723439570771
    vertex 25.028362323647947 41.024012707335274 11.321509878599109
  endloop
endfacet
facet normal 1.2607889568624541e-14 -0.7933533338657741 0.6087614373825443
  outer loop
    vertex 25.028362323647926 41.341849958401916 11.735723439570771
    vertex 29.028362323648036 41.02401270733543 11.321509878599185
    vertex 29.02836232364802 41.34184995840207 11.735723439570847
  endloop
endfacet
facet normal 2.100668417142022e-14 -0.9238795289472722 0.382683440969382
  outer loop
    vertex 29.02836232364802 41.34184995840207 11.735723439570847
    vertex 25.028362323647904 41.54165080884573 12.218085349779646
    vertex 25.028362323647926 41.341849958401916 11.735723439570771
  endloop
endfacet
facet normal 2.100668417142022e-14 -0.9238795289472722 0.382683440969382
  outer loop
    vertex 25.028362323647904 41.54165080884573 12.218085349779646
    vertex 29.02836232364802 41.34184995840207 11.735723439570847
    vertex 29.028362323647997 41.54165080884589 12.218085349779722
  endloop
endfacet
endsolid print list 12
