solid print list 10
facet normal -6.230689579237437e-05 -0.6087961028573263 -0.7933267304607746
  outer loop
    vertex 341.5932581811827 127.56214524147272 17.35181231662983
    vertex 340.5932693279501 127.1480809403211 17.669642322090844
    vertex 340.5932581906663 127.56228060841927 17.351786977903448
  endloop
endfacet
facet normal -6.230689579237437e-05 -0.6087961028573263 -0.7933267304607746
  outer loop
    vertex 340.5932693279501 127.1480809403211 17.669642322090844
    vertex 341.5932581811827 127.56214524147272 17.35181231662983
    vertex 341.5932693184665 127.14794557337454 17.669667666074492
  endloop
endfacet
facet normal -0.00013476022229696525 -0.9238628045998251 0.382723790894462
  outer loop
    vertex 341.5931683487358 127.87987700140772 14.937584875061255
    vertex 340.5931867942849 128.07983428454511 15.419912713190877
    vertex 340.5931683582194 127.88001236835427 14.937559532082755
  endloop
endfacet
facet normal -0.00013476022229696525 -0.9238628045998251 0.382723790894462
  outer loop
    vertex 340.5931867942849 128.07983428454511 15.419912713190877
    vertex 341.5931683487358 127.87987700140772 14.937584875061255
    vertex 341.5931867848014 128.07969891759853 15.419938058120229
  endloop
endfacet
facet normal 7.521898227429403e-05 0.38264305234140084 -0.923896254368942
  outer loop
    vertex 340.59327400153876 125.63045160764091 17.869509498166106
    vertex 341.59326561578854 125.14794561031006 17.669755090279416
    vertex 340.5932656252721 125.14808097725661 17.669729738854688
  endloop
endfacet
facet normal 7.521898227429403e-05 0.38264305234140084 -0.923896254368942
  outer loop
    vertex 341.59326561578854 125.14794561031006 17.669755090279416
    vertex 340.59327400153876 125.63045160764091 17.869509498166106
    vertex 341.5932739920552 125.63031624069434 17.86953484888425
  endloop
endfacet
facet normal 0.0001347633741384292 0.9238628024734253 -0.38272379602630086
  outer loop
    vertex 340.5932368520955 124.41599819917931 16.93771093395576
    vertex 341.5932184065464 124.21604091604189 16.45538311163958
    vertex 340.59321841602997 124.21617628298846 16.45535775937973
  endloop
endfacet
facet normal 0.0001347633741384292 0.9238628024734253 -0.38272379602630086
  outer loop
    vertex 341.5932184065464 124.21604091604189 16.45538311163958
    vertex 340.5932368520955 124.41599819917931 16.93771093395576
    vertex 341.593236842612 124.41586283223275 16.937736286075168
  endloop
endfacet
facet normal 0.00013090159723049756 0.9914505557365824 0.13048286628670525
  outer loop
    vertex 340.59319890247946 124.1480053207023 15.937722648993658
    vertex 341.5931796317769 124.21599568379614 15.420106932303423
    vertex 340.5931796412604 124.2161310507427 15.420081580043842
  endloop
endfacet
facet normal 0.00013090159723049756 0.9914505557365824 0.13048286628670525
  outer loop
    vertex 341.5931796317769 124.21599568379614 15.420106932303423
    vertex 340.59319890247946 124.1480053207023 15.937722648993658
    vertex 341.59319889299593 124.14786995375574 15.937748001297788
  endloop
endfacet
facet normal 0.00011536417643325456 0.9238962506392597 0.38264305134919807
  outer loop
    vertex 340.5931796412604 124.2161310507427 15.420081580043842
    vertex 341.59316193550944 124.41577545024406 14.937736288149804
    vertex 340.593161944993 124.4159108171906 14.937710936030925
  endloop
endfacet
facet normal 0.00011536417643325456 0.9238962506392597 0.38264305134919807
  outer loop
    vertex 341.59316193550944 124.41577545024406 14.937736288149804
    vertex 340.5931796412604 124.2161310507427 15.420081580043842
    vertex 341.5931796317769 124.21599568379614 15.420106932303423
  endloop
endfacet
facet normal 9.196498835230742e-05 0.7933799460738312 0.6087267471619148
  outer loop
    vertex 340.593161944993 124.4159108171906 14.937710936030925
    vertex 341.5931470101651 124.73359459216775 14.523508831309382
    vertex 340.5931470196487 124.73372995911431 14.523483479451965
  endloop
endfacet
facet normal 9.196498835230742e-05 0.7933799460738312 0.6087267471619148
  outer loop
    vertex 341.5931470101651 124.73359459216775 14.523508831309382
    vertex 340.593161944993 124.4159108171906 14.937710936030925
    vertex 341.59316193550944 124.41577545024406 14.937736288149804
  endloop
endfacet
facet normal 2.8387244440019747e-05 0.38272382102374364 0.9238628015106735
  outer loop
    vertex 340.59313588236483 125.1479296272125 14.205628127311018
    vertex 341.5931292826455 125.63014743165517 14.0058315477353
    vertex 340.59312929212905 125.63028279860174 14.00580619701836
  endloop
endfacet
facet normal 2.8387244440019747e-05 0.38272382102374364 0.9238628015106735
  outer loop
    vertex 341.5931292826455 125.63014743165517 14.0058315477353
    vertex 340.59313588236483 125.1479296272125 14.205628127311018
    vertex 341.59313587288125 125.14779426026595 14.205653478734737
  endloop
endfacet
facet normal -0.00010250680444146953 -0.6087267620523164 0.793379933357063
  outer loop
    vertex 341.5931395755592 127.14779422333044 14.20556605452883
    vertex 340.59315225602603 127.56215703162584 14.523359856090092
    vertex 340.59313958504276 127.14792959027699 14.20554071054601
  endloop
endfacet
facet normal -0.00010250680444146953 -0.6087267620523164 0.793379933357063
  outer loop
    vertex 340.59315225602603 127.56215703162584 14.523359856090092
    vertex 341.5931395755592 127.14779422333044 14.20556605452883
    vertex 341.59315224654245 127.56202166467928 14.523385194811882
  endloop
endfacet
facet normal -0.00013751740296677798 -0.9914391478854048 0.13056951071833872
  outer loop
    vertex 341.5931867848014 128.07969891759853 15.419938058120229
    vertex 340.5932063078354 128.14800524683136 15.937547825972777
    vertex 340.5931867942849 128.07983428454511 15.419912713190877
  endloop
endfacet
facet normal -0.00013751740296677798 -0.9914391478854048 0.13056951071833872
  outer loop
    vertex 340.5932063078354 128.14800524683136 15.937547825972777
    vertex 341.5931867848014 128.07969891759853 15.419938058120229
    vertex 341.5932062983518 128.14786987988478 15.937573171461088
  endloop
endfacet
facet normal -0.00011536732654974901 -0.9238962485142599 -0.38264305647908603
  outer loop
    vertex 341.59322555957084 128.0797441498443 16.455214237458353
    vertex 340.59324326532186 127.88009975034292 16.937559530009505
    vertex 340.5932255690544 128.07987951679084 16.45518889252795
  endloop
endfacet
facet normal -0.00011536732654974901 -0.9238962485142599 -0.38264305647908603
  outer loop
    vertex 340.59324326532186 127.88009975034292 16.937559530009505
    vertex 341.59322555957084 128.0797441498443 16.455214237458353
    vertex 341.59324325583833 127.87996438339637 16.937584872990335
  endloop
endfacet
facet normal -9.197176493787754e-05 -0.7933799383070482 -0.6087267572836754
  outer loop
    vertex 341.59324325583833 127.87996438339637 16.937584872990335
    vertex 340.5932581906663 127.56228060841927 17.351786977903448
    vertex 340.59324326532186 127.88009975034292 16.937559530009505
  endloop
endfacet
facet normal -9.197176493787754e-05 -0.7933799383070482 -0.6087267572836754
  outer loop
    vertex 340.5932581906663 127.56228060841927 17.351786977903448
    vertex 341.59324325583833 127.87996438339637 16.937584872990335
    vertex 341.5932581811827 127.56214524147272 17.35181231662983
  endloop
endfacet
facet normal -2.534585666728568e-05 6.0193693323296125e-05 0.9999999978671534
  outer loop
    vertex 341.58719669889535 88.15920888740416 34.9392654715658
    vertex 340.5927873782492 119.15340623216927 34.93737461219588
    vertex 340.58719670837894 88.15934425435071 34.93924011719499
  endloop
endfacet
facet normal -2.534585666728568e-05 6.0193693323296125e-05 0.9999999978671534
  outer loop
    vertex 340.5927873782492 119.15340623216927 34.93737461219588
    vertex 341.58719669889535 88.15920888740416 34.9392654715658
    vertex 341.5927873687657 119.15327086522272 34.937399965834516
  endloop
endfacet
facet normal -2.5353251804809936e-05 1.0371183877391617e-08 0.9999999996786064
  outer loop
    vertex 341.5934143405577 119.15037883287657 21.93740022332148
    vertex 340.59343843556906 132.14881274958796 21.9373747358714
    vertex 340.59341435004126 119.15051419982312 21.937374869679388
  endloop
endfacet
facet normal -2.5353251804809936e-05 1.0371183877391617e-08 0.9999999996786064
  outer loop
    vertex 340.59343843556906 132.14881274958796 21.9373747358714
    vertex 341.5934143405577 119.15037883287657 21.93740022332148
    vertex 341.59343842608547 132.14867738264138 21.937400088735266
  endloop
endfacet
facet normal 2.5337304421196545e-05 -0.00012066386164290239 -0.9999999923991268
  outer loop
    vertex 340.59279439084446 122.14586888453407 -0.06339711557349434
    vertex 341.59135575755073 108.95186113688177 -0.06177977478249155
    vertex 340.59135576703426 108.95199650382834 -0.06180512893384512
  endloop
endfacet
facet normal 2.5337304421196545e-05 -0.00012066386164290239 -0.9999999923991268
  outer loop
    vertex 341.59135575755073 108.95186113688177 -0.06177977478249155
    vertex 340.59279439084446 122.14586888453407 -0.06339711557349434
    vertex 341.59279438136093 122.14573351758752 -0.06337176244830364
  endloop
endfacet
facet normal -7.45831006255478e-06 0.13056953176779976 0.9914391546223658
  outer loop
    vertex 340.59312929212905 125.63028279860174 14.00580619701836
    vertex 341.59312768857137 126.14778253483153 13.937660572915876
    vertex 340.59312769805496 126.14791790177809 13.937635223378132
  endloop
endfacet
facet normal -7.45831006255478e-06 0.13056953176779976 0.9914391546223658
  outer loop
    vertex 341.59312768857137 126.14778253483153 13.937660572915876
    vertex 340.59312929212905 125.63028279860174 14.00580619701836
    vertex 341.5931292826455 125.63014743165517 14.0058315477353
  endloop
endfacet
facet normal -0.00013538203635606868 -0.9999999754424546 0.0001754616612155161
  outer loop
    vertex 341.5887611012617 85.1558112255549 -0.0592585516782464
    vertex 340.58873856150944 85.15682351944916 4.9383265092552815
    vertex 340.5887611107453 85.15594659250145 -0.059283906070206956
  endloop
endfacet
facet normal -0.00013538203635606868 -0.9999999754424546 0.0001754616612155161
  outer loop
    vertex 340.58873856150944 85.15682351944916 4.9383265092552815
    vertex 341.5887611012617 85.1558112255549 -0.0592585516782464
    vertex 341.5875716302404 85.15967155639217 21.94078335021226
  endloop
endfacet
facet normal -0.00013538203635606868 -0.9999999754424546 0.0001754616612155161
  outer loop
    vertex 340.58873856150944 85.15682351944916 4.9383265092552815
    vertex 341.5875716302404 85.15967155639217 21.94078335021226
    vertex 340.587571639724 85.15980692333872 21.940757995824484
  endloop
endfacet
facet normal -7.521405755595603e-05 -0.3826430583773027 0.9238962518694994
  outer loop
    vertex 341.5931311992926 126.6654235929461 14.005786293636309
    vertex 340.59313958504276 127.14792959027699 14.20554071054601
    vertex 340.5931312087762 126.66555895989266 14.005760946138647
  endloop
endfacet
facet normal -7.521405755595603e-05 -0.3826430583773027 0.9238962518694994
  outer loop
    vertex 340.59313958504276 127.14792959027699 14.20554071054601
    vertex 341.5931311992926 126.6654235929461 14.005786293636309
    vertex 341.5931395755592 127.14779422333044 14.20556605452883
  endloop
endfacet
facet normal -2.535435984014181e-05 1.3610287563611145e-07 0.9999999996785691
  outer loop
    vertex 340.587571639724 85.15980692333872 21.940757995824484
    vertex 341.5864814234858 88.15807202936531 21.940782914470095
    vertex 340.5864814329694 88.15820739631185 21.940757560101808
  endloop
endfacet
facet normal -2.535435984014181e-05 1.3610287563611145e-07 0.9999999996785691
  outer loop
    vertex 341.5864814234858 88.15807202936531 21.940782914470095
    vertex 340.587571639724 85.15980692333872 21.940757995824484
    vertex 341.5875716302404 85.15967155639217 21.94078335021226
  endloop
endfacet
facet normal 2.5339929065829294e-05 -0.00010595408594207154 -0.99999999406581
  outer loop
    vertex 340.59135576703426 108.95199650382834 -0.06180512893384512
    vertex 341.5887611012617 85.1558112255549 -0.0592585516782464
    vertex 340.5887611107453 85.15594659250145 -0.059283906070206956
  endloop
endfacet
facet normal 2.5339929065829294e-05 -0.00010595408594207154 -0.99999999406581
  outer loop
    vertex 341.5887611012617 85.1558112255549 -0.0592585516782464
    vertex 340.59135576703426 108.95199650382834 -0.06180512893384512
    vertex 341.59135575755073 108.95186113688177 -0.06177977478249155
  endloop
endfacet
facet normal 0.00013537133277761242 0.9999999758583719 -0.00017308338471763433
  outer loop
    vertex 340.59278315825674 122.14673427618646 4.936447972687486
    vertex 341.59279438136093 122.14573351758752 -0.06337176244830364
    vertex 340.59279439084446 122.14586888453407 -0.06339711557349434
  endloop
endfacet
facet normal 0.00013537133277761242 0.9999999758583719 -0.00017308338471763433
  outer loop
    vertex 341.59279438136093 122.14573351758752 -0.06337176244830364
    vertex 340.59278315825674 122.14673427618646 4.936447972687486
    vertex 341.5927831487732 122.14659890923991 4.936473325812381
  endloop
endfacet
facet normal 2.534707512552211e-05 -4.373665888822293e-05 -0.9999999987223154
  outer loop
    vertex 340.5938735309275 132.14673417849227 4.936010633869555
    vertex 341.5927831487732 122.14659890923991 4.936473325812381
    vertex 340.59278315825674 122.14673427618646 4.936447972687486
  endloop
endfacet
facet normal 2.534707512552211e-05 -4.373665888822293e-05 -0.9999999987223154
  outer loop
    vertex 341.5927831487732 122.14659890923991 4.936473325812381
    vertex 340.5938735309275 132.14673417849227 4.936010633869555
    vertex 341.5938735214439 132.14659881154572 4.936035986735492
  endloop
endfacet
facet normal 0.0001353700451189518 0.9999999833642581 -0.0001222556113581473
  outer loop
    vertex 340.59343843556906 132.14881274958796 21.9373747358714
    vertex 341.5938735214439 132.14659881154572 4.936035986735492
    vertex 340.5938735309275 132.14673417849227 4.936010633869555
  endloop
endfacet
facet normal 0.0001353700451189518 0.9999999833642581 -0.0001222556113581473
  outer loop
    vertex 341.5938735214439 132.14659881154572 4.936035986735492
    vertex 340.59343843556906 132.14881274958796 21.9373747358714
    vertex 341.59343842608547 132.14867738264138 21.937400088735266
  endloop
endfacet
facet normal 0.00013537258335839797 0.9999999660934629 -0.00022245749466066566
  outer loop
    vertex 340.5927873782492 119.15340623216927 34.93737461219588
    vertex 341.5934143405577 119.15037883287657 21.93740022332148
    vertex 340.59341435004126 119.15051419982312 21.937374869679388
  endloop
endfacet
facet normal 0.00013537258335839797 0.9999999660934629 -0.00022245749466066566
  outer loop
    vertex 341.5934143405577 119.15037883287657 21.93740022332148
    vertex 340.5927873782492 119.15340623216927 34.93737461219588
    vertex 341.5927873687657 119.15327086522272 34.937399965834516
  endloop
endfacet
facet normal -0.0001353691637744567 -0.9999999870122451 8.746827526396993e-05
  outer loop
    vertex 341.5864814234858 88.15807202936531 21.940782914470095
    vertex 340.58719670837894 88.15934425435071 34.93924011719499
    vertex 340.5864814329694 88.15820739631185 21.940757560101808
  endloop
endfacet
facet normal -0.0001353691637744567 -0.9999999870122451 8.746827526396993e-05
  outer loop
    vertex 340.58719670837894 88.15934425435071 34.93924011719499
    vertex 341.5864814234858 88.15807202936531 21.940782914470095
    vertex 341.58719669889535 88.15920888740416 34.9392654715658
  endloop
endfacet
facet normal -2.8392166860219898e-05 -0.38272381498749936 -0.9238628040111255
  outer loop
    vertex 341.5932693184665 127.14794557337454 17.669667666074492
    vertex 340.59327591818584 126.66572776893173 17.869464247286896
    vertex 340.5932693279501 127.1480809403211 17.669642322090844
  endloop
endfacet
facet normal -2.8392166860219898e-05 -0.38272381498749936 -0.9238628040111255
  outer loop
    vertex 340.59327591818584 126.66572776893173 17.869464247286896
    vertex 341.5932693184665 127.14794557337454 17.669667666074492
    vertex 341.5932759087023 126.66559240198518 17.86948959478583
  endloop
endfacet
facet normal -0.0001309025200411615 -0.991450555648527 -0.13048286695485206
  outer loop
    vertex 341.5932062983518 128.14786987988478 15.937573171461088
    vertex 340.5932255690544 128.07987951679084 16.45518889252795
    vertex 340.5932063078354 128.14800524683136 15.937547825972777
  endloop
endfacet
facet normal -0.0001309025200411615 -0.991450555648527 -0.13048286695485206
  outer loop
    vertex 340.5932255690544 128.07987951679084 16.45518889252795
    vertex 341.5932062983518 128.14786987988478 15.937573171461088
    vertex 341.59322555957084 128.0797441498443 16.455214237458353
  endloop
endfacet
facet normal -0.00012281762994274955 -0.7933267409670796 0.6087960799663398
  outer loop
    vertex 341.59315224654245 127.56202166467928 14.523385194811882
    vertex 340.5931683582194 127.88001236835427 14.937559532082755
    vertex 340.59315225602603 127.56215703162584 14.523359856090092
  endloop
endfacet
facet normal -0.00012281762994274955 -0.7933267409670796 0.6087960799663398
  outer loop
    vertex 340.5931683582194 127.88001236835427 14.937559532082755
    vertex 341.59315224654245 127.56202166467928 14.523385194811882
    vertex 341.5931683487358 127.87987700140772 14.937584875061255
  endloop
endfacet
facet normal -4.279486877063056e-05 -0.13048285885160074 0.9914505644329992
  outer loop
    vertex 341.59312768857137 126.14778253483153 13.937660572915876
    vertex 340.5931312087762 126.66555895989266 14.005760946138647
    vertex 340.59312769805496 126.14791790177809 13.937635223378132
  endloop
endfacet
facet normal -4.279486877063056e-05 -0.13048285885160074 0.9914505644329992
  outer loop
    vertex 340.5931312087762 126.66555895989266 14.005760946138647
    vertex 341.59312768857137 126.14778253483153 13.937660572915876
    vertex 341.5931311992926 126.6654235929461 14.005786293636309
  endloop
endfacet
facet normal 6.22987370203608e-05 0.6087961095377569 0.7933267253348767
  outer loop
    vertex 340.5931470196487 124.73372995911431 14.523483479451965
    vertex 341.59313587288125 125.14779426026595 14.205653478734737
    vertex 340.59313588236483 125.1479296272125 14.205628127311018
  endloop
endfacet
facet normal 6.22987370203608e-05 0.6087961095377569 0.7933267253348767
  outer loop
    vertex 341.59313587288125 125.14779426026595 14.205653478734737
    vertex 340.5931470196487 124.73372995911431 14.523483479451965
    vertex 341.5931470101651 124.73359459216775 14.523508831309382
  endloop
endfacet
facet normal 4.279646558764497e-05 0.13048285646490618 -0.9914505647470384
  outer loop
    vertex 340.59327751225993 126.14809266575543 17.937635219228433
    vertex 341.5932739920552 125.63031624069434 17.86953484888425
    vertex 340.59327400153876 125.63045160764091 17.869509498166106
  endloop
endfacet
facet normal 4.279646558764497e-05 0.13048285646490618 -0.9914505647470384
  outer loop
    vertex 341.5932739920552 125.63031624069434 17.86953484888425
    vertex 340.59327751225993 126.14809266575543 17.937635219228433
    vertex 341.59327750277635 126.14795729880888 17.937660568767505
  endloop
endfacet
facet normal 0.00012282441031788704 0.7933267331974035 -0.6087960900896949
  outer loop
    vertex 340.59325295428886 124.73385353590774 17.351910601263466
    vertex 341.593236842612 124.41586283223275 16.937736286075168
    vertex 340.5932368520955 124.41599819917931 16.93771093395576
  endloop
endfacet
facet normal 0.00012282441031788704 0.7933267331974035 -0.6087960900896949
  outer loop
    vertex 341.593236842612 124.41586283223275 16.937736286075168
    vertex 340.59325295428886 124.73385353590774 17.351910601263466
    vertex 341.5932529448053 124.73371816896119 17.351935953121664
  endloop
endfacet
facet normal 0.00013751832651044305 0.9914391477972165 -0.1305695113869968
  outer loop
    vertex 340.59321841602997 124.21617628298846 16.45535775937973
    vertex 341.59319889299593 124.14786995375574 15.937748001297788
    vertex 340.59319890247946 124.1480053207023 15.937722648993658
  endloop
endfacet
facet normal 0.00013751832651044305 0.9914391477972165 -0.1305695113869968
  outer loop
    vertex 341.59319889299593 124.14786995375574 15.937748001297788
    vertex 340.59321841602997 124.21617628298846 16.45535775937973
    vertex 341.5932184065464 124.21604091604189 16.45538311163958
  endloop
endfacet
facet normal 0.00010251496687897673 0.6087267553736909 -0.7933799384802341
  outer loop
    vertex 340.5932656252721 125.14808097725661 17.669729738854688
    vertex 341.5932529448053 124.73371816896119 17.351935953121664
    vertex 340.59325295428886 124.73385353590774 17.351910601263466
  endloop
endfacet
facet normal 0.00010251496687897673 0.6087267553736909 -0.7933799384802341
  outer loop
    vertex 341.5932529448053 124.73371816896119 17.351935953121664
    vertex 340.5932656252721 125.14808097725661 17.669729738854688
    vertex 341.59326561578854 125.14794561031006 17.669755090279416
  endloop
endfacet
facet normal 7.456715825577895e-06 -0.13056952938017471 -0.9914391549368207
  outer loop
    vertex 341.5932759087023 126.66559240198518 17.86948959478583
    vertex 340.59327751225993 126.14809266575543 17.937635219228433
    vertex 340.59327591818584 126.66572776893173 17.869464247286896
  endloop
endfacet
facet normal 7.456715825577895e-06 -0.13056952938017471 -0.9914391549368207
  outer loop
    vertex 340.59327751225993 126.14809266575543 17.937635219228433
    vertex 341.5932759087023 126.66559240198518 17.86948959478583
    vertex 341.59327750277635 126.14795729880888 17.937660568767505
  endloop
endfacet
facet normal 0.9999999904529674 -0.00013705006643150892 1.764495884693115e-05
  outer loop
    vertex 341.5927831487732 122.14659890923991 4.936473325812381
    vertex 341.5931796317769 124.21599568379614 15.420106932303423
    vertex 341.59319889299593 124.14786995375574 15.937748001297788
  endloop
endfacet
facet normal 0.9999999904529674 -0.00013705006643150892 1.764495884693115e-05
  outer loop
    vertex 341.5931796317769 124.21599568379614 15.420106932303423
    vertex 341.5927831487732 122.14659890923991 4.936473325812381
    vertex 341.59316193550944 124.41577545024406 14.937736288149804
  endloop
endfacet
facet normal 0.9999999904529674 -0.00013705006643150892 1.764495884693115e-05
  outer loop
    vertex 341.59316193550944 124.41577545024406 14.937736288149804
    vertex 341.5927831487732 122.14659890923991 4.936473325812381
    vertex 341.5931470101651 124.73359459216775 14.523508831309382
  endloop
endfacet
facet normal 0.9999999904529674 -0.00013705006643150892 1.764495884693115e-05
  outer loop
    vertex 341.5931470101651 124.73359459216775 14.523508831309382
    vertex 341.5927831487732 122.14659890923991 4.936473325812381
    vertex 341.5938735214439 132.14659881154572 4.936035986735492
  endloop
endfacet
facet normal 0.9999999904529674 -0.00013705006643150892 1.764495884693115e-05
  outer loop
    vertex 341.5931470101651 124.73359459216775 14.523508831309382
    vertex 341.5938735214439 132.14659881154572 4.936035986735492
    vertex 341.59313587288125 125.14779426026595 14.205653478734737
  endloop
endfacet
facet normal 0.9999999904529674 -0.00013705006643150892 1.764495884693115e-05
  outer loop
    vertex 341.59313587288125 125.14779426026595 14.205653478734737
    vertex 341.5938735214439 132.14659881154572 4.936035986735492
    vertex 341.5931292826455 125.63014743165517 14.0058315477353
  endloop
endfacet
facet normal 0.9999999904529674 -0.00013705006643150892 1.764495884693115e-05
  outer loop
    vertex 341.5931292826455 125.63014743165517 14.0058315477353
    vertex 341.5938735214439 132.14659881154572 4.936035986735492
    vertex 341.59312768857137 126.14778253483153 13.937660572915876
  endloop
endfacet
facet normal 0.9999999904529674 -0.00013705006643150892 1.764495884693115e-05
  outer loop
    vertex 341.59312768857137 126.14778253483153 13.937660572915876
    vertex 341.5938735214439 132.14659881154572 4.936035986735492
    vertex 341.5931311992926 126.6654235929461 14.005786293636309
  endloop
endfacet
facet normal 0.9999999904529674 -0.00013705006643150892 1.764495884693115e-05
  outer loop
    vertex 341.5931311992926 126.6654235929461 14.005786293636309
    vertex 341.5938735214439 132.14659881154572 4.936035986735492
    vertex 341.5931395755592 127.14779422333044 14.20556605452883
  endloop
endfacet
facet normal 0.9999999904529674 -0.00013705006643150892 1.764495884693115e-05
  outer loop
    vertex 341.5931395755592 127.14779422333044 14.20556605452883
    vertex 341.5938735214439 132.14659881154572 4.936035986735492
    vertex 341.59315224654245 127.56202166467928 14.523385194811882
  endloop
endfacet
facet normal 0.9999999904529674 -0.00013705006643150892 1.764495884693115e-05
  outer loop
    vertex 341.59315224654245 127.56202166467928 14.523385194811882
    vertex 341.5938735214439 132.14659881154572 4.936035986735492
    vertex 341.5931683487358 127.87987700140772 14.937584875061255
  endloop
endfacet
facet normal 0.9999999904529674 -0.00013705006643150892 1.764495884693115e-05
  outer loop
    vertex 341.5931683487358 127.87987700140772 14.937584875061255
    vertex 341.5938735214439 132.14659881154572 4.936035986735492
    vertex 341.5931867848014 128.07969891759853 15.419938058120229
  endloop
endfacet
facet normal 0.9999999904529674 -0.00013705006643150892 1.764495884693115e-05
  outer loop
    vertex 341.5931867848014 128.07969891759853 15.419938058120229
    vertex 341.5938735214439 132.14659881154572 4.936035986735492
    vertex 341.5932062983518 128.14786987988478 15.937573171461088
  endloop
endfacet
facet normal 0.9999999904529674 -0.00013705006643150892 1.764495884693115e-05
  outer loop
    vertex 341.59279438136093 122.14573351758752 -0.06337176244830364
    vertex 341.5934143405577 119.15037883287657 21.93740022332148
    vertex 341.59135575755073 108.95186113688177 -0.06177977478249155
  endloop
endfacet
facet normal 0.9999999904529674 -0.00013705006643150892 1.764495884693115e-05
  outer loop
    vertex 341.5934143405577 119.15037883287657 21.93740022332148
    vertex 341.59279438136093 122.14573351758752 -0.06337176244830364
    vertex 341.5927831487732 122.14659890923991 4.936473325812381
  endloop
endfacet
facet normal 0.9999999904529674 -0.00013705006643150892 1.764495884693115e-05
  outer loop
    vertex 341.5934143405577 119.15037883287657 21.93740022332148
    vertex 341.5927831487732 122.14659890923991 4.936473325812381
    vertex 341.5932184065464 124.21604091604189 16.45538311163958
  endloop
endfacet
facet normal 0.9999999904529674 -0.00013705006643150892 1.764495884693115e-05
  outer loop
    vertex 341.5934143405577 119.15037883287657 21.93740022332148
    vertex 341.5932184065464 124.21604091604189 16.45538311163958
    vertex 341.593236842612 124.41586283223275 16.937736286075168
  endloop
endfacet
facet normal 0.9999999904529674 -0.00013705006643150892 1.764495884693115e-05
  outer loop
    vertex 341.5934143405577 119.15037883287657 21.93740022332148
    vertex 341.593236842612 124.41586283223275 16.937736286075168
    vertex 341.5932529448053 124.73371816896119 17.351935953121664
  endloop
endfacet
facet normal 0.9999999904529674 -0.00013705006643150892 1.764495884693115e-05
  outer loop
    vertex 341.5934143405577 119.15037883287657 21.93740022332148
    vertex 341.5932529448053 124.73371816896119 17.351935953121664
    vertex 341.59326561578854 125.14794561031006 17.669755090279416
  endloop
endfacet
facet normal 0.9999999904529674 -0.00013705006643150892 1.764495884693115e-05
  outer loop
    vertex 341.5934143405577 119.15037883287657 21.93740022332148
    vertex 341.59326561578854 125.14794561031006 17.669755090279416
    vertex 341.59343842608547 132.14867738264138 21.937400088735266
  endloop
endfacet
facet normal 0.9999999904529674 -0.00013705006643150892 1.764495884693115e-05
  outer loop
    vertex 341.5932184065464 124.21604091604189 16.45538311163958
    vertex 341.5927831487732 122.14659890923991 4.936473325812381
    vertex 341.59319889299593 124.14786995375574 15.937748001297788
  endloop
endfacet
facet normal 0.9999999904529674 -0.00013705006643150892 1.764495884693115e-05
  outer loop
    vertex 341.59343842608547 132.14867738264138 21.937400088735266
    vertex 341.59326561578854 125.14794561031006 17.669755090279416
    vertex 341.5932739920552 125.63031624069434 17.86953484888425
  endloop
endfacet
facet normal 0.9999999904529674 -0.00013705006643150892 1.764495884693115e-05
  outer loop
    vertex 341.59343842608547 132.14867738264138 21.937400088735266
    vertex 341.5932739920552 125.63031624069434 17.86953484888425
    vertex 341.59327750277635 126.14795729880888 17.937660568767505
  endloop
endfacet
facet normal 0.9999999904529674 -0.00013705006643150892 1.764495884693115e-05
  outer loop
    vertex 341.59343842608547 132.14867738264138 21.937400088735266
    vertex 341.59327750277635 126.14795729880888 17.937660568767505
    vertex 341.5932759087023 126.66559240198518 17.86948959478583
  endloop
endfacet
facet normal 0.9999999904529674 -0.00013705006643150892 1.764495884693115e-05
  outer loop
    vertex 341.59343842608547 132.14867738264138 21.937400088735266
    vertex 341.5932759087023 126.66559240198518 17.86948959478583
    vertex 341.5932693184665 127.14794557337454 17.669667666074492
  endloop
endfacet
facet normal 0.9999999904529674 -0.00013705006643150892 1.764495884693115e-05
  outer loop
    vertex 341.59343842608547 132.14867738264138 21.937400088735266
    vertex 341.5932693184665 127.14794557337454 17.669667666074492
    vertex 341.5932581811827 127.56214524147272 17.35181231662983
  endloop
endfacet
facet normal 0.9999999904529674 -0.00013705006643150892 1.764495884693115e-05
  outer loop
    vertex 341.59343842608547 132.14867738264138 21.937400088735266
    vertex 341.5932581811827 127.56214524147272 17.35181231662983
    vertex 341.59324325583833 127.87996438339637 16.937584872990335
  endloop
endfacet
facet normal 0.9999999904529674 -0.00013705006643150892 1.764495884693115e-05
  outer loop
    vertex 341.59343842608547 132.14867738264138 21.937400088735266
    vertex 341.59324325583833 127.87996438339637 16.937584872990335
    vertex 341.59322555957084 128.0797441498443 16.455214237458353
  endloop
endfacet
facet normal 0.9999999904529674 -0.00013705006643150892 1.764495884693115e-05
  outer loop
    vertex 341.59343842608547 132.14867738264138 21.937400088735266
    vertex 341.59322555957084 128.0797441498443 16.455214237458353
    vertex 341.5932062983518 128.14786987988478 15.937573171461088
  endloop
endfacet
facet normal 0.9999999904529674 -0.00013705006643150892 1.764495884693115e-05
  outer loop
    vertex 341.59343842608547 132.14867738264138 21.937400088735266
    vertex 341.5932062983518 128.14786987988478 15.937573171461088
    vertex 341.5938735214439 132.14659881154572 4.936035986735492
  endloop
endfacet
facet normal 0.9999999904529674 -0.00013705006643150892 1.764495884693115e-05
  outer loop
    vertex 341.59135575755073 108.95186113688177 -0.06177977478249155
    vertex 341.5875716302404 85.15967155639217 21.94078335021226
    vertex 341.5887611012617 85.1558112255549 -0.0592585516782464
  endloop
endfacet
facet normal 0.9999999904529674 -0.00013705006643150892 1.764495884693115e-05
  outer loop
    vertex 341.5875716302404 85.15967155639217 21.94078335021226
    vertex 341.59135575755073 108.95186113688177 -0.06177977478249155
    vertex 341.5864814234858 88.15807202936531 21.940782914470095
  endloop
endfacet
facet normal 0.9999999904529674 -0.00013705006643150892 1.764495884693115e-05
  outer loop
    vertex 341.5864814234858 88.15807202936531 21.940782914470095
    vertex 341.59135575755073 108.95186113688177 -0.06177977478249155
    vertex 341.58719669889535 88.15920888740416 34.9392654715658
  endloop
endfacet
facet normal 0.9999999904529674 -0.00013705006643150892 1.764495884693115e-05
  outer loop
    vertex 341.58719669889535 88.15920888740416 34.9392654715658
    vertex 341.59135575755073 108.95186113688177 -0.06177977478249155
    vertex 341.5927873687657 119.15327086522272 34.937399965834516
  endloop
endfacet
facet normal 0.9999999904529674 -0.00013705006643150892 1.764495884693115e-05
  outer loop
    vertex 341.5927873687657 119.15327086522272 34.937399965834516
    vertex 341.59135575755073 108.95186113688177 -0.06177977478249155
    vertex 341.5934143405577 119.15037883287657 21.93740022332148
  endloop
endfacet
facet normal -0.9999999905164284 0.00013536694449794447 -2.535613721254635e-05
  outer loop
    vertex 340.59341435004126 119.15051419982312 21.937374869679388
    vertex 340.59279439084446 122.14586888453407 -0.06339711557349434
    vertex 340.59135576703426 108.95199650382834 -0.06180512893384512
  endloop
endfacet
facet normal -0.9999999905164284 0.00013536694449794447 -2.535613721254635e-05
  outer loop
    vertex 340.59279439084446 122.14586888453407 -0.06339711557349434
    vertex 340.59341435004126 119.15051419982312 21.937374869679388
    vertex 340.59278315825674 122.14673427618646 4.936447972687486
  endloop
endfacet
facet normal -0.9999999905164284 0.00013536694449794447 -2.535613721254635e-05
  outer loop
    vertex 340.59278315825674 122.14673427618646 4.936447972687486
    vertex 340.59341435004126 119.15051419982312 21.937374869679388
    vertex 340.59321841602997 124.21617628298846 16.45535775937973
  endloop
endfacet
facet normal -0.9999999905164284 0.00013536694449794447 -2.535613721254635e-05
  outer loop
    vertex 340.59321841602997 124.21617628298846 16.45535775937973
    vertex 340.59341435004126 119.15051419982312 21.937374869679388
    vertex 340.5932368520955 124.41599819917931 16.93771093395576
  endloop
endfacet
facet normal -0.9999999905164284 0.00013536694449794447 -2.535613721254635e-05
  outer loop
    vertex 340.5932368520955 124.41599819917931 16.93771093395576
    vertex 340.59341435004126 119.15051419982312 21.937374869679388
    vertex 340.59325295428886 124.73385353590774 17.351910601263466
  endloop
endfacet
facet normal -0.9999999905164284 0.00013536694449794447 -2.535613721254635e-05
  outer loop
    vertex 340.59325295428886 124.73385353590774 17.351910601263466
    vertex 340.59341435004126 119.15051419982312 21.937374869679388
    vertex 340.5932656252721 125.14808097725661 17.669729738854688
  endloop
endfacet
facet normal -0.9999999905164284 0.00013536694449794447 -2.535613721254635e-05
  outer loop
    vertex 340.5932656252721 125.14808097725661 17.669729738854688
    vertex 340.59341435004126 119.15051419982312 21.937374869679388
    vertex 340.59343843556906 132.14881274958796 21.9373747358714
  endloop
endfacet
facet normal -0.9999999905164284 0.00013536694449794447 -2.535613721254635e-05
  outer loop
    vertex 340.59278315825674 122.14673427618646 4.936447972687486
    vertex 340.59321841602997 124.21617628298846 16.45535775937973
    vertex 340.59319890247946 124.1480053207023 15.937722648993658
  endloop
endfacet
facet normal -0.9999999905164284 0.00013536694449794447 -2.535613721254635e-05
  outer loop
    vertex 340.5932656252721 125.14808097725661 17.669729738854688
    vertex 340.59343843556906 132.14881274958796 21.9373747358714
    vertex 340.59327400153876 125.63045160764091 17.869509498166106
  endloop
endfacet
facet normal -0.9999999905164284 0.00013536694449794447 -2.535613721254635e-05
  outer loop
    vertex 340.59327400153876 125.63045160764091 17.869509498166106
    vertex 340.59343843556906 132.14881274958796 21.9373747358714
    vertex 340.59327751225993 126.14809266575543 17.937635219228433
  endloop
endfacet
facet normal -0.9999999905164284 0.00013536694449794447 -2.535613721254635e-05
  outer loop
    vertex 340.59327751225993 126.14809266575543 17.937635219228433
    vertex 340.59343843556906 132.14881274958796 21.9373747358714
    vertex 340.59327591818584 126.66572776893173 17.869464247286896
  endloop
endfacet
facet normal -0.9999999905164284 0.00013536694449794447 -2.535613721254635e-05
  outer loop
    vertex 340.59327591818584 126.66572776893173 17.869464247286896
    vertex 340.59343843556906 132.14881274958796 21.9373747358714
    vertex 340.5932693279501 127.1480809403211 17.669642322090844
  endloop
endfacet
facet normal -0.9999999905164284 0.00013536694449794447 -2.535613721254635e-05
  outer loop
    vertex 340.5932693279501 127.1480809403211 17.669642322090844
    vertex 340.59343843556906 132.14881274958796 21.9373747358714
    vertex 340.5932581906663 127.56228060841927 17.351786977903448
  endloop
endfacet
facet normal -0.9999999905164284 0.00013536694449794447 -2.535613721254635e-05
  outer loop
    vertex 340.5932581906663 127.56228060841927 17.351786977903448
    vertex 340.59343843556906 132.14881274958796 21.9373747358714
    vertex 340.59324326532186 127.88009975034292 16.937559530009505
  endloop
endfacet
facet normal -0.9999999905164284 0.00013536694449794447 -2.535613721254635e-05
  outer loop
    vertex 340.59324326532186 127.88009975034292 16.937559530009505
    vertex 340.59343843556906 132.14881274958796 21.9373747358714
    vertex 340.5932255690544 128.07987951679084 16.45518889252795
  endloop
endfacet
facet normal -0.9999999905164284 0.00013536694449794447 -2.535613721254635e-05
  outer loop
    vertex 340.5932255690544 128.07987951679084 16.45518889252795
    vertex 340.59343843556906 132.14881274958796 21.9373747358714
    vertex 340.5932063078354 128.14800524683136 15.937547825972777
  endloop
endfacet
facet normal -0.9999999905164284 0.00013536694449794447 -2.535613721254635e-05
  outer loop
    vertex 340.5932063078354 128.14800524683136 15.937547825972777
    vertex 340.59343843556906 132.14881274958796 21.9373747358714
    vertex 340.5938735309275 132.14673417849227 4.936010633869555
  endloop
endfacet
facet normal -0.9999999905164284 0.00013536694449794447 -2.535613721254635e-05
  outer loop
    vertex 340.59278315825674 122.14673427618646 4.936447972687486
    vertex 340.5931470196487 124.73372995911431 14.523483479451965
    vertex 340.5938735309275 132.14673417849227 4.936010633869555
  endloop
endfacet
facet normal -0.9999999905164284 0.00013536694449794447 -2.535613721254635e-05
  outer loop
    vertex 340.5931470196487 124.73372995911431 14.523483479451965
    vertex 340.59278315825674 122.14673427618646 4.936447972687486
    vertex 340.593161944993 124.4159108171906 14.937710936030925
  endloop
endfacet
facet normal -0.9999999905164284 0.00013536694449794447 -2.535613721254635e-05
  outer loop
    vertex 340.593161944993 124.4159108171906 14.937710936030925
    vertex 340.59278315825674 122.14673427618646 4.936447972687486
    vertex 340.5931796412604 124.2161310507427 15.420081580043842
  endloop
endfacet
facet normal -0.9999999905164284 0.00013536694449794447 -2.535613721254635e-05
  outer loop
    vertex 340.5931796412604 124.2161310507427 15.420081580043842
    vertex 340.59278315825674 122.14673427618646 4.936447972687486
    vertex 340.59319890247946 124.1480053207023 15.937722648993658
  endloop
endfacet
facet normal -0.9999999905164284 0.00013536694449794447 -2.535613721254635e-05
  outer loop
    vertex 340.5938735309275 132.14673417849227 4.936010633869555
    vertex 340.5931470196487 124.73372995911431 14.523483479451965
    vertex 340.59313588236483 125.1479296272125 14.205628127311018
  endloop
endfacet
facet normal -0.9999999905164284 0.00013536694449794447 -2.535613721254635e-05
  outer loop
    vertex 340.5938735309275 132.14673417849227 4.936010633869555
    vertex 340.59313588236483 125.1479296272125 14.205628127311018
    vertex 340.59312929212905 125.63028279860174 14.00580619701836
  endloop
endfacet
facet normal -0.9999999905164284 0.00013536694449794447 -2.535613721254635e-05
  outer loop
    vertex 340.5938735309275 132.14673417849227 4.936010633869555
    vertex 340.59312929212905 125.63028279860174 14.00580619701836
    vertex 340.59312769805496 126.14791790177809 13.937635223378132
  endloop
endfacet
facet normal -0.9999999905164284 0.00013536694449794447 -2.535613721254635e-05
  outer loop
    vertex 340.5938735309275 132.14673417849227 4.936010633869555
    vertex 340.59312769805496 126.14791790177809 13.937635223378132
    vertex 340.5931312087762 126.66555895989266 14.005760946138647
  endloop
endfacet
facet normal -0.9999999905164284 0.00013536694449794447 -2.535613721254635e-05
  outer loop
    vertex 340.5938735309275 132.14673417849227 4.936010633869555
    vertex 340.5931312087762 126.66555895989266 14.005760946138647
    vertex 340.59313958504276 127.14792959027699 14.20554071054601
  endloop
endfacet
facet normal -0.9999999905164284 0.00013536694449794447 -2.535613721254635e-05
  outer loop
    vertex 340.5938735309275 132.14673417849227 4.936010633869555
    vertex 340.59313958504276 127.14792959027699 14.20554071054601
    vertex 340.59315225602603 127.56215703162584 14.523359856090092
  endloop
endfacet
facet normal -0.9999999905164284 0.00013536694449794447 -2.535613721254635e-05
  outer loop
    vertex 340.5938735309275 132.14673417849227 4.936010633869555
    vertex 340.59315225602603 127.56215703162584 14.523359856090092
    vertex 340.5931683582194 127.88001236835427 14.937559532082755
  endloop
endfacet
facet normal -0.9999999905164284 0.00013536694449794447 -2.535613721254635e-05
  outer loop
    vertex 340.5938735309275 132.14673417849227 4.936010633869555
    vertex 340.5931683582194 127.88001236835427 14.937559532082755
    vertex 340.5931867942849 128.07983428454511 15.419912713190877
  endloop
endfacet
facet normal -0.9999999905164284 0.00013536694449794447 -2.535613721254635e-05
  outer loop
    vertex 340.5938735309275 132.14673417849227 4.936010633869555
    vertex 340.5931867942849 128.07983428454511 15.419912713190877
    vertex 340.5932063078354 128.14800524683136 15.937547825972777
  endloop
endfacet
facet normal -0.9999999905164284 0.00013536694449794447 -2.535613721254635e-05
  outer loop
    vertex 340.58873856150944 85.15682351944916 4.9383265092552815
    vertex 340.59135576703426 108.95199650382834 -0.06180512893384512
    vertex 340.5887611107453 85.15594659250145 -0.059283906070206956
  endloop
endfacet
facet normal -0.9999999905164284 0.00013536694449794447 -2.535613721254635e-05
  outer loop
    vertex 340.59135576703426 108.95199650382834 -0.06180512893384512
    vertex 340.58873856150944 85.15682351944916 4.9383265092552815
    vertex 340.587571639724 85.15980692333872 21.940757995824484
  endloop
endfacet
facet normal -0.9999999905164284 0.00013536694449794447 -2.535613721254635e-05
  outer loop
    vertex 340.59135576703426 108.95199650382834 -0.06180512893384512
    vertex 340.587571639724 85.15980692333872 21.940757995824484
    vertex 340.5864814329694 88.15820739631185 21.940757560101808
  endloop
endfacet
facet normal -0.9999999905164284 0.00013536694449794447 -2.535613721254635e-05
  outer loop
    vertex 340.59135576703426 108.95199650382834 -0.06180512893384512
    vertex 340.5864814329694 88.15820739631185 21.940757560101808
    vertex 340.58719670837894 88.15934425435071 34.93924011719499
  endloop
endfacet
facet normal -0.9999999905164284 0.00013536694449794447 -2.535613721254635e-05
  outer loop
    vertex 340.59135576703426 108.95199650382834 -0.06180512893384512
    vertex 340.58719670837894 88.15934425435071 34.93924011719499
    vertex 340.5927873782492 119.15340623216927 34.93737461219588
  endloop
endfacet
facet normal -0.9999999905164284 0.00013536694449794447 -2.535613721254635e-05
  outer loop
    vertex 340.59135576703426 108.95199650382834 -0.06180512893384512
    vertex 340.5927873782492 119.15340623216927 34.93737461219588
    vertex 340.59341435004126 119.15051419982312 21.937374869679388
  endloop
endfacet
endsolid print list 10
