solid print list 11
facet normal 0.0 -0.024992191160203004 -0.9996876464081228
  outer loop
    vertex 52.45872647544454 112.28204833604845 3.2499999999999996
    vertex 33.65872647544449 108.28204833604845 3.3499999999999996
    vertex 33.55872647544451 112.28204833604845 3.2499999999999996
  endloop
endfacet
facet normal 0.0 -0.024992191160203004 -0.9996876464081228
  outer loop
    vertex 33.65872647544449 108.28204833604845 3.3499999999999996
    vertex 52.45872647544454 112.28204833604845 3.2499999999999996
    vertex 52.35872647544457 108.28204833604845 3.3499999999999996
  endloop
endfacet
facet normal 0.999687646408123 -0.024992191160197363 0.0
  outer loop
    vertex 52.45872647544454 112.28204833604845 3.2499999999999996
    vertex 52.35872647544457 108.28204833604845 22.05
    vertex 52.35872647544457 108.28204833604845 3.3499999999999996
  endloop
endfacet
facet normal 0.999687646408123 -0.024992191160197363 0.0
  outer loop
    vertex 52.35872647544457 108.28204833604845 22.05
    vertex 52.45872647544454 112.28204833604845 3.2499999999999996
    vertex 52.45872647544454 112.28204833604845 22.15
  endloop
endfacet
facet normal 1.0 0.0 0.0
  outer loop
    vertex 35.658726475444396 117.28204833604843 5.35
    vertex 35.658726475444396 108.28204833604845 20.05
    vertex 35.658726475444396 108.28204833604845 5.35
  endloop
endfacet
facet normal 1.0 0.0 0.0
  outer loop
    vertex 35.658726475444396 108.28204833604845 20.05
    vertex 35.658726475444396 117.28204833604843 5.35
    vertex 35.658726475444396 117.28204833604843 20.05
  endloop
endfacet
facet normal 4.79586136487729e-17 0.0 1.0
  outer loop
    vertex 50.35872647544466 108.28204833604845 5.349999999999999
    vertex 35.658726475444396 117.28204833604843 5.35
    vertex 35.658726475444396 108.28204833604845 5.35
  endloop
endfacet
facet normal 4.79586136487729e-17 0.0 1.0
  outer loop
    vertex 35.658726475444396 117.28204833604843 5.35
    vertex 50.35872647544466 108.28204833604845 5.349999999999999
    vertex 50.35872647544466 117.28204833604843 5.349999999999999
  endloop
endfacet
facet normal -0.999687646408123 -0.024992191160197363 0.0
  outer loop
    vertex 33.55872647544451 112.28204833604845 22.15
    vertex 33.65872647544449 108.28204833604845 3.3499999999999996
    vertex 33.65872647544449 108.28204833604845 22.05
  endloop
endfacet
facet normal -0.999687646408123 -0.024992191160197363 0.0
  outer loop
    vertex 33.65872647544449 108.28204833604845 3.3499999999999996
    vertex 33.55872647544451 112.28204833604845 22.15
    vertex 33.55872647544451 112.28204833604845 3.2499999999999996
  endloop
endfacet
facet normal -0.030754675786974064 -0.9995269630766537 0.0
  outer loop
    vertex 55.70872647544453 112.18204833604847 25.4
    vertex 52.45872647544454 112.28204833604845 3.2499999999999996
    vertex 55.70872647544453 112.18204833604847 0.0
  endloop
endfacet
facet normal -0.030754675786974064 -0.9995269630766537 0.0
  outer loop
    vertex 52.45872647544454 112.28204833604845 3.2499999999999996
    vertex 55.70872647544453 112.18204833604847 25.4
    vertex 52.45872647544454 112.28204833604845 22.15
  endloop
endfacet
facet normal -0.0 -0.0 -1.0
  outer loop
    vertex 50.35872647544466 117.28204833604843 20.05
    vertex 35.658726475444396 108.28204833604845 20.05
    vertex 35.658726475444396 117.28204833604843 20.05
  endloop
endfacet
facet normal -0.0 -0.0 -1.0
  outer loop
    vertex 35.658726475444396 108.28204833604845 20.05
    vertex 50.35872647544466 117.28204833604843 20.05
    vertex 50.35872647544466 108.28204833604845 20.05
  endloop
endfacet
facet normal -1.0 0.0 0.0
  outer loop
    vertex 50.35872647544466 117.28204833604843 20.05
    vertex 50.35872647544466 108.28204833604845 5.349999999999999
    vertex 50.35872647544466 108.28204833604845 20.05
  endloop
endfacet
facet normal -1.0 0.0 0.0
  outer loop
    vertex 50.35872647544466 108.28204833604845 5.349999999999999
    vertex 50.35872647544466 117.28204833604843 20.05
    vertex 50.35872647544466 117.28204833604843 5.349999999999999
  endloop
endfacet
facet normal 0.0 -1.0 0.0
  outer loop
    vertex 52.35872647544457 108.28204833604845 3.3499999999999996
    vertex 50.35872647544466 108.28204833604845 5.349999999999999
    vertex 33.65872647544449 108.28204833604845 3.3499999999999996
  endloop
endfacet
facet normal 0.0 -1.0 0.0
  outer loop
    vertex 50.35872647544466 108.28204833604845 5.349999999999999
    vertex 52.35872647544457 108.28204833604845 3.3499999999999996
    vertex 52.35872647544457 108.28204833604845 22.05
  endloop
endfacet
facet normal 0.0 -1.0 0.0
  outer loop
    vertex 50.35872647544466 108.28204833604845 5.349999999999999
    vertex 52.35872647544457 108.28204833604845 22.05
    vertex 50.35872647544466 108.28204833604845 20.05
  endloop
endfacet
facet normal 0.0 -1.0 0.0
  outer loop
    vertex 50.35872647544466 108.28204833604845 20.05
    vertex 52.35872647544457 108.28204833604845 22.05
    vertex 35.658726475444396 108.28204833604845 20.05
  endloop
endfacet
facet normal 0.0 -1.0 0.0
  outer loop
    vertex 33.65872647544449 108.28204833604845 3.3499999999999996
    vertex 35.658726475444396 108.28204833604845 5.35
    vertex 33.65872647544449 108.28204833604845 22.05
  endloop
endfacet
facet normal 0.0 -1.0 0.0
  outer loop
    vertex 35.658726475444396 108.28204833604845 5.35
    vertex 33.65872647544449 108.28204833604845 3.3499999999999996
    vertex 50.35872647544466 108.28204833604845 5.349999999999999
  endloop
endfacet
facet normal 0.0 -1.0 0.0
  outer loop
    vertex 33.65872647544449 108.28204833604845 22.05
    vertex 35.658726475444396 108.28204833604845 5.35
    vertex 35.658726475444396 108.28204833604845 20.05
  endloop
endfacet
facet normal 0.0 -1.0 0.0
  outer loop
    vertex 33.65872647544449 108.28204833604845 22.05
    vertex 35.658726475444396 108.28204833604845 20.05
    vertex 52.35872647544457 108.28204833604845 22.05
  endloop
endfacet
facet normal 0.0 -0.024992191160203004 0.9996876464081228
  outer loop
    vertex 33.65872647544449 108.28204833604845 22.05
    vertex 52.45872647544454 112.28204833604845 22.15
    vertex 33.55872647544451 112.28204833604845 22.15
  endloop
endfacet
facet normal 0.0 -0.024992191160203004 0.9996876464081228
  outer loop
    vertex 52.45872647544454 112.28204833604845 22.15
    vertex 33.65872647544449 108.28204833604845 22.05
    vertex 52.35872647544457 108.28204833604845 22.05
  endloop
endfacet
facet normal 0.0 -0.9995269630766537 -0.030754675786973905
  outer loop
    vertex 55.70872647544453 112.18204833604847 25.4
    vertex 33.55872647544451 112.28204833604845 22.15
    vertex 52.45872647544454 112.28204833604845 22.15
  endloop
endfacet
facet normal 0.0 -0.9995269630766537 -0.030754675786973905
  outer loop
    vertex 33.55872647544451 112.28204833604845 22.15
    vertex 55.70872647544453 112.18204833604847 25.4
    vertex 30.30872647544453 112.18204833604847 25.4
  endloop
endfacet
facet normal 0.0 -0.9995269630766537 0.030754675786973905
  outer loop
    vertex 52.45872647544454 112.28204833604845 3.2499999999999996
    vertex 30.30872647544453 112.18204833604847 0.0
    vertex 55.70872647544453 112.18204833604847 0.0
  endloop
endfacet
facet normal 0.0 -0.9995269630766537 0.030754675786973905
  outer loop
    vertex 30.30872647544453 112.18204833604847 0.0
    vertex 52.45872647544454 112.28204833604845 3.2499999999999996
    vertex 33.55872647544451 112.28204833604845 3.2499999999999996
  endloop
endfacet
facet normal 0.03075467578697407 -0.9995269630766537 0.0
  outer loop
    vertex 33.55872647544451 112.28204833604845 3.2499999999999996
    vertex 30.30872647544453 112.18204833604847 25.4
    vertex 30.30872647544453 112.18204833604847 0.0
  endloop
endfacet
facet normal 0.03075467578697407 -0.9995269630766537 0.0
  outer loop
    vertex 30.30872647544453 112.18204833604847 25.4
    vertex 33.55872647544451 112.28204833604845 3.2499999999999996
    vertex 33.55872647544451 112.28204833604845 22.15
  endloop
endfacet
facet normal -0.0 -0.0 1.0
  outer loop
    vertex 30.30872647544453 112.18204833604847 25.4
    vertex 20.308726475444537 117.18204833604845 25.4
    vertex 20.308726475444537 112.18204833604847 25.4
  endloop
endfacet
facet normal -0.0 -0.0 1.0
  outer loop
    vertex 20.308726475444537 117.18204833604845 25.4
    vertex 30.30872647544453 112.18204833604847 25.4
    vertex 30.30872647544453 117.28204833604846 25.4
  endloop
endfacet
facet normal -0.0 -0.0 1.0
  outer loop
    vertex 30.30872647544453 117.28204833604846 25.4
    vertex 30.30872647544453 112.18204833604847 25.4
    vertex 55.70872647544453 112.18204833604847 25.4
  endloop
endfacet
facet normal -0.0 -0.0 1.0
  outer loop
    vertex 30.30872647544453 117.28204833604846 25.4
    vertex 55.70872647544453 112.18204833604847 25.4
    vertex 55.70872647544453 117.28204833604846 25.4
  endloop
endfacet
facet normal 1.0 0.0 0.0
  outer loop
    vertex 55.70872647544453 117.28204833604846 0.0
    vertex 55.70872647544453 112.18204833604847 25.4
    vertex 55.70872647544453 112.18204833604847 0.0
  endloop
endfacet
facet normal 1.0 0.0 0.0
  outer loop
    vertex 55.70872647544453 112.18204833604847 25.4
    vertex 55.70872647544453 117.28204833604846 0.0
    vertex 55.70872647544453 117.28204833604846 25.4
  endloop
endfacet
facet normal 0.0 0.0 -1.0
  outer loop
    vertex 55.70872647544453 117.28204833604846 0.0
    vertex 30.30872647544453 112.18204833604847 0.0
    vertex 30.30872647544453 117.28204833604846 0.0
  endloop
endfacet
facet normal 0.0 0.0 -1.0
  outer loop
    vertex 30.30872647544453 112.18204833604847 0.0
    vertex 55.70872647544453 117.28204833604846 0.0
    vertex 55.70872647544453 112.18204833604847 0.0
  endloop
endfacet
facet normal 7.119019482260455e-17 -1.3820655178141064e-16 -1.0
  outer loop
    vertex 30.30872647544453 117.28204833604846 0.0
    vertex 20.308726475444537 112.18204833604847 0.0
    vertex 20.308726475444537 117.18204833604845 -1.4099832412739487e-15
  endloop
endfacet
facet normal 7.119019482260455e-17 -1.3820655178141064e-16 -1.0
  outer loop
    vertex 20.308726475444537 112.18204833604847 0.0
    vertex 30.30872647544453 117.28204833604846 0.0
    vertex 30.30872647544453 112.18204833604847 0.0
  endloop
endfacet
facet normal -1.0 0.0 0.0
  outer loop
    vertex 20.308726475444537 117.18204833604845 25.4
    vertex 20.308726475444537 112.18204833604847 0.0
    vertex 20.308726475444537 112.18204833604847 25.4
  endloop
endfacet
facet normal -1.0 0.0 0.0
  outer loop
    vertex 20.308726475444537 112.18204833604847 0.0
    vertex 20.308726475444537 117.18204833604845 25.4
    vertex 20.308726475444537 117.18204833604845 -1.4099832412739487e-15
  endloop
endfacet
facet normal 0.0 -1.0 0.0
  outer loop
    vertex 30.30872647544453 112.18204833604847 25.4
    vertex 20.308726475444537 112.18204833604847 0.0
    vertex 30.30872647544453 112.18204833604847 0.0
  endloop
endfacet
facet normal 0.0 -1.0 0.0
  outer loop
    vertex 20.308726475444537 112.18204833604847 0.0
    vertex 30.30872647544453 112.18204833604847 25.4
    vertex 20.308726475444537 112.18204833604847 25.4
  endloop
endfacet
facet normal -0.00999950003749687 0.9999500037496877 -0.0
  outer loop
    vertex 20.308726475444537 117.18204833604845 25.4
    vertex 30.30872647544453 117.28204833604846 0.0
    vertex 20.308726475444537 117.18204833604845 -1.4099832412739487e-15
  endloop
endfacet
facet normal -0.00999950003749687 0.9999500037496877 -0.0
  outer loop
    vertex 30.30872647544453 117.28204833604846 0.0
    vertex 20.308726475444537 117.18204833604845 25.4
    vertex 30.30872647544453 117.28204833604846 25.4
  endloop
endfacet
facet normal -0.0 1.0 -0.0
  outer loop
    vertex 30.30872647544453 117.28204833604846 0.0
    vertex 35.658726475444396 117.28204833604843 5.35
    vertex 55.70872647544453 117.28204833604846 0.0
  endloop
endfacet
facet normal -0.0 1.0 -0.0
  outer loop
    vertex 35.658726475444396 117.28204833604843 5.35
    vertex 30.30872647544453 117.28204833604846 0.0
    vertex 30.30872647544453 117.28204833604846 25.4
  endloop
endfacet
facet normal -0.0 1.0 -0.0
  outer loop
    vertex 55.70872647544453 117.28204833604846 0.0
    vertex 35.658726475444396 117.28204833604843 5.35
    vertex 50.35872647544466 117.28204833604843 5.349999999999999
  endloop
endfacet
facet normal -0.0 1.0 -0.0
  outer loop
    vertex 35.658726475444396 117.28204833604843 5.35
    vertex 30.30872647544453 117.28204833604846 25.4
    vertex 35.658726475444396 117.28204833604843 20.05
  endloop
endfacet
facet normal -0.0 1.0 -0.0
  outer loop
    vertex 35.658726475444396 117.28204833604843 20.05
    vertex 30.30872647544453 117.28204833604846 25.4
    vertex 50.35872647544466 117.28204833604843 20.05
  endloop
endfacet
facet normal -0.0 1.0 -0.0
  outer loop
    vertex 50.35872647544466 117.28204833604843 5.349999999999999
    vertex 55.70872647544453 117.28204833604846 25.4
    vertex 55.70872647544453 117.28204833604846 0.0
  endloop
endfacet
facet normal -0.0 1.0 -0.0
  outer loop
    vertex 55.70872647544453 117.28204833604846 25.4
    vertex 50.35872647544466 117.28204833604843 5.349999999999999
    vertex 50.35872647544466 117.28204833604843 20.05
  endloop
endfacet
facet normal -0.0 1.0 -0.0
  outer loop
    vertex 55.70872647544453 117.28204833604846 25.4
    vertex 50.35872647544466 117.28204833604843 20.05
    vertex 30.30872647544453 117.28204833604846 25.4
  endloop
endfacet
endsolid print list 11
