solid print list 11
facet normal -0.31622776601679625 -1.082781431588983e-14 -0.9486832980505279
  outer loop
    vertex 33.6704645684603 83.08329739741 3.0000000000006923
    vertex 27.670464568460144 78.0832973974099 5.000000000000507
    vertex 27.670464568459963 83.0832973974099 5.000000000000511
  endloop
endfacet
facet normal -0.31622776601679625 -1.082781431588983e-14 -0.9486832980505279
  outer loop
    vertex 27.670464568460144 78.0832973974099 5.000000000000507
    vertex 33.6704645684603 83.08329739741 3.0000000000006923
    vertex 33.670464568460474 78.08329739741 3.000000000000689
  endloop
endfacet
facet normal -0.31622776601685826 -1.2105104746773088e-14 0.9486832980505071
  outer loop
    vertex 27.67046456845988 78.08329739740998 17.500000000000565
    vertex 33.670464568459835 83.08329739741002 19.500000000000757
    vertex 27.6704645684597 83.08329739740999 17.50000000000057
  endloop
endfacet
facet normal -0.31622776601685826 -1.2105104746773088e-14 0.9486832980505071
  outer loop
    vertex 33.670464568459835 83.08329739741002 19.500000000000757
    vertex 27.67046456845988 78.08329739740998 17.500000000000565
    vertex 33.67046456846001 78.08329739741002 19.500000000000753
  endloop
endfacet
facet normal 1.0 3.626012881715548e-14 2.8028757765930487e-14
  outer loop
    vertex 33.6704645684603 83.08329739741 3.0000000000006923
    vertex 33.67046456846001 78.08329739741002 19.500000000000753
    vertex 33.670464568460474 78.08329739741 3.000000000000689
  endloop
endfacet
facet normal 1.0 3.626012881715548e-14 2.8028757765930487e-14
  outer loop
    vertex 33.67046456846001 78.08329739741002 19.500000000000753
    vertex 33.6704645684603 83.08329739741 3.0000000000006923
    vertex 33.670464568459835 83.08329739741002 19.500000000000757
  endloop
endfacet
facet normal 0.13052619222002113 4.0654646218029285e-15 0.9914448613738145
  outer loop
    vertex 16.782236000806186 78.08329739740984 14.551111260566323
    vertex 17.170464568459813 83.08329739741004 14.499999999999936
    vertex 16.782236000806005 83.08329739740984 14.551111260566326
  endloop
endfacet
facet normal 0.13052619222002113 4.0654646218029285e-15 0.9914448613738145
  outer loop
    vertex 17.170464568459813 83.08329739741004 14.499999999999936
    vertex 16.782236000806186 78.08329739740984 14.551111260566323
    vertex 17.170464568459995 78.08329739741004 14.499999999999934
  endloop
endfacet
facet normal -0.13052619222021658 -5.400328466025674e-15 0.9914448613737888
  outer loop
    vertex 17.170464568459995 78.08329739741004 14.499999999999934
    vertex 17.55869313611342 83.08329739741008 14.551111260566376
    vertex 17.170464568459813 83.08329739741004 14.499999999999936
  endloop
endfacet
facet normal -0.13052619222021658 -5.400328466025674e-15 0.9914448613737888
  outer loop
    vertex 17.55869313611342 83.08329739741008 14.551111260566376
    vertex 17.170464568459995 78.08329739741004 14.499999999999934
    vertex 17.558693136113597 78.08329739741008 14.551111260566374
  endloop
endfacet
facet normal -0.38268343236512486 -1.449809809335022e-14 0.9238795325112723
  outer loop
    vertex 17.558693136113597 78.08329739741008 14.551111260566374
    vertex 17.920464568459725 83.08329739741002 14.700961894323374
    vertex 17.55869313611342 83.08329739741008 14.551111260566376
  endloop
endfacet
facet normal -0.38268343236512486 -1.449809809335022e-14 0.9238795325112723
  outer loop
    vertex 17.920464568459725 83.08329739741002 14.700961894323374
    vertex 17.558693136113597 78.08329739741008 14.551111260566374
    vertex 17.920464568459906 78.08329739741002 14.70096189432337
  endloop
endfacet
facet normal -0.6087614290087244 -2.2607846294856545e-14 0.7933533402912323
  outer loop
    vertex 17.920464568459906 78.08329739741002 14.70096189432337
    vertex 18.23112474023962 83.08329739740977 14.939339828220268
    vertex 17.920464568459725 83.08329739741002 14.700961894323374
  endloop
endfacet
facet normal -0.6087614290087244 -2.2607846294856545e-14 0.7933533402912323
  outer loop
    vertex 18.23112474023962 83.08329739740977 14.939339828220268
    vertex 17.920464568459906 78.08329739741002 14.70096189432337
    vertex 18.2311247402398 78.08329739740977 14.939339828220266
  endloop
endfacet
facet normal -0.7933533402915547 -2.917690713261321e-14 0.6087614290083042
  outer loop
    vertex 18.469502674136333 78.0832973974099 15.250000000000028
    vertex 18.23112474023962 83.08329739740977 14.939339828220268
    vertex 18.2311247402398 78.08329739740977 14.939339828220266
  endloop
endfacet
facet normal -0.7933533402915547 -2.917690713261321e-14 0.6087614290083042
  outer loop
    vertex 18.23112474023962 83.08329739740977 14.939339828220268
    vertex 18.469502674136333 78.0832973974099 15.250000000000028
    vertex 18.46950267413615 83.0832973974099 15.250000000000032
  endloop
endfacet
facet normal -0.9238795325111807 -3.375760996637572e-14 0.38268343236534624
  outer loop
    vertex 18.619353307893398 78.08329739741 15.611771432346254
    vertex 18.46950267413615 83.0832973974099 15.250000000000032
    vertex 18.469502674136333 78.0832973974099 15.250000000000028
  endloop
endfacet
facet normal -0.9238795325111807 -3.375760996637572e-14 0.38268343236534624
  outer loop
    vertex 18.46950267413615 83.0832973974099 15.250000000000032
    vertex 18.619353307893398 78.08329739741 15.611771432346254
    vertex 18.619353307893217 83.08329739741 15.611771432346258
  endloop
endfacet
facet normal -0.9914448613737669 -3.603778746803494e-14 0.13052619222038195
  outer loop
    vertex 18.670464568459742 83.08329739740996 16.000000000000025
    vertex 18.619353307893398 78.08329739741 15.611771432346254
    vertex 18.670464568459924 78.08329739740996 16.00000000000002
  endloop
endfacet
facet normal -0.9914448613737669 -3.603778746803494e-14 0.13052619222038195
  outer loop
    vertex 18.619353307893398 78.08329739741 15.611771432346254
    vertex 18.670464568459742 83.08329739740996 16.000000000000025
    vertex 18.619353307893217 83.08329739741 15.611771432346258
  endloop
endfacet
facet normal -0.9914448613737653 -3.5862049309004316e-14 -0.130526192220395
  outer loop
    vertex 18.619353307893384 78.08329739741004 16.388228567653858
    vertex 18.670464568459742 83.08329739740996 16.000000000000025
    vertex 18.670464568459924 78.08329739740996 16.00000000000002
  endloop
endfacet
facet normal -0.9914448613737653 -3.5862049309004316e-14 -0.130526192220395
  outer loop
    vertex 18.670464568459742 83.08329739740996 16.000000000000025
    vertex 18.619353307893384 78.08329739741004 16.388228567653858
    vertex 18.619353307893203 83.08329739741004 16.388228567653858
  endloop
endfacet
facet normal -0.9238795325111459 -3.32423717544006e-14 -0.38268343236542973
  outer loop
    vertex 18.46950267413613 83.08329739740988 16.750000000000007
    vertex 18.619353307893384 78.08329739741004 16.388228567653858
    vertex 18.46950267413631 78.08329739740986 16.750000000000004
  endloop
endfacet
facet normal -0.9238795325111459 -3.32423717544006e-14 -0.38268343236542973
  outer loop
    vertex 18.619353307893384 78.08329739741004 16.388228567653858
    vertex 18.46950267413613 83.08329739740988 16.750000000000007
    vertex 18.619353307893203 83.08329739741004 16.388228567653858
  endloop
endfacet
facet normal -0.7933533402915376 -2.8357281500370912e-14 -0.6087614290083267
  outer loop
    vertex 18.231124740239547 83.08329739740967 17.060660171779816
    vertex 18.46950267413631 78.08329739740986 16.750000000000004
    vertex 18.23112474023973 78.08329739740967 17.060660171779816
  endloop
endfacet
facet normal -0.7933533402915376 -2.8357281500370912e-14 -0.6087614290083267
  outer loop
    vertex 18.46950267413631 78.08329739740986 16.750000000000004
    vertex 18.231124740239547 83.08329739740967 17.060660171779816
    vertex 18.46950267413613 83.08329739740988 16.750000000000007
  endloop
endfacet
facet normal -0.6087614290086557 -2.153968937468495e-14 -0.7933533402912849
  outer loop
    vertex 18.231124740239547 83.08329739740967 17.060660171779816
    vertex 17.920464568459813 78.08329739740992 17.299038105676683
    vertex 17.920464568459632 83.08329739740994 17.299038105676686
  endloop
endfacet
facet normal -0.6087614290086557 -2.153968937468495e-14 -0.7933533402912849
  outer loop
    vertex 17.920464568459813 78.08329739740992 17.299038105676683
    vertex 18.231124740239547 83.08329739740967 17.060660171779816
    vertex 18.23112474023973 78.08329739740967 17.060660171779816
  endloop
endfacet
facet normal -0.382683432364923 -1.3254203014143687e-14 -0.9238795325113558
  outer loop
    vertex 17.920464568459632 83.08329739740994 17.299038105676686
    vertex 17.5586931361135 78.0832973974101 17.44888873943359
    vertex 17.55869313611332 83.0832973974101 17.448888739433592
  endloop
endfacet
facet normal -0.382683432364923 -1.3254203014143687e-14 -0.9238795325113558
  outer loop
    vertex 17.5586931361135 78.0832973974101 17.44888873943359
    vertex 17.920464568459632 83.08329739740994 17.299038105676686
    vertex 17.920464568459813 78.08329739740992 17.299038105676683
  endloop
endfacet
facet normal -0.1305261922200353 -4.065464621803444e-15 -0.9914448613738126
  outer loop
    vertex 17.55869313611332 83.0832973974101 17.448888739433592
    vertex 17.170464568459906 78.08329739741009 17.499999999999957
    vertex 17.170464568459725 83.08329739741009 17.49999999999996
  endloop
endfacet
facet normal -0.1305261922200353 -4.065464621803444e-15 -0.9914448613738126
  outer loop
    vertex 17.170464568459906 78.08329739741009 17.499999999999957
    vertex 17.55869313611332 83.0832973974101 17.448888739433592
    vertex 17.5586931361135 78.0832973974101 17.44888873943359
  endloop
endfacet
facet normal 0.1305261922200608 5.400328466020039e-15 -0.9914448613738092
  outer loop
    vertex 17.170464568459725 83.08329739741009 17.49999999999996
    vertex 16.782236000806087 78.08329739740986 17.44888873943355
    vertex 16.782236000805906 83.08329739740986 17.448888739433553
  endloop
endfacet
facet normal 0.1305261922200608 5.400328466020039e-15 -0.9914448613738092
  outer loop
    vertex 16.782236000806087 78.08329739740986 17.44888873943355
    vertex 17.170464568459725 83.08329739741009 17.49999999999996
    vertex 17.170464568459906 78.08329739741009 17.499999999999957
  endloop
endfacet
facet normal 0.38268343236515845 1.449809809335143e-14 -0.9238795325112583
  outer loop
    vertex 16.782236000805906 83.08329739740986 17.448888739433553
    vertex 16.420464568459913 78.08329739741002 17.299038105676594
    vertex 16.42046456845973 83.08329739741002 17.299038105676594
  endloop
endfacet
facet normal 0.38268343236515845 1.449809809335143e-14 -0.9238795325112583
  outer loop
    vertex 16.420464568459913 78.08329739741002 17.299038105676594
    vertex 16.782236000805906 83.08329739740986 17.448888739433553
    vertex 16.782236000806087 78.08329739740986 17.44888873943355
  endloop
endfacet
facet normal 0.6087614290084938 2.2607846294848303e-14 -0.7933533402914091
  outer loop
    vertex 16.42046456845973 83.08329739741002 17.299038105676594
    vertex 16.10980439667992 78.08329739740985 17.060660171779766
    vertex 16.10980439667974 83.08329739740985 17.06066017177977
  endloop
endfacet
facet normal 0.6087614290084938 2.2607846294848303e-14 -0.7933533402914091
  outer loop
    vertex 16.10980439667992 78.08329739740985 17.060660171779766
    vertex 16.42046456845973 83.08329739741002 17.299038105676594
    vertex 16.420464568459913 78.08329739741002 17.299038105676594
  endloop
endfacet
facet normal 0.7933533402914856 2.917690713261076e-14 -0.6087614290083943
  outer loop
    vertex 15.871426462783132 83.08329739740985 16.749999999999982
    vertex 16.10980439667992 78.08329739740985 17.060660171779766
    vertex 15.871426462783313 78.08329739740985 16.749999999999982
  endloop
endfacet
facet normal 0.7933533402914856 2.917690713261076e-14 -0.6087614290083943
  outer loop
    vertex 16.10980439667992 78.08329739740985 17.060660171779766
    vertex 15.871426462783132 83.08329739740985 16.749999999999982
    vertex 16.10980439667974 83.08329739740985 17.06066017177977
  endloop
endfacet
facet normal 0.9238795325113166 3.375760996638042e-14 -0.3826834323650179
  outer loop
    vertex 15.721575829026218 83.08329739740975 16.388228567653755
    vertex 15.871426462783313 78.08329739740985 16.749999999999982
    vertex 15.721575829026397 78.08329739740975 16.38822856765375
  endloop
endfacet
facet normal 0.9238795325113166 3.375760996638042e-14 -0.3826834323650179
  outer loop
    vertex 15.871426462783313 78.08329739740985 16.749999999999982
    vertex 15.721575829026218 83.08329739740975 16.388228567653755
    vertex 15.871426462783132 83.08329739740985 16.749999999999982
  endloop
endfacet
facet normal 0.9914448613737173 3.60377874680334e-14 -0.1305261922207592
  outer loop
    vertex 15.670464568459716 78.08329739740981 15.999999999999948
    vertex 15.721575829026218 83.08329739740975 16.388228567653755
    vertex 15.721575829026397 78.08329739740975 16.38822856765375
  endloop
endfacet
facet normal 0.9914448613737173 3.60377874680334e-14 -0.1305261922207592
  outer loop
    vertex 15.721575829026218 83.08329739740975 16.388228567653755
    vertex 15.670464568459716 78.08329739740981 15.999999999999948
    vertex 15.670464568459535 83.08329739740981 15.99999999999995
  endloop
endfacet
facet normal 0.9914448613737086 3.586204930900198e-14 0.1305261922208257
  outer loop
    vertex 15.721575829026243 83.08329739740975 15.611771432346156
    vertex 15.670464568459716 78.08329739740981 15.999999999999948
    vertex 15.721575829026422 78.08329739740975 15.611771432346153
  endloop
endfacet
facet normal 0.9914448613737086 3.586204930900198e-14 0.1305261922208257
  outer loop
    vertex 15.670464568459716 78.08329739740981 15.999999999999948
    vertex 15.721575829026243 83.08329739740975 15.611771432346156
    vertex 15.670464568459535 83.08329739740981 15.99999999999995
  endloop
endfacet
facet normal 0.9238795325112996 3.3242371754406416e-14 0.38268343236505875
  outer loop
    vertex 15.871426462783353 78.08329739740986 15.249999999999936
    vertex 15.721575829026243 83.08329739740975 15.611771432346156
    vertex 15.721575829026422 78.08329739740975 15.611771432346153
  endloop
endfacet
facet normal 0.9238795325112996 3.3242371754406416e-14 0.38268343236505875
  outer loop
    vertex 15.721575829026243 83.08329739740975 15.611771432346156
    vertex 15.871426462783353 78.08329739740986 15.249999999999936
    vertex 15.871426462783171 83.08329739740986 15.249999999999938
  endloop
endfacet
facet normal 0.7933533402914447 2.8357281500367463e-14 0.6087614290084475
  outer loop
    vertex 16.10980439667999 78.08329739740988 14.939339828220152
    vertex 15.871426462783171 83.08329739740986 15.249999999999938
    vertex 15.871426462783353 78.08329739740986 15.249999999999936
  endloop
endfacet
facet normal 0.7933533402914447 2.8357281500367463e-14 0.6087614290084475
  outer loop
    vertex 15.871426462783171 83.08329739740986 15.249999999999938
    vertex 16.10980439667999 78.08329739740988 14.939339828220152
    vertex 16.10980439667981 83.08329739740988 14.939339828220156
  endloop
endfacet
facet normal 0.6087614290084682 2.153968937467806e-14 0.793353340291429
  outer loop
    vertex 16.10980439667999 78.08329739740988 14.939339828220152
    vertex 16.42046456845983 83.08329739741009 14.700961894323322
    vertex 16.10980439667981 83.08329739740988 14.939339828220156
  endloop
endfacet
facet normal 0.6087614290084682 2.153968937467806e-14 0.793353340291429
  outer loop
    vertex 16.42046456845983 83.08329739741009 14.700961894323322
    vertex 16.10980439667999 78.08329739740988 14.939339828220152
    vertex 16.42046456846001 78.08329739741009 14.70096189432332
  endloop
endfacet
facet normal 0.38268343236524455 1.3254203014155435e-14 0.9238795325112228
  outer loop
    vertex 16.42046456846001 78.08329739741009 14.70096189432332
    vertex 16.782236000806005 83.08329739740984 14.551111260566326
    vertex 16.42046456845983 83.08329739741009 14.700961894323322
  endloop
endfacet
facet normal 0.38268343236524455 1.3254203014155435e-14 0.9238795325112228
  outer loop
    vertex 16.782236000806005 83.08329739740984 14.551111260566326
    vertex 16.42046456846001 78.08329739741009 14.70096189432332
    vertex 16.782236000806186 78.08329739740984 14.551111260566323
  endloop
endfacet
facet normal -0.9238795325111507 -3.324237175440078e-14 -0.3826834323654183
  outer loop
    vertex 18.46950267413643 83.08329739740988 7.250000000000066
    vertex 18.6193533078937 78.08329739741005 6.888228567653862
    vertex 18.46950267413661 78.08329739740988 7.250000000000063
  endloop
endfacet
facet normal -0.9238795325111507 -3.324237175440078e-14 -0.3826834323654183
  outer loop
    vertex 18.6193533078937 78.08329739741005 6.888228567653862
    vertex 18.46950267413643 83.08329739740988 7.250000000000066
    vertex 18.61935330789352 83.08329739741005 6.888228567653865
  endloop
endfacet
facet normal -0.7933533402915135 -2.8357281500370016e-14 -0.6087614290083578
  outer loop
    vertex 18.231124740239874 83.08329739740967 7.560660171779815
    vertex 18.46950267413661 78.08329739740988 7.250000000000063
    vertex 18.231124740240055 78.08329739740967 7.560660171779812
  endloop
endfacet
facet normal -0.7933533402915135 -2.8357281500370016e-14 -0.6087614290083578
  outer loop
    vertex 18.46950267413661 78.08329739740988 7.250000000000063
    vertex 18.231124740239874 83.08329739740967 7.560660171779815
    vertex 18.46950267413643 83.08329739740988 7.250000000000066
  endloop
endfacet
facet normal -0.6087614290086726 -2.1539689374685568e-14 -0.793353340291272
  outer loop
    vertex 18.231124740239874 83.08329739740967 7.560660171779815
    vertex 17.92046456846013 78.08329739740992 7.799038105676698
    vertex 17.920464568459952 83.08329739740994 7.799038105676701
  endloop
endfacet
facet normal -0.6087614290086726 -2.1539689374685568e-14 -0.793353340291272
  outer loop
    vertex 17.92046456846013 78.08329739740992 7.799038105676698
    vertex 18.231124740239874 83.08329739740967 7.560660171779815
    vertex 18.231124740240055 78.08329739740967 7.560660171779812
  endloop
endfacet
facet normal -3.62601288171555e-14 1.0 6.731911658536398e-16
  outer loop
    vertex 17.17046456846013 83.08329739741004 4.999999999999968
    vertex 27.670464568459963 83.0832973974099 5.000000000000511
    vertex 27.670464568460073 83.08329739740988 5.118239165824434e-13
  endloop
endfacet
facet normal -3.62601288171555e-14 1.0 6.731911658536398e-16
  outer loop
    vertex 27.670464568459963 83.0832973974099 5.000000000000511
    vertex 17.17046456846013 83.08329739741004 4.999999999999968
    vertex 17.55869313611373 83.08329739741013 5.051111260566422
  endloop
endfacet
facet normal -3.62601288171555e-14 1.0 6.731911658536398e-16
  outer loop
    vertex 27.670464568459963 83.0832973974099 5.000000000000511
    vertex 33.670464568459835 83.08329739741002 19.500000000000757
    vertex 33.6704645684603 83.08329739741 3.0000000000006923
  endloop
endfacet
facet normal -3.62601288171555e-14 1.0 6.731911658536398e-16
  outer loop
    vertex 33.670464568459835 83.08329739741002 19.500000000000757
    vertex 27.670464568459963 83.0832973974099 5.000000000000511
    vertex 18.231124740239952 83.08329739740965 5.4393398282202305
  endloop
endfacet
facet normal -3.62601288171555e-14 1.0 6.731911658536398e-16
  outer loop
    vertex 18.231124740239952 83.08329739740965 5.4393398282202305
    vertex 27.670464568459963 83.0832973974099 5.000000000000511
    vertex 17.92046456846002 83.08329739740995 5.200961894323375
  endloop
endfacet
facet normal -3.62601288171555e-14 1.0 6.731911658536398e-16
  outer loop
    vertex 17.92046456846002 83.08329739740995 5.200961894323375
    vertex 27.670464568459963 83.0832973974099 5.000000000000511
    vertex 17.55869313611373 83.08329739741013 5.051111260566422
  endloop
endfacet
facet normal -3.62601288171555e-14 1.0 6.731911658536398e-16
  outer loop
    vertex 33.670464568459835 83.08329739741002 19.500000000000757
    vertex 18.231124740239952 83.08329739740965 5.4393398282202305
    vertex 18.469502674136468 83.08329739740988 5.750000000000037
  endloop
endfacet
facet normal -3.62601288171555e-14 1.0 6.731911658536398e-16
  outer loop
    vertex 33.670464568459835 83.08329739741002 19.500000000000757
    vertex 18.469502674136468 83.08329739740988 5.750000000000037
    vertex 18.61935330789352 83.08329739741002 6.111771432346277
  endloop
endfacet
facet normal -3.62601288171555e-14 1.0 6.731911658536398e-16
  outer loop
    vertex 33.670464568459835 83.08329739741002 19.500000000000757
    vertex 18.61935330789352 83.08329739741002 6.111771432346277
    vertex 18.670464568460055 83.08329739740999 6.500000000000064
  endloop
endfacet
facet normal -3.62601288171555e-14 1.0 6.731911658536398e-16
  outer loop
    vertex 33.670464568459835 83.08329739741002 19.500000000000757
    vertex 18.670464568460055 83.08329739740999 6.500000000000064
    vertex 18.61935330789352 83.08329739741005 6.888228567653865
  endloop
endfacet
facet normal -3.62601288171555e-14 1.0 6.731911658536398e-16
  outer loop
    vertex 33.670464568459835 83.08329739741002 19.500000000000757
    vertex 18.61935330789352 83.08329739741005 6.888228567653865
    vertex 18.46950267413643 83.08329739740988 7.250000000000066
  endloop
endfacet
facet normal -3.62601288171555e-14 1.0 6.731911658536398e-16
  outer loop
    vertex 33.670464568459835 83.08329739741002 19.500000000000757
    vertex 18.46950267413643 83.08329739740988 7.250000000000066
    vertex 18.231124740239874 83.08329739740967 7.560660171779815
  endloop
endfacet
facet normal -3.62601288171555e-14 1.0 6.731911658536398e-16
  outer loop
    vertex 33.670464568459835 83.08329739741002 19.500000000000757
    vertex 18.231124740239874 83.08329739740967 7.560660171779815
    vertex 17.920464568459952 83.08329739740994 7.799038105676701
  endloop
endfacet
facet normal -3.62601288171555e-14 1.0 6.731911658536398e-16
  outer loop
    vertex 33.670464568459835 83.08329739741002 19.500000000000757
    vertex 17.920464568459952 83.08329739740994 7.799038105676701
    vertex 17.55869313611363 83.08329739741009 7.948888739433627
  endloop
endfacet
facet normal -3.62601288171555e-14 1.0 6.731911658536398e-16
  outer loop
    vertex 33.670464568459835 83.08329739741002 19.500000000000757
    vertex 17.55869313611363 83.08329739741009 7.948888739433627
    vertex 17.170464568460037 83.0832973974101 8.000000000000039
  endloop
endfacet
facet normal -3.62601288171555e-14 1.0 6.731911658536398e-16
  outer loop
    vertex 33.670464568459835 83.08329739741002 19.500000000000757
    vertex 17.170464568460037 83.0832973974101 8.000000000000039
    vertex 27.6704645684597 83.08329739740999 17.50000000000057
  endloop
endfacet
facet normal -3.62601288171555e-14 1.0 6.731911658536398e-16
  outer loop
    vertex 27.6704645684597 83.08329739740999 17.50000000000057
    vertex 17.170464568460037 83.0832973974101 8.000000000000039
    vertex 17.55869313611342 83.08329739741008 14.551111260566376
  endloop
endfacet
facet normal -3.62601288171555e-14 1.0 6.731911658536398e-16
  outer loop
    vertex 17.55869313611342 83.08329739741008 14.551111260566376
    vertex 17.170464568460037 83.0832973974101 8.000000000000039
    vertex 17.170464568459813 83.08329739741004 14.499999999999936
  endloop
endfacet
facet normal -3.62601288171555e-14 1.0 6.731911658536398e-16
  outer loop
    vertex 27.6704645684597 83.08329739740999 17.50000000000057
    vertex 17.55869313611342 83.08329739741008 14.551111260566376
    vertex 17.920464568459725 83.08329739741002 14.700961894323374
  endloop
endfacet
facet normal -3.62601288171555e-14 1.0 6.731911658536398e-16
  outer loop
    vertex 27.6704645684597 83.08329739740999 17.50000000000057
    vertex 17.920464568459725 83.08329739741002 14.700961894323374
    vertex 18.23112474023962 83.08329739740977 14.939339828220268
  endloop
endfacet
facet normal -3.62601288171555e-14 1.0 6.731911658536398e-16
  outer loop
    vertex 27.6704645684597 83.08329739740999 17.50000000000057
    vertex 18.23112474023962 83.08329739740977 14.939339828220268
    vertex 18.46950267413615 83.0832973974099 15.250000000000032
  endloop
endfacet
facet normal -3.62601288171555e-14 1.0 6.731911658536398e-16
  outer loop
    vertex 27.6704645684597 83.08329739740999 17.50000000000057
    vertex 18.46950267413615 83.0832973974099 15.250000000000032
    vertex 18.619353307893217 83.08329739741 15.611771432346258
  endloop
endfacet
facet normal -3.62601288171555e-14 1.0 6.731911658536398e-16
  outer loop
    vertex 27.6704645684597 83.08329739740999 17.50000000000057
    vertex 18.619353307893217 83.08329739741 15.611771432346258
    vertex 18.670464568459742 83.08329739740996 16.000000000000025
  endloop
endfacet
facet normal -3.62601288171555e-14 1.0 6.731911658536398e-16
  outer loop
    vertex 27.6704645684597 83.08329739740999 17.50000000000057
    vertex 18.670464568459742 83.08329739740996 16.000000000000025
    vertex 18.619353307893203 83.08329739741004 16.388228567653858
  endloop
endfacet
facet normal -3.62601288171555e-14 1.0 6.731911658536398e-16
  outer loop
    vertex 27.6704645684597 83.08329739740999 17.50000000000057
    vertex 18.619353307893203 83.08329739741004 16.388228567653858
    vertex 18.46950267413613 83.08329739740988 16.750000000000007
  endloop
endfacet
facet normal -3.62601288171555e-14 1.0 6.731911658536398e-16
  outer loop
    vertex 27.6704645684597 83.08329739740999 17.50000000000057
    vertex 18.46950267413613 83.08329739740988 16.750000000000007
    vertex 18.231124740239547 83.08329739740967 17.060660171779816
  endloop
endfacet
facet normal -3.62601288171555e-14 1.0 6.731911658536398e-16
  outer loop
    vertex 27.6704645684597 83.08329739740999 17.50000000000057
    vertex 18.231124740239547 83.08329739740967 17.060660171779816
    vertex 17.920464568459632 83.08329739740994 17.299038105676686
  endloop
endfacet
facet normal -3.62601288171555e-14 1.0 6.731911658536398e-16
  outer loop
    vertex 27.6704645684597 83.08329739740999 17.50000000000057
    vertex 17.920464568459632 83.08329739740994 17.299038105676686
    vertex 17.55869313611332 83.0832973974101 17.448888739433592
  endloop
endfacet
facet normal -3.62601288171555e-14 1.0 6.731911658536398e-16
  outer loop
    vertex 27.6704645684597 83.08329739740999 17.50000000000057
    vertex 17.55869313611332 83.0832973974101 17.448888739433592
    vertex 17.170464568459725 83.08329739741009 17.49999999999996
  endloop
endfacet
facet normal -3.62601288171555e-14 1.0 6.731911658536398e-16
  outer loop
    vertex 10.670464568460444 83.08329739740935 0.0
    vertex 16.42046456846013 83.08329739741005 5.2009618943232985
    vertex 27.670464568460073 83.08329739740988 5.118239165824434e-13
  endloop
endfacet
facet normal -3.62601288171555e-14 1.0 6.731911658536398e-16
  outer loop
    vertex 16.42046456846013 83.08329739741005 5.2009618943232985
    vertex 10.670464568460444 83.08329739740935 0.0
    vertex 16.10980439668013 83.08329739740985 5.439339828220173
  endloop
endfacet
facet normal -3.62601288171555e-14 1.0 6.731911658536398e-16
  outer loop
    vertex 16.10980439668013 83.08329739740985 5.439339828220173
    vertex 10.670464568460444 83.08329739740935 0.0
    vertex 15.871426462783477 83.08329739740982 5.749999999999948
  endloop
endfacet
facet normal -3.62601288171555e-14 1.0 6.731911658536398e-16
  outer loop
    vertex 15.871426462783477 83.08329739740982 5.749999999999948
    vertex 10.670464568460444 83.08329739740935 0.0
    vertex 15.721575829026547 83.08329739740977 6.111771432346181
  endloop
endfacet
facet normal -3.62601288171555e-14 1.0 6.731911658536398e-16
  outer loop
    vertex 15.721575829026547 83.08329739740977 6.111771432346181
    vertex 10.670464568460444 83.08329739740935 0.0
    vertex 10.67046456845973 83.08329739740911 22.50000000000004
  endloop
endfacet
facet normal -3.62601288171555e-14 1.0 6.731911658536398e-16
  outer loop
    vertex 27.670464568460073 83.08329739740988 5.118239165824434e-13
    vertex 16.42046456846013 83.08329739741005 5.2009618943232985
    vertex 16.782236000806304 83.0832973974099 5.051111260566411
  endloop
endfacet
facet normal -3.62601288171555e-14 1.0 6.731911658536398e-16
  outer loop
    vertex 27.670464568460073 83.08329739740988 5.118239165824434e-13
    vertex 16.782236000806304 83.0832973974099 5.051111260566411
    vertex 17.17046456846013 83.08329739741004 4.999999999999968
  endloop
endfacet
facet normal -3.62601288171555e-14 1.0 6.731911658536398e-16
  outer loop
    vertex 15.721575829026547 83.08329739740977 6.111771432346181
    vertex 10.67046456845973 83.08329739740911 22.50000000000004
    vertex 15.670464568459826 83.08329739740982 6.499999999999963
  endloop
endfacet
facet normal -3.62601288171555e-14 1.0 6.731911658536398e-16
  outer loop
    vertex 15.670464568459826 83.08329739740982 6.499999999999963
    vertex 10.67046456845973 83.08329739740911 22.50000000000004
    vertex 15.721575829026536 83.08329739740977 6.888228567653786
  endloop
endfacet
facet normal -3.62601288171555e-14 1.0 6.731911658536398e-16
  outer loop
    vertex 15.721575829026536 83.08329739740977 6.888228567653786
    vertex 10.67046456845973 83.08329739740911 22.50000000000004
    vertex 15.87142646278344 83.08329739740986 7.250000000000001
  endloop
endfacet
facet normal -3.62601288171555e-14 1.0 6.731911658536398e-16
  outer loop
    vertex 15.87142646278344 83.08329739740986 7.250000000000001
    vertex 10.67046456845973 83.08329739740911 22.50000000000004
    vertex 16.109804396680065 83.08329739740984 7.560660171779784
  endloop
endfacet
facet normal -3.62601288171555e-14 1.0 6.731911658536398e-16
  outer loop
    vertex 16.109804396680065 83.08329739740984 7.560660171779784
    vertex 10.67046456845973 83.08329739740911 22.50000000000004
    vertex 16.42046456846005 83.08329739741004 7.799038105676644
  endloop
endfacet
facet normal -3.62601288171555e-14 1.0 6.731911658536398e-16
  outer loop
    vertex 16.42046456846005 83.08329739741004 7.799038105676644
    vertex 10.67046456845973 83.08329739740911 22.50000000000004
    vertex 16.782236000806225 83.08329739740982 7.948888739433577
  endloop
endfacet
facet normal -3.62601288171555e-14 1.0 6.731911658536398e-16
  outer loop
    vertex 16.782236000806225 83.08329739740982 7.948888739433577
    vertex 10.67046456845973 83.08329739740911 22.50000000000004
    vertex 17.170464568460037 83.0832973974101 8.000000000000039
  endloop
endfacet
facet normal -3.62601288171555e-14 1.0 6.731911658536398e-16
  outer loop
    vertex 17.170464568460037 83.0832973974101 8.000000000000039
    vertex 10.67046456845973 83.08329739740911 22.50000000000004
    vertex 15.871426462783171 83.08329739740986 15.249999999999938
  endloop
endfacet
facet normal -3.62601288171555e-14 1.0 6.731911658536398e-16
  outer loop
    vertex 17.170464568460037 83.0832973974101 8.000000000000039
    vertex 15.871426462783171 83.08329739740986 15.249999999999938
    vertex 16.10980439667981 83.08329739740988 14.939339828220156
  endloop
endfacet
facet normal -3.62601288171555e-14 1.0 6.731911658536398e-16
  outer loop
    vertex 17.170464568460037 83.0832973974101 8.000000000000039
    vertex 16.10980439667981 83.08329739740988 14.939339828220156
    vertex 16.42046456845983 83.08329739741009 14.700961894323322
  endloop
endfacet
facet normal -3.62601288171555e-14 1.0 6.731911658536398e-16
  outer loop
    vertex 17.170464568460037 83.0832973974101 8.000000000000039
    vertex 16.42046456845983 83.08329739741009 14.700961894323322
    vertex 16.782236000806005 83.08329739740984 14.551111260566326
  endloop
endfacet
facet normal -3.62601288171555e-14 1.0 6.731911658536398e-16
  outer loop
    vertex 17.170464568460037 83.0832973974101 8.000000000000039
    vertex 16.782236000806005 83.08329739740984 14.551111260566326
    vertex 17.170464568459813 83.08329739741004 14.499999999999936
  endloop
endfacet
facet normal -3.62601288171555e-14 1.0 6.731911658536398e-16
  outer loop
    vertex 15.871426462783171 83.08329739740986 15.249999999999938
    vertex 10.67046456845973 83.08329739740911 22.50000000000004
    vertex 15.721575829026243 83.08329739740975 15.611771432346156
  endloop
endfacet
facet normal -3.62601288171555e-14 1.0 6.731911658536398e-16
  outer loop
    vertex 15.721575829026243 83.08329739740975 15.611771432346156
    vertex 10.67046456845973 83.08329739740911 22.50000000000004
    vertex 15.670464568459535 83.08329739740981 15.99999999999995
  endloop
endfacet
facet normal -3.62601288171555e-14 1.0 6.731911658536398e-16
  outer loop
    vertex 15.670464568459535 83.08329739740981 15.99999999999995
    vertex 10.67046456845973 83.08329739740911 22.50000000000004
    vertex 15.721575829026218 83.08329739740975 16.388228567653755
  endloop
endfacet
facet normal -3.62601288171555e-14 1.0 6.731911658536398e-16
  outer loop
    vertex 15.721575829026218 83.08329739740975 16.388228567653755
    vertex 10.67046456845973 83.08329739740911 22.50000000000004
    vertex 15.871426462783132 83.08329739740985 16.749999999999982
  endloop
endfacet
facet normal -3.62601288171555e-14 1.0 6.731911658536398e-16
  outer loop
    vertex 15.871426462783132 83.08329739740985 16.749999999999982
    vertex 10.67046456845973 83.08329739740911 22.50000000000004
    vertex 16.10980439667974 83.08329739740985 17.06066017177977
  endloop
endfacet
facet normal -3.62601288171555e-14 1.0 6.731911658536398e-16
  outer loop
    vertex 16.10980439667974 83.08329739740985 17.06066017177977
    vertex 10.67046456845973 83.08329739740911 22.50000000000004
    vertex 16.42046456845973 83.08329739741002 17.299038105676594
  endloop
endfacet
facet normal -3.62601288171555e-14 1.0 6.731911658536398e-16
  outer loop
    vertex 16.42046456845973 83.08329739741002 17.299038105676594
    vertex 10.67046456845973 83.08329739740911 22.50000000000004
    vertex 16.782236000805906 83.08329739740986 17.448888739433553
  endloop
endfacet
facet normal -3.62601288171555e-14 1.0 6.731911658536398e-16
  outer loop
    vertex 16.782236000805906 83.08329739740986 17.448888739433553
    vertex 10.67046456845973 83.08329739740911 22.50000000000004
    vertex 17.170464568459725 83.08329739741009 17.49999999999996
  endloop
endfacet
facet normal -3.62601288171555e-14 1.0 6.731911658536398e-16
  outer loop
    vertex 17.170464568459725 83.08329739741009 17.49999999999996
    vertex 10.67046456845973 83.08329739740911 22.50000000000004
    vertex 27.6704645684597 83.08329739740999 17.50000000000057
  endloop
endfacet
facet normal -3.62601288171555e-14 1.0 6.731911658536398e-16
  outer loop
    vertex 27.6704645684597 83.08329739740999 17.50000000000057
    vertex 10.67046456845973 83.08329739740911 22.50000000000004
    vertex 27.670464568459593 83.08329739741 22.500000000000572
  endloop
endfacet
facet normal -0.3826834323649584 -1.325420301414498e-14 -0.9238795325113411
  outer loop
    vertex 17.920464568459952 83.08329739740994 7.799038105676701
    vertex 17.55869313611381 78.08329739741009 7.948888739433625
    vertex 17.55869313611363 83.08329739741009 7.948888739433627
  endloop
endfacet
facet normal -0.3826834323649584 -1.325420301414498e-14 -0.9238795325113411
  outer loop
    vertex 17.55869313611381 78.08329739741009 7.948888739433625
    vertex 17.920464568459952 83.08329739740994 7.799038105676701
    vertex 17.92046456846013 78.08329739740992 7.799038105676698
  endloop
endfacet
facet normal -0.13052619222014952 -4.065464621807595e-15 -0.9914448613737976
  outer loop
    vertex 17.55869313611363 83.08329739741009 7.948888739433627
    vertex 17.17046456846022 78.0832973974101 8.000000000000036
    vertex 17.170464568460037 83.0832973974101 8.000000000000039
  endloop
endfacet
facet normal -0.13052619222014952 -4.065464621807595e-15 -0.9914448613737976
  outer loop
    vertex 17.17046456846022 78.0832973974101 8.000000000000036
    vertex 17.55869313611363 83.08329739741009 7.948888739433627
    vertex 17.55869313611381 78.08329739741009 7.948888739433625
  endloop
endfacet
facet normal 0.13052619222020426 5.400328466025228e-15 -0.9914448613737904
  outer loop
    vertex 17.170464568460037 83.0832973974101 8.000000000000039
    vertex 16.782236000806407 78.08329739740982 7.948888739433573
    vertex 16.782236000806225 83.08329739740982 7.948888739433577
  endloop
endfacet
facet normal 0.13052619222020426 5.400328466025228e-15 -0.9914448613737904
  outer loop
    vertex 16.782236000806407 78.08329739740982 7.948888739433573
    vertex 17.170464568460037 83.0832973974101 8.000000000000039
    vertex 17.17046456846022 78.0832973974101 8.000000000000036
  endloop
endfacet
facet normal 0.3826834323651057 1.4498098093349533e-14 -0.9238795325112803
  outer loop
    vertex 16.782236000806225 83.08329739740982 7.948888739433577
    vertex 16.420464568460233 78.08329739741004 7.799038105676641
    vertex 16.42046456846005 83.08329739741004 7.799038105676644
  endloop
endfacet
facet normal 0.3826834323651057 1.4498098093349533e-14 -0.9238795325112803
  outer loop
    vertex 16.420464568460233 78.08329739741004 7.799038105676641
    vertex 16.782236000806225 83.08329739740982 7.948888739433577
    vertex 16.782236000806407 78.08329739740982 7.948888739433573
  endloop
endfacet
facet normal 0.6087614290085553 2.2607846294850503e-14 -0.7933533402913622
  outer loop
    vertex 16.42046456846005 83.08329739741004 7.799038105676644
    vertex 16.109804396680246 78.08329739740984 7.560660171779781
    vertex 16.109804396680065 83.08329739740984 7.560660171779784
  endloop
endfacet
facet normal 0.6087614290085553 2.2607846294850503e-14 -0.7933533402913622
  outer loop
    vertex 16.109804396680246 78.08329739740984 7.560660171779781
    vertex 16.42046456846005 83.08329739741004 7.799038105676644
    vertex 16.420464568460233 78.08329739741004 7.799038105676641
  endloop
endfacet
facet normal 0.7933533402914587 2.91769071326098e-14 -0.6087614290084294
  outer loop
    vertex 15.87142646278362 78.08329739740986 7.249999999999998
    vertex 16.109804396680065 83.08329739740984 7.560660171779784
    vertex 16.109804396680246 78.08329739740984 7.560660171779781
  endloop
endfacet
facet normal 0.7933533402914587 2.91769071326098e-14 -0.6087614290084294
  outer loop
    vertex 16.109804396680065 83.08329739740984 7.560660171779784
    vertex 15.87142646278362 78.08329739740986 7.249999999999998
    vertex 15.87142646278344 83.08329739740986 7.250000000000001
  endloop
endfacet
facet normal 0.9238795325113215 3.375760996638059e-14 -0.382683432365006
  outer loop
    vertex 15.721575829026536 83.08329739740977 6.888228567653786
    vertex 15.87142646278362 78.08329739740986 7.249999999999998
    vertex 15.721575829026717 78.08329739740977 6.888228567653783
  endloop
endfacet
facet normal 0.9238795325113215 3.375760996638059e-14 -0.382683432365006
  outer loop
    vertex 15.87142646278362 78.08329739740986 7.249999999999998
    vertex 15.721575829026536 83.08329739740977 6.888228567653786
    vertex 15.87142646278344 83.08329739740986 7.250000000000001
  endloop
endfacet
facet normal 0.9914448613737089 3.6037787468033136e-14 -0.13052619222082346
  outer loop
    vertex 15.670464568460005 78.08329739740981 6.49999999999996
    vertex 15.721575829026536 83.08329739740977 6.888228567653786
    vertex 15.721575829026717 78.08329739740977 6.888228567653783
  endloop
endfacet
facet normal 0.9914448613737089 3.6037787468033136e-14 -0.13052619222082346
  outer loop
    vertex 15.721575829026536 83.08329739740977 6.888228567653786
    vertex 15.670464568460005 78.08329739740981 6.49999999999996
    vertex 15.670464568459826 83.08329739740982 6.499999999999963
  endloop
endfacet
facet normal 0.9914448613737034 3.5862049309001766e-14 0.13052619222086576
  outer loop
    vertex 15.721575829026547 83.08329739740977 6.111771432346181
    vertex 15.670464568460005 78.08329739740981 6.49999999999996
    vertex 15.721575829026728 78.08329739740975 6.111771432346178
  endloop
endfacet
facet normal 0.9914448613737034 3.5862049309001766e-14 0.13052619222086576
  outer loop
    vertex 15.670464568460005 78.08329739740981 6.49999999999996
    vertex 15.721575829026547 83.08329739740977 6.111771432346181
    vertex 15.670464568459826 83.08329739740982 6.499999999999963
  endloop
endfacet
facet normal 0.923879532511306 3.324237175440666e-14 0.3826834323650435
  outer loop
    vertex 15.871426462783656 78.08329739740981 5.749999999999944
    vertex 15.721575829026547 83.08329739740977 6.111771432346181
    vertex 15.721575829026728 78.08329739740975 6.111771432346178
  endloop
endfacet
facet normal 0.923879532511306 3.324237175440666e-14 0.3826834323650435
  outer loop
    vertex 15.721575829026547 83.08329739740977 6.111771432346181
    vertex 15.871426462783656 78.08329739740981 5.749999999999944
    vertex 15.871426462783477 83.08329739740982 5.749999999999948
  endloop
endfacet
facet normal 0.7933533402914192 2.835728150036652e-14 0.6087614290084806
  outer loop
    vertex 16.10980439668031 78.08329739740985 5.439339828220169
    vertex 15.871426462783477 83.08329739740982 5.749999999999948
    vertex 15.871426462783656 78.08329739740981 5.749999999999944
  endloop
endfacet
facet normal 0.7933533402914192 2.835728150036652e-14 0.6087614290084806
  outer loop
    vertex 15.871426462783477 83.08329739740982 5.749999999999948
    vertex 16.10980439668031 78.08329739740985 5.439339828220169
    vertex 16.10980439668013 83.08329739740985 5.439339828220173
  endloop
endfacet
facet normal 0.608761429008557 2.1539689374681318e-14 0.7933533402913607
  outer loop
    vertex 16.10980439668031 78.08329739740985 5.439339828220169
    vertex 16.42046456846013 83.08329739741005 5.2009618943232985
    vertex 16.10980439668013 83.08329739740985 5.439339828220173
  endloop
endfacet
facet normal 0.608761429008557 2.1539689374681318e-14 0.7933533402913607
  outer loop
    vertex 16.42046456846013 83.08329739741005 5.2009618943232985
    vertex 16.10980439668031 78.08329739740985 5.439339828220169
    vertex 16.42046456846031 78.08329739741005 5.200961894323295
  endloop
endfacet
facet normal 0.38268343236500735 1.3254203014146767e-14 0.9238795325113209
  outer loop
    vertex 16.42046456846031 78.08329739741005 5.200961894323295
    vertex 16.782236000806304 83.0832973974099 5.051111260566411
    vertex 16.42046456846013 83.08329739741005 5.2009618943232985
  endloop
endfacet
facet normal 0.38268343236500735 1.3254203014146767e-14 0.9238795325113209
  outer loop
    vertex 16.782236000806304 83.0832973974099 5.051111260566411
    vertex 16.42046456846031 78.08329739741005 5.200961894323295
    vertex 16.782236000806485 78.0832973974099 5.051111260566407
  endloop
endfacet
facet normal 0.13052619222015005 4.065464621807613e-15 0.9914448613737975
  outer loop
    vertex 16.782236000806485 78.0832973974099 5.051111260566407
    vertex 17.17046456846013 83.08329739741004 4.999999999999968
    vertex 16.782236000806304 83.0832973974099 5.051111260566411
  endloop
endfacet
facet normal 0.13052619222015005 4.065464621807613e-15 0.9914448613737975
  outer loop
    vertex 17.17046456846013 83.08329739741004 4.999999999999968
    vertex 16.782236000806485 78.0832973974099 5.051111260566407
    vertex 17.17046456846031 78.08329739741004 4.9999999999999645
  endloop
endfacet
facet normal -0.130526192220252 -5.400328466026955e-15 0.9914448613737842
  outer loop
    vertex 17.17046456846031 78.08329739741004 4.9999999999999645
    vertex 17.55869313611373 83.08329739741013 5.051111260566422
    vertex 17.17046456846013 83.08329739741004 4.999999999999968
  endloop
endfacet
facet normal -0.130526192220252 -5.400328466026955e-15 0.9914448613737842
  outer loop
    vertex 17.55869313611373 83.08329739741013 5.051111260566422
    vertex 17.17046456846031 78.08329739741004 4.9999999999999645
    vertex 17.558693136113913 78.08329739741013 5.051111260566419
  endloop
endfacet
facet normal -0.38268343236504687 -1.4498098093347416e-14 0.9238795325113046
  outer loop
    vertex 17.558693136113913 78.08329739741013 5.051111260566419
    vertex 17.92046456846002 83.08329739740995 5.200961894323375
    vertex 17.55869313611373 83.08329739741013 5.051111260566422
  endloop
endfacet
facet normal -0.38268343236504687 -1.4498098093347416e-14 0.9238795325113046
  outer loop
    vertex 17.92046456846002 83.08329739740995 5.200961894323375
    vertex 17.558693136113913 78.08329739741013 5.051111260566419
    vertex 17.9204645684602 78.08329739740995 5.200961894323371
  endloop
endfacet
facet normal -0.6087614290086145 -2.260784629485262e-14 0.7933533402913167
  outer loop
    vertex 17.9204645684602 78.08329739740995 5.200961894323371
    vertex 18.231124740239952 83.08329739740965 5.4393398282202305
    vertex 17.92046456846002 83.08329739740995 5.200961894323375
  endloop
endfacet
facet normal -0.6087614290086145 -2.260784629485262e-14 0.7933533402913167
  outer loop
    vertex 18.231124740239952 83.08329739740965 5.4393398282202305
    vertex 17.9204645684602 78.08329739740995 5.200961894323371
    vertex 18.23112474024013 78.08329739740965 5.439339828220227
  endloop
endfacet
facet normal -0.793353340291617 -2.917690713261541e-14 0.6087614290082232
  outer loop
    vertex 18.46950267413665 78.08329739740986 5.750000000000034
    vertex 18.231124740239952 83.08329739740965 5.4393398282202305
    vertex 18.23112474024013 78.08329739740965 5.439339828220227
  endloop
endfacet
facet normal -0.793353340291617 -2.917690713261541e-14 0.6087614290082232
  outer loop
    vertex 18.231124740239952 83.08329739740965 5.4393398282202305
    vertex 18.46950267413665 78.08329739740986 5.750000000000034
    vertex 18.469502674136468 83.08329739740988 5.750000000000037
  endloop
endfacet
facet normal -0.9238795325111985 -3.375760996637633e-14 0.38268343236530267
  outer loop
    vertex 18.6193533078937 78.08329739741002 6.1117714323462735
    vertex 18.469502674136468 83.08329739740988 5.750000000000037
    vertex 18.46950267413665 78.08329739740986 5.750000000000034
  endloop
endfacet
facet normal -0.9238795325111985 -3.375760996637633e-14 0.38268343236530267
  outer loop
    vertex 18.469502674136468 83.08329739740988 5.750000000000037
    vertex 18.6193533078937 78.08329739741002 6.1117714323462735
    vertex 18.61935330789352 83.08329739741002 6.111771432346277
  endloop
endfacet
facet normal -0.9914448613737651 -3.6037787468034884e-14 0.1305261922203967
  outer loop
    vertex 18.670464568460055 83.08329739740999 6.500000000000064
    vertex 18.6193533078937 78.08329739741002 6.1117714323462735
    vertex 18.670464568460233 78.08329739740999 6.500000000000061
  endloop
endfacet
facet normal -0.9914448613737651 -3.6037787468034884e-14 0.1305261922203967
  outer loop
    vertex 18.6193533078937 78.08329739741002 6.1117714323462735
    vertex 18.670464568460055 83.08329739740999 6.500000000000064
    vertex 18.61935330789352 83.08329739741002 6.111771432346277
  endloop
endfacet
facet normal -0.9914448613737658 -3.586204930900434e-14 -0.13052619222039202
  outer loop
    vertex 18.6193533078937 78.08329739741005 6.888228567653862
    vertex 18.670464568460055 83.08329739740999 6.500000000000064
    vertex 18.670464568460233 78.08329739740999 6.500000000000061
  endloop
endfacet
facet normal -0.9914448613737658 -3.586204930900434e-14 -0.13052619222039202
  outer loop
    vertex 18.670464568460055 83.08329739740999 6.500000000000064
    vertex 18.6193533078937 78.08329739741005 6.888228567653862
    vertex 18.61935330789352 83.08329739741005 6.888228567653865
  endloop
endfacet
facet normal 1.0 3.626012881715548e-14 2.1431745267363847e-14
  outer loop
    vertex 27.6704645684597 83.08329739740999 17.50000000000057
    vertex 27.67046456845977 78.08329739741 22.50000000000057
    vertex 27.67046456845988 78.08329739740998 17.500000000000565
  endloop
endfacet
facet normal 1.0 3.626012881715548e-14 2.1431745267363847e-14
  outer loop
    vertex 27.67046456845977 78.08329739741 22.50000000000057
    vertex 27.6704645684597 83.08329739740999 17.50000000000057
    vertex 27.670464568459593 83.08329739741 22.500000000000572
  endloop
endfacet
facet normal 1.0 3.626012881715548e-14 2.143174526736386e-14
  outer loop
    vertex 27.670464568460073 83.08329739740988 5.118239165824434e-13
    vertex 27.670464568460144 78.0832973974099 5.000000000000507
    vertex 27.67046456846025 78.08329739740986 5.084579607531753e-13
  endloop
endfacet
facet normal 1.0 3.626012881715548e-14 2.143174526736386e-14
  outer loop
    vertex 27.670464568460144 78.0832973974099 5.000000000000507
    vertex 27.670464568460073 83.08329739740988 5.118239165824434e-13
    vertex 27.670464568459963 83.0832973974099 5.000000000000511
  endloop
endfacet
facet normal 3.010728921073261e-14 6.731911658547316e-16 -1.0
  outer loop
    vertex 27.670464568460073 83.08329739740988 5.118239165824434e-13
    vertex 10.670464568460627 78.08329739740935 -3.3659558292681977e-15
    vertex 10.670464568460444 83.08329739740935 0.0
  endloop
endfacet
facet normal 3.010728921073261e-14 6.731911658547316e-16 -1.0
  outer loop
    vertex 10.670464568460627 78.08329739740935 -3.3659558292681977e-15
    vertex 27.670464568460073 83.08329739740988 5.118239165824434e-13
    vertex 27.67046456846025 78.08329739740986 5.084579607531753e-13
  endloop
endfacet
facet normal -1.0 -3.626012881715548e-14 -3.177162237003997e-14
  outer loop
    vertex 10.67046456845973 83.08329739740911 22.50000000000004
    vertex 10.670464568460627 78.08329739740935 -3.3659558292681977e-15
    vertex 10.670464568459911 78.08329739740911 22.50000000000004
  endloop
endfacet
facet normal -1.0 -3.626012881715548e-14 -3.177162237003997e-14
  outer loop
    vertex 10.670464568460627 78.08329739740935 -3.3659558292681977e-15
    vertex 10.67046456845973 83.08329739740911 22.50000000000004
    vertex 10.670464568460444 83.08329739740935 0.0
  endloop
endfacet
facet normal -3.118551168935344e-14 -6.731911658547705e-16 1.0
  outer loop
    vertex 10.670464568459911 78.08329739740911 22.50000000000004
    vertex 27.670464568459593 83.08329739741 22.500000000000572
    vertex 10.67046456845973 83.08329739740911 22.50000000000004
  endloop
endfacet
facet normal -3.118551168935344e-14 -6.731911658547705e-16 1.0
  outer loop
    vertex 27.670464568459593 83.08329739741 22.500000000000572
    vertex 10.670464568459911 78.08329739740911 22.50000000000004
    vertex 27.67046456845977 78.08329739741 22.50000000000057
  endloop
endfacet
facet normal 3.62601288171555e-14 -1.0 -6.731911658536398e-16
  outer loop
    vertex 33.67046456846001 78.08329739741002 19.500000000000753
    vertex 27.670464568460144 78.0832973974099 5.000000000000507
    vertex 33.670464568460474 78.08329739741 3.000000000000689
  endloop
endfacet
facet normal 3.62601288171555e-14 -1.0 -6.731911658536398e-16
  outer loop
    vertex 27.670464568460144 78.0832973974099 5.000000000000507
    vertex 33.67046456846001 78.08329739741002 19.500000000000753
    vertex 18.23112474024013 78.08329739740965 5.439339828220227
  endloop
endfacet
facet normal 3.62601288171555e-14 -1.0 -6.731911658536398e-16
  outer loop
    vertex 27.670464568460144 78.0832973974099 5.000000000000507
    vertex 18.23112474024013 78.08329739740965 5.439339828220227
    vertex 17.9204645684602 78.08329739740995 5.200961894323371
  endloop
endfacet
facet normal 3.62601288171555e-14 -1.0 -6.731911658536398e-16
  outer loop
    vertex 27.670464568460144 78.0832973974099 5.000000000000507
    vertex 17.9204645684602 78.08329739740995 5.200961894323371
    vertex 17.558693136113913 78.08329739741013 5.051111260566419
  endloop
endfacet
facet normal 3.62601288171555e-14 -1.0 -6.731911658536398e-16
  outer loop
    vertex 18.23112474024013 78.08329739740965 5.439339828220227
    vertex 33.67046456846001 78.08329739741002 19.500000000000753
    vertex 18.46950267413665 78.08329739740986 5.750000000000034
  endloop
endfacet
facet normal 3.62601288171555e-14 -1.0 -6.731911658536398e-16
  outer loop
    vertex 18.46950267413665 78.08329739740986 5.750000000000034
    vertex 33.67046456846001 78.08329739741002 19.500000000000753
    vertex 18.6193533078937 78.08329739741002 6.1117714323462735
  endloop
endfacet
facet normal 3.62601288171555e-14 -1.0 -6.731911658536398e-16
  outer loop
    vertex 18.6193533078937 78.08329739741002 6.1117714323462735
    vertex 33.67046456846001 78.08329739741002 19.500000000000753
    vertex 18.670464568460233 78.08329739740999 6.500000000000061
  endloop
endfacet
facet normal 3.62601288171555e-14 -1.0 -6.731911658536398e-16
  outer loop
    vertex 18.670464568460233 78.08329739740999 6.500000000000061
    vertex 33.67046456846001 78.08329739741002 19.500000000000753
    vertex 18.6193533078937 78.08329739741005 6.888228567653862
  endloop
endfacet
facet normal 3.62601288171555e-14 -1.0 -6.731911658536398e-16
  outer loop
    vertex 18.6193533078937 78.08329739741005 6.888228567653862
    vertex 33.67046456846001 78.08329739741002 19.500000000000753
    vertex 18.46950267413661 78.08329739740988 7.250000000000063
  endloop
endfacet
facet normal 3.62601288171555e-14 -1.0 -6.731911658536398e-16
  outer loop
    vertex 18.46950267413661 78.08329739740988 7.250000000000063
    vertex 33.67046456846001 78.08329739741002 19.500000000000753
    vertex 18.231124740240055 78.08329739740967 7.560660171779812
  endloop
endfacet
facet normal 3.62601288171555e-14 -1.0 -6.731911658536398e-16
  outer loop
    vertex 18.231124740240055 78.08329739740967 7.560660171779812
    vertex 33.67046456846001 78.08329739741002 19.500000000000753
    vertex 17.92046456846013 78.08329739740992 7.799038105676698
  endloop
endfacet
facet normal 3.62601288171555e-14 -1.0 -6.731911658536398e-16
  outer loop
    vertex 17.92046456846013 78.08329739740992 7.799038105676698
    vertex 33.67046456846001 78.08329739741002 19.500000000000753
    vertex 17.55869313611381 78.08329739741009 7.948888739433625
  endloop
endfacet
facet normal 3.62601288171555e-14 -1.0 -6.731911658536398e-16
  outer loop
    vertex 17.55869313611381 78.08329739741009 7.948888739433625
    vertex 33.67046456846001 78.08329739741002 19.500000000000753
    vertex 17.17046456846022 78.0832973974101 8.000000000000036
  endloop
endfacet
facet normal 3.62601288171555e-14 -1.0 -6.731911658536398e-16
  outer loop
    vertex 17.17046456846022 78.0832973974101 8.000000000000036
    vertex 33.67046456846001 78.08329739741002 19.500000000000753
    vertex 27.67046456845988 78.08329739740998 17.500000000000565
  endloop
endfacet
facet normal 3.62601288171555e-14 -1.0 -6.731911658536398e-16
  outer loop
    vertex 17.17046456846022 78.0832973974101 8.000000000000036
    vertex 27.67046456845988 78.08329739740998 17.500000000000565
    vertex 17.558693136113597 78.08329739741008 14.551111260566374
  endloop
endfacet
facet normal 3.62601288171555e-14 -1.0 -6.731911658536398e-16
  outer loop
    vertex 17.17046456846022 78.0832973974101 8.000000000000036
    vertex 17.558693136113597 78.08329739741008 14.551111260566374
    vertex 17.170464568459995 78.08329739741004 14.499999999999934
  endloop
endfacet
facet normal 3.62601288171555e-14 -1.0 -6.731911658536398e-16
  outer loop
    vertex 17.558693136113597 78.08329739741008 14.551111260566374
    vertex 27.67046456845988 78.08329739740998 17.500000000000565
    vertex 17.920464568459906 78.08329739741002 14.70096189432337
  endloop
endfacet
facet normal 3.62601288171555e-14 -1.0 -6.731911658536398e-16
  outer loop
    vertex 17.920464568459906 78.08329739741002 14.70096189432337
    vertex 27.67046456845988 78.08329739740998 17.500000000000565
    vertex 18.2311247402398 78.08329739740977 14.939339828220266
  endloop
endfacet
facet normal 3.62601288171555e-14 -1.0 -6.731911658536398e-16
  outer loop
    vertex 18.2311247402398 78.08329739740977 14.939339828220266
    vertex 27.67046456845988 78.08329739740998 17.500000000000565
    vertex 18.469502674136333 78.0832973974099 15.250000000000028
  endloop
endfacet
facet normal 3.62601288171555e-14 -1.0 -6.731911658536398e-16
  outer loop
    vertex 18.469502674136333 78.0832973974099 15.250000000000028
    vertex 27.67046456845988 78.08329739740998 17.500000000000565
    vertex 18.619353307893398 78.08329739741 15.611771432346254
  endloop
endfacet
facet normal 3.62601288171555e-14 -1.0 -6.731911658536398e-16
  outer loop
    vertex 18.619353307893398 78.08329739741 15.611771432346254
    vertex 27.67046456845988 78.08329739740998 17.500000000000565
    vertex 18.670464568459924 78.08329739740996 16.00000000000002
  endloop
endfacet
facet normal 3.62601288171555e-14 -1.0 -6.731911658536398e-16
  outer loop
    vertex 18.670464568459924 78.08329739740996 16.00000000000002
    vertex 27.67046456845988 78.08329739740998 17.500000000000565
    vertex 18.619353307893384 78.08329739741004 16.388228567653858
  endloop
endfacet
facet normal 3.62601288171555e-14 -1.0 -6.731911658536398e-16
  outer loop
    vertex 18.619353307893384 78.08329739741004 16.388228567653858
    vertex 27.67046456845988 78.08329739740998 17.500000000000565
    vertex 18.46950267413631 78.08329739740986 16.750000000000004
  endloop
endfacet
facet normal 3.62601288171555e-14 -1.0 -6.731911658536398e-16
  outer loop
    vertex 18.46950267413631 78.08329739740986 16.750000000000004
    vertex 27.67046456845988 78.08329739740998 17.500000000000565
    vertex 18.23112474023973 78.08329739740967 17.060660171779816
  endloop
endfacet
facet normal 3.62601288171555e-14 -1.0 -6.731911658536398e-16
  outer loop
    vertex 18.23112474023973 78.08329739740967 17.060660171779816
    vertex 27.67046456845988 78.08329739740998 17.500000000000565
    vertex 17.920464568459813 78.08329739740992 17.299038105676683
  endloop
endfacet
facet normal 3.62601288171555e-14 -1.0 -6.731911658536398e-16
  outer loop
    vertex 17.920464568459813 78.08329739740992 17.299038105676683
    vertex 27.67046456845988 78.08329739740998 17.500000000000565
    vertex 17.5586931361135 78.0832973974101 17.44888873943359
  endloop
endfacet
facet normal 3.62601288171555e-14 -1.0 -6.731911658536398e-16
  outer loop
    vertex 17.5586931361135 78.0832973974101 17.44888873943359
    vertex 27.67046456845988 78.08329739740998 17.500000000000565
    vertex 17.170464568459906 78.08329739741009 17.499999999999957
  endloop
endfacet
facet normal 3.62601288171555e-14 -1.0 -6.731911658536398e-16
  outer loop
    vertex 10.670464568460627 78.08329739740935 -3.3659558292681977e-15
    vertex 15.721575829026728 78.08329739740975 6.111771432346178
    vertex 10.670464568459911 78.08329739740911 22.50000000000004
  endloop
endfacet
facet normal 3.62601288171555e-14 -1.0 -6.731911658536398e-16
  outer loop
    vertex 15.721575829026728 78.08329739740975 6.111771432346178
    vertex 10.670464568460627 78.08329739740935 -3.3659558292681977e-15
    vertex 15.871426462783656 78.08329739740981 5.749999999999944
  endloop
endfacet
facet normal 3.62601288171555e-14 -1.0 -6.731911658536398e-16
  outer loop
    vertex 15.871426462783656 78.08329739740981 5.749999999999944
    vertex 10.670464568460627 78.08329739740935 -3.3659558292681977e-15
    vertex 16.10980439668031 78.08329739740985 5.439339828220169
  endloop
endfacet
facet normal 3.62601288171555e-14 -1.0 -6.731911658536398e-16
  outer loop
    vertex 16.10980439668031 78.08329739740985 5.439339828220169
    vertex 10.670464568460627 78.08329739740935 -3.3659558292681977e-15
    vertex 16.42046456846031 78.08329739741005 5.200961894323295
  endloop
endfacet
facet normal 3.62601288171555e-14 -1.0 -6.731911658536398e-16
  outer loop
    vertex 16.42046456846031 78.08329739741005 5.200961894323295
    vertex 10.670464568460627 78.08329739740935 -3.3659558292681977e-15
    vertex 27.67046456846025 78.08329739740986 5.084579607531753e-13
  endloop
endfacet
facet normal 3.62601288171555e-14 -1.0 -6.731911658536398e-16
  outer loop
    vertex 16.42046456846031 78.08329739741005 5.200961894323295
    vertex 27.67046456846025 78.08329739740986 5.084579607531753e-13
    vertex 16.782236000806485 78.0832973974099 5.051111260566407
  endloop
endfacet
facet normal 3.62601288171555e-14 -1.0 -6.731911658536398e-16
  outer loop
    vertex 16.782236000806485 78.0832973974099 5.051111260566407
    vertex 27.67046456846025 78.08329739740986 5.084579607531753e-13
    vertex 17.17046456846031 78.08329739741004 4.9999999999999645
  endloop
endfacet
facet normal 3.62601288171555e-14 -1.0 -6.731911658536398e-16
  outer loop
    vertex 10.670464568459911 78.08329739740911 22.50000000000004
    vertex 15.721575829026728 78.08329739740975 6.111771432346178
    vertex 15.670464568460005 78.08329739740981 6.49999999999996
  endloop
endfacet
facet normal 3.62601288171555e-14 -1.0 -6.731911658536398e-16
  outer loop
    vertex 10.670464568459911 78.08329739740911 22.50000000000004
    vertex 15.670464568460005 78.08329739740981 6.49999999999996
    vertex 15.721575829026717 78.08329739740977 6.888228567653783
  endloop
endfacet
facet normal 3.62601288171555e-14 -1.0 -6.731911658536398e-16
  outer loop
    vertex 10.670464568459911 78.08329739740911 22.50000000000004
    vertex 15.721575829026717 78.08329739740977 6.888228567653783
    vertex 15.87142646278362 78.08329739740986 7.249999999999998
  endloop
endfacet
facet normal 3.62601288171555e-14 -1.0 -6.731911658536398e-16
  outer loop
    vertex 10.670464568459911 78.08329739740911 22.50000000000004
    vertex 15.87142646278362 78.08329739740986 7.249999999999998
    vertex 16.109804396680246 78.08329739740984 7.560660171779781
  endloop
endfacet
facet normal 3.62601288171555e-14 -1.0 -6.731911658536398e-16
  outer loop
    vertex 10.670464568459911 78.08329739740911 22.50000000000004
    vertex 16.109804396680246 78.08329739740984 7.560660171779781
    vertex 16.420464568460233 78.08329739741004 7.799038105676641
  endloop
endfacet
facet normal 3.62601288171555e-14 -1.0 -6.731911658536398e-16
  outer loop
    vertex 10.670464568459911 78.08329739740911 22.50000000000004
    vertex 16.420464568460233 78.08329739741004 7.799038105676641
    vertex 16.782236000806407 78.08329739740982 7.948888739433573
  endloop
endfacet
facet normal 3.62601288171555e-14 -1.0 -6.731911658536398e-16
  outer loop
    vertex 10.670464568459911 78.08329739740911 22.50000000000004
    vertex 16.782236000806407 78.08329739740982 7.948888739433573
    vertex 17.17046456846022 78.0832973974101 8.000000000000036
  endloop
endfacet
facet normal 3.62601288171555e-14 -1.0 -6.731911658536398e-16
  outer loop
    vertex 10.670464568459911 78.08329739740911 22.50000000000004
    vertex 17.17046456846022 78.0832973974101 8.000000000000036
    vertex 15.871426462783353 78.08329739740986 15.249999999999936
  endloop
endfacet
facet normal 3.62601288171555e-14 -1.0 -6.731911658536398e-16
  outer loop
    vertex 15.871426462783353 78.08329739740986 15.249999999999936
    vertex 17.17046456846022 78.0832973974101 8.000000000000036
    vertex 16.10980439667999 78.08329739740988 14.939339828220152
  endloop
endfacet
facet normal 3.62601288171555e-14 -1.0 -6.731911658536398e-16
  outer loop
    vertex 16.10980439667999 78.08329739740988 14.939339828220152
    vertex 17.17046456846022 78.0832973974101 8.000000000000036
    vertex 16.42046456846001 78.08329739741009 14.70096189432332
  endloop
endfacet
facet normal 3.62601288171555e-14 -1.0 -6.731911658536398e-16
  outer loop
    vertex 16.42046456846001 78.08329739741009 14.70096189432332
    vertex 17.17046456846022 78.0832973974101 8.000000000000036
    vertex 16.782236000806186 78.08329739740984 14.551111260566323
  endloop
endfacet
facet normal 3.62601288171555e-14 -1.0 -6.731911658536398e-16
  outer loop
    vertex 16.782236000806186 78.08329739740984 14.551111260566323
    vertex 17.17046456846022 78.0832973974101 8.000000000000036
    vertex 17.170464568459995 78.08329739741004 14.499999999999934
  endloop
endfacet
facet normal 3.62601288171555e-14 -1.0 -6.731911658536398e-16
  outer loop
    vertex 10.670464568459911 78.08329739740911 22.50000000000004
    vertex 15.871426462783353 78.08329739740986 15.249999999999936
    vertex 15.721575829026422 78.08329739740975 15.611771432346153
  endloop
endfacet
facet normal 3.62601288171555e-14 -1.0 -6.731911658536398e-16
  outer loop
    vertex 10.670464568459911 78.08329739740911 22.50000000000004
    vertex 15.721575829026422 78.08329739740975 15.611771432346153
    vertex 15.670464568459716 78.08329739740981 15.999999999999948
  endloop
endfacet
facet normal 3.62601288171555e-14 -1.0 -6.731911658536398e-16
  outer loop
    vertex 10.670464568459911 78.08329739740911 22.50000000000004
    vertex 15.670464568459716 78.08329739740981 15.999999999999948
    vertex 15.721575829026397 78.08329739740975 16.38822856765375
  endloop
endfacet
facet normal 3.62601288171555e-14 -1.0 -6.731911658536398e-16
  outer loop
    vertex 10.670464568459911 78.08329739740911 22.50000000000004
    vertex 15.721575829026397 78.08329739740975 16.38822856765375
    vertex 15.871426462783313 78.08329739740985 16.749999999999982
  endloop
endfacet
facet normal 3.62601288171555e-14 -1.0 -6.731911658536398e-16
  outer loop
    vertex 10.670464568459911 78.08329739740911 22.50000000000004
    vertex 15.871426462783313 78.08329739740985 16.749999999999982
    vertex 16.10980439667992 78.08329739740985 17.060660171779766
  endloop
endfacet
facet normal 3.62601288171555e-14 -1.0 -6.731911658536398e-16
  outer loop
    vertex 10.670464568459911 78.08329739740911 22.50000000000004
    vertex 16.10980439667992 78.08329739740985 17.060660171779766
    vertex 16.420464568459913 78.08329739741002 17.299038105676594
  endloop
endfacet
facet normal 3.62601288171555e-14 -1.0 -6.731911658536398e-16
  outer loop
    vertex 10.670464568459911 78.08329739740911 22.50000000000004
    vertex 16.420464568459913 78.08329739741002 17.299038105676594
    vertex 16.782236000806087 78.08329739740986 17.44888873943355
  endloop
endfacet
facet normal 3.62601288171555e-14 -1.0 -6.731911658536398e-16
  outer loop
    vertex 10.670464568459911 78.08329739740911 22.50000000000004
    vertex 16.782236000806087 78.08329739740986 17.44888873943355
    vertex 17.170464568459906 78.08329739741009 17.499999999999957
  endloop
endfacet
facet normal 3.62601288171555e-14 -1.0 -6.731911658536398e-16
  outer loop
    vertex 10.670464568459911 78.08329739740911 22.50000000000004
    vertex 17.170464568459906 78.08329739741009 17.499999999999957
    vertex 27.67046456845988 78.08329739740998 17.500000000000565
  endloop
endfacet
facet normal 3.62601288171555e-14 -1.0 -6.731911658536398e-16
  outer loop
    vertex 10.670464568459911 78.08329739740911 22.50000000000004
    vertex 27.67046456845988 78.08329739740998 17.500000000000565
    vertex 27.67046456845977 78.08329739741 22.50000000000057
  endloop
endfacet
facet normal 3.62601288171555e-14 -1.0 -6.731911658536398e-16
  outer loop
    vertex 27.670464568460144 78.0832973974099 5.000000000000507
    vertex 17.17046456846031 78.08329739741004 4.9999999999999645
    vertex 27.67046456846025 78.08329739740986 5.084579607531753e-13
  endloop
endfacet
facet normal 3.62601288171555e-14 -1.0 -6.731911658536398e-16
  outer loop
    vertex 17.17046456846031 78.08329739741004 4.9999999999999645
    vertex 27.670464568460144 78.0832973974099 5.000000000000507
    vertex 17.558693136113913 78.08329739741013 5.051111260566419
  endloop
endfacet
endsolid print list 11
